<svg width="113" height="27" viewBox="0 0 113 27" fill="none" xmlns="http://www.w3.org/2000/svg">
<path d="M13.0386 0H22.3347C22.3347 2.48521 22.869 5.52071 23.9375 9.10651H22.869C21.9786 6.5503 20.6607 4.52663 18.9154 3.0355C17.1702 1.54438 15.2825 0.816569 13.2523 0.852071C9.97545 0.95858 7.60688 2.39645 6.14657 5.16568C4.68625 7.7929 4.29445 10.8639 4.97119 14.3787C5.54107 17.6095 6.89453 20.1834 9.03158 22.1006C11.2043 24.0178 13.6262 24.9053 16.2976 24.7633C18.6127 24.6213 20.821 23.645 22.9224 21.8343L23.617 22.6331C22.406 23.9112 20.8744 24.9586 19.0223 25.7751C17.2058 26.5917 15.3893 27 13.5728 27C9.76174 27 6.57398 25.7396 4.00951 23.2189C1.44505 20.6982 0.109397 17.5385 0.00254412 13.7396C-0.0330735 11.8225 0.305293 9.95858 1.01764 8.14793C1.72999 6.30178 2.79852 4.72189 4.22322 3.40828C6.64521 1.13609 9.58366 0 13.0386 0Z" fill="#18191A"/>
<path d="M44.1698 25.5089C46.4493 24.8698 48.0877 23.1657 49.085 20.3965C50.0823 17.5917 50.1357 14.5385 49.2453 11.2367C48.3549 7.93491 46.7699 5.32544 44.4904 3.40828C42.2464 1.49113 39.9847 0.852072 37.7052 1.49112C35.3901 2.05917 33.7339 3.74556 32.7366 6.5503C31.7749 9.31953 31.7215 12.355 32.5763 15.6568C33.5023 18.9941 35.0873 21.6213 37.3312 23.5385C39.5751 25.4556 41.8547 26.1124 44.1698 25.5089ZM50.5275 23.0592C47.8918 25.6864 44.7041 27 40.9642 27C37.2244 27 34.0188 25.6864 31.3475 23.0592C28.7118 20.3965 27.3939 17.2012 27.3939 13.4734C27.3939 9.74556 28.7118 6.56805 31.3475 3.94083C34.0188 1.31361 37.2244 0 40.9642 0C44.7041 0 47.8918 1.31361 50.5275 3.94083C53.1632 6.56805 54.4811 9.74556 54.4811 13.4734C54.4811 17.2012 53.1632 20.3965 50.5275 23.0592Z" fill="#18191A"/>
<path d="M71.2127 0H80.5088C80.5088 2.48521 81.0431 5.52071 82.1116 9.10651H81.0431C80.1527 6.5503 78.8348 4.52663 77.0896 3.0355C75.3443 1.54438 73.4566 0.816569 71.4264 0.852071C68.1496 0.95858 65.781 2.39645 64.3207 5.16568C62.8604 7.7929 62.4686 10.8639 63.1453 14.3787C63.7152 17.6095 65.0686 20.1834 67.2057 22.1006C69.3784 24.0178 71.8004 24.9053 74.4717 24.7633C76.7868 24.6213 78.9951 23.645 81.0965 21.8343L81.7911 22.6331C80.5801 23.9112 79.0485 24.9586 77.1964 25.7751C75.3799 26.5917 73.5634 27 71.7469 27C67.9359 27 64.7481 25.7396 62.1836 23.2189C59.6192 20.6982 58.2835 17.5385 58.1767 13.7396C58.141 11.8225 58.4794 9.95858 59.1918 8.14793C59.9041 6.30178 60.9726 4.72189 62.3973 3.40828C64.8193 1.13609 67.7578 0 71.2127 0Z" fill="#18191A"/>
<path d="M102.344 25.5089C104.623 24.8698 106.262 23.1657 107.259 20.3965C108.256 17.5917 108.31 14.5385 107.419 11.2367C106.529 7.93491 104.944 5.32544 102.664 3.40828C100.421 1.49113 98.1589 0.852072 95.8793 1.49112C93.5642 2.05917 91.908 3.74556 90.9107 6.5503C89.949 9.31953 89.8956 12.355 90.7504 15.6568C91.6765 18.9941 93.2614 21.6213 95.5053 23.5385C97.7493 25.4556 100.029 26.1124 102.344 25.5089ZM108.702 23.0592C106.066 25.6864 102.878 27 99.1383 27C95.3985 27 92.1929 25.6864 89.5216 23.0592C86.8859 20.3965 85.5681 17.2012 85.5681 13.4734C85.5681 9.74556 86.8859 6.56805 89.5216 3.94083C92.1929 1.31361 95.3985 0 99.1383 0C102.878 0 106.066 1.31361 108.702 3.94083C111.337 6.56805 112.655 9.74556 112.655 13.4734C112.655 17.2012 111.337 20.3965 108.702 23.0592Z" fill="#18191A"/>
</svg>
