<?xml version="1.0" encoding="utf-8"?>
<!-- Generator: Adobe Illustrator 28.0.0, SVG Export Plug-In . SVG Version: 6.00 Build 0)  -->
<svg version="1.1" id="Слой_1" xmlns="http://www.w3.org/2000/svg" xmlns:xlink="http://www.w3.org/1999/xlink" x="0px" y="0px"
	 viewBox="0 0 566.93 566.93" style="enable-background:new 0 0 566.93 566.93;" xml:space="preserve">
<style type="text/css">
	.st0{fill-rule:evenodd;clip-rule:evenodd;fill:#EDC980;}
	.st1{fill-rule:evenodd;clip-rule:evenodd;fill:#D8B178;}
	.st2{fill:#D8B178;}
	.st3{fill-rule:evenodd;clip-rule:evenodd;fill:#F0D9A3;}
	.st4{fill-rule:evenodd;clip-rule:evenodd;fill:#E3C79F;}
	.st5{fill:#E3C79F;}
	.st6{fill-rule:evenodd;clip-rule:evenodd;fill:#C68E38;}
	.st7{fill-rule:evenodd;clip-rule:evenodd;fill:#F3E4CD;}
	.st8{fill-rule:evenodd;clip-rule:evenodd;fill:#EDD7BA;}
	.st9{fill-rule:evenodd;clip-rule:evenodd;fill:#CFA159;}
	.st10{fill-rule:evenodd;clip-rule:evenodd;fill:#BF8119;}
</style>
<g>
	<path class="st0" d="M71.68,417.93v-8.11c-0.83-0.62-6.66-3.12-12.89-9.36c-4.16-4.16-7.07-7.9-9.78-13.1
		c-1.66-3.33-2.08-4.37-3.33-7.9c-1.25-3.74-2.29-9.98-2.29-14.35c0-1.66-0.21-4.37-0.21-5.41c0.21-1.04,0.21-1.87,0.21-2.7
		c-0.21-7.69,3.95-23.09,6.66-29.95c1.87-4.78,2.91-7.49,4.99-12.27c1.87-4.58,6.45-14.97,8.94-19.13l6.03-11.23v-33.28
		c-0.83,0.62-8.94,13.52-9.78,14.97l-13.73,24.33l-4.37,8.53c0,0.21,0,0.21-0.21,0.62c-1.87,3.54-4.99,11.44-6.24,15.39
		c-2.7,7.49-4.58,13.73-5.82,21.63c-0.42,2.29-0.62,4.78-1.04,7.07l-0.42,5.41c0,0.83,0,1.04,0,1.87c-0.21,5.41,0,10.19,0.83,14.77
		c1.25,9.15,4.99,19.76,10.19,27.24c0.21,0.42,0.42,0.62,0.83,1.25l7.07,8.32c0.42,0.42,0.62,0.62,1.04,1.04
		c5.62,5.41,13.1,10.19,20.38,13.1C69.6,417.1,70.85,417.72,71.68,417.93"/>
	<path class="st0" d="M284.44,320.81v1.46l3.54-1.87c-0.21,1.25-1.04,3.33-1.46,6.03c-0.42,2.29-0.21,4.99,0,6.86
		c0.83,4.16,2.08,7.9,3.95,10.81c0.62,0.62,1.25,1.25,1.66,1.87c3.12,3.74,8.32,7.49,12.89,9.15c0.62,0.21,2.29,0.62,2.7,1.04v-4.37
		c-0.42-0.42-0.83-0.42-1.25-0.62c-7.28-3.95-12.06-10.81-9.98-19.97c0.42-2.29,1.04-4.16,1.87-6.24c0.62-1.87,2.29-4.78,3.54-6.66
		l1.46-2.5c0.42-0.42,0.62-0.83,0.83-1.25c0.62-0.62,3.33-3.95,3.54-4.58v-18.93l-6.66,6.45c0,0.21-0.21,0.42-0.21,0.42l-1.25,1.46
		c-3.95,4.78-7.69,10.61-9.98,16.64c-1.46,3.54-0.62,2.5-2.91,3.74C286.1,320.18,285.27,320.39,284.44,320.81"/>
	<path class="st1" d="M480.56,157.13c-0.21-1.04-0.62-3.74-0.83-4.58c-0.83-1.87-2.29,0-1.25-3.54c0.42-2.08,1.66-3.74,0.42-3.54
		c-0.62,0.21-1.87,1.66-3.12,2.5c-0.62,0.21-1.25,0.42-1.66,0.83c-2.5,1.25-1.04,0.42-2.91,0.21c-1.04-0.21-3.12-0.42-3.95,0
		c0-1.25,0.21-1.87,0.21-3.12c-0.83,0.62-1.66,1.46-2.08,2.5c-2.91,0-5.2-0.42-8.32-0.62c-2.7,0-6.86,0.62-8.53,0.62
		c-0.21,0.42-0.21,0.42-0.62,0.83c1.46,0,2.5-0.21,4.16-0.21h8.94c1.66,0,2.5,0.42,3.95,0.42l-0.62,0.42
		c-1.04,0.62-2.5,2.29-2.7,2.91c-0.42,0.42-0.42,1.04-0.62,1.66c-0.83,3.12,0.62,3.33,0.62,8.11c-0.83,0.21-1.25,0.21-2.29,0.21
		c0-1.04-0.42-4.99-0.83-5.62c-0.42,0.42-0.42,0.42-0.83,0.62c0,0.62,1.04,3.33,0.83,4.99c-0.21,1.25-1.04,3.33-2.08,3.95
		c0-0.83-0.21-0.83,0-1.46c0-0.83,0.21-0.62,0.21-1.46c-0.62-0.21-0.42-0.21-0.62-0.83l0.62,0.21c-0.21-0.62-0.42-1.46-0.42-2.08
		l-1.04,1.25c0,0,0,0,0,0.21h-0.21c0,1.04,0.42,1.87,0.42,2.91c-0.83-0.42-2.08-1.46-2.08-2.7c-0.42,0.42-0.42,0.62-0.83,1.04
		c-0.42,0.42-0.62,0.62-1.25,0.83c0,0.42-0.42,1.46-0.83,1.66c-0.83,0.42-0.83,0-1.46,1.04c0.42,1.04,0.42,0.42,1.04,1.04
		c0.62,0.62,0.42,1.04,0.42,2.08c-0.42,0.21-1.46,0.83-2.29,0.83c-0.83-0.21-0.62-0.62-1.87-1.25c-0.21,0.83-0.21,0.21-0.62,1.04
		c-0.21,0.62,0,0.83-0.42,1.25c-0.62,0.62-1.87,0.62-2.08-0.42l-0.83,0.83c0.21,0.42,0.62,0.62,1.04,1.25
		c-0.83,0-1.66,0.42-2.5,0.42c-0.21,0.42,0,0.21-0.42,0.62c-0.21,0.21-0.42,0.21-0.62,0.42c1.04,0,1.66-0.42,2.7-0.42
		c-0.21,0.21,0,0.21-0.42,0.21c-0.83,0.42-1.87,0.42-2.7,0.62c-0.21,0.62-0.21,0.42-0.62,0.83c-0.21,0.42-0.42,0.42-0.62,0.62
		c0,0.42-0.21,0,0,0.42c0,0,0,0,0.21,0.42c0.62,0.42,3.74,5.41,5.41,5.41c0-1.04-1.66-2.08-2.5-3.12c0.83,0,1.04,0.21,1.66,0.42
		c1.87,0.83,2.29,0.62,4.58,2.29c1.25,0.83,3.74,3.12,3.74,4.78c-0.62-0.21-1.04-0.21-2.08-0.21c-0.83,0-1.46-0.21-2.29-0.42
		c-2.7-0.42-4.16-0.21-6.03-3.95c-0.42-1.04-1.25-3.33-1.87-3.33c-0.42,0.42-0.62,0.62-1.04,1.25c-0.42,0.42-0.83,0.62-1.04,1.25
		c0.42,0.21,0.42,0.42,0.42,1.66v2.29h-0.21c0-1.04-0.21-2.29-0.83-2.7c-0.42,1.04-0.21,0.42-0.21,1.46
		c-0.42-0.21-1.04-0.42-1.25-0.62c-0.21,0.42-0.21,0.21-0.62,0.62c0.42,0.42,1.25,0.83,1.46,1.04c1.25,0.83,2.7,3.33,3.33,4.58
		h-4.58c-2.29,0-2.5,0-3.74-1.25c-0.21,0.62,0,0.42-0.62,0.62c0.62,0.42,1.04,0.62,1.46,1.25c-0.42,0.62-0.62,0.42-0.62,1.66
		c-0.83-0.21-0.62-0.62-1.25-1.04c-0.21,0.42,0,0.21-0.42,0.62c0,0.42-0.21,0.21,0.83,1.04c0.83,1.04,0.83,1.04,2.08,1.87
		c0.42,0.42,0.83,0.42,1.04,0.83c-1.46-0.21-2.91-1.87-3.95-2.7c-0.21,0.62-0.21,0.42-0.62,1.04c0.21,0,0.42-0.21-0.62,1.25
		l-1.87,2.91c-0.42,1.46,0.83,4.99,1.66,6.03c0.21,0.62,0.62,0.83,0.83,1.46c0.21,0.62,0.62,1.25,0.62,1.87h0.83
		c0.42-1.87,3.54-5.62,2.7-8.73c-0.21-1.25-0.83-1.87-1.25-2.91c1.04,0.62,1.87,1.04,3.12,1.46c1.04,0.42,2.5,0.83,3.74,1.04
		c0,1.66,0,3.54,0.62,4.37c3.74,4.16,6.45,1.04,9.98,0.83c0.83,0,1.46,0.42,2.29,0.21c-0.21-1.46-1.04-0.21-2.91-2.5
		c-1.25-1.46-2.29-2.91-3.74-4.16c-0.42-0.62-1.25-0.83-1.87-1.04c-2.29-1.04-2.08,0.62-3.95,0.62c0.42-0.62,4.37-1.87,5.2-4.99
		c0.62-2.29,1.04-1.25,4.58-2.08c1.04-0.21,1.87-0.42,2.91-0.42c2.5,0,4.37-0.21,6.86-0.21c0.42-0.42,0.42-0.21,0.62-1.04
		c-3.12,0-7.28,0.21-10.19,0.83c-1.04,0-3.95,0.21-4.78,0.62c-0.83,0.42-0.42,0.62-1.87,0.83c-1.87,0-1.04-0.42-0.83-1.04
		c-0.83-1.46-0.42-1.66,0-2.08c0.62-1.04-0.21-1.25-0.21-2.29c0.62,0.21,0.42,0.21,0.83,0.83c1.04,0.83,2.7,1.46,3.95,1.66
		c2.29,0.42,3.95,0.83,6.86,0.83c0-1.87-0.83-2.08-1.46-3.33c-0.83-1.25-2.91-3.33-4.16-3.95c-0.62-0.42-1.25-0.83-2.08-1.04
		c-1.87-0.62-2.08-0.83-3.54-1.46c-1.04-0.42-2.08-1.25-2.5-2.29c0.62-0.42,1.46-0.42,2.5-0.62c2.7-0.42,6.66-1.87,7.49-1.87
		c0.83,1.25,1.25,2.5,1.66,4.16c0.21,1.87,1.25,2.91,2.5,3.74c1.46,1.25,1.66,1.66,4.58,1.66c1.66,0,2.5,0.21,3.95,0.62
		c0.83,0.21,0.42,0,1.25,0c0-1.04-0.21-0.62-1.04-1.87c-1.04-1.66-1.66-3.12-3.74-4.78l-4.58-2.29c-0.42,0-0.83,0-1.25-0.21
		c-0.62-0.42-0.83-1.04-1.66-1.25v-0.62c2.08-0.62,3.74-2.5,4.78-2.29c0.62,0,0.42,0.21,1.46,0.21c1.87,0,2.29,0.83,2.91,2.08
		c2.5,3.95,2.5,2.08,4.16,3.12c1.04,0.62,0.62,4.78,0.62,6.24c-0.21,0.21,0-0.21-0.42-0.62l-0.62-0.42
		c-0.21,2.08,0.21,1.25,0.21,2.5c-0.42,0.21-0.42,0.21-0.83,0.21c-0.21,0.42-0.21,0.62-0.21,1.25c-0.42-0.62-0.21-0.83-1.04-1.04
		c-0.21,0.62,0,2.29,0.21,3.12c0.83-0.42,0.42-0.42,1.04,0c0.83,0.21,0.42,0,1.25,0c0.21-0.62,0.42-1.87,0.42-2.5h0.21
		c0,1.04-0.21,1.87,0.62,2.08c0.42-0.83,0-1.46,0-2.5v-8.73c1.04,0,1.25-0.21,2.29-0.42h2.7c1.04,0,4.16,1.04,4.16-0.42
		c0-0.42-2.5-2.91-2.91-3.12c-0.62-0.42-1.25-0.83-1.87-1.25c-0.42-0.42-1.46-0.62-1.66-1.25c1.66-0.42,3.33,0.21,5.41,0
		c1.04-0.21,1.46,0,2.7,0c1.04,0.21,1.87,0.42,2.7,0.42c0.62-0.62,1.04-0.83,1.46-1.66c0.21-0.83,0.21-1.25,0.21-2.5
		c-0.62,0-0.62,0.21-1.04,0.21c0.21-0.42,0.42-0.42,1.04-0.42c0,0.83,0.21,0.83,0.21,1.87c0.62-0.42,0.83-0.83,1.25-1.46
		C482.02,163.99,480.98,160.46,480.56,157.13z M438.76,188.12c-0.21,0-0.21,0-0.42-0.21c-0.83-0.83,0-1.25,0-1.66
		c0-1.25-0.62-4.37-0.21-4.99c0.42,0.21,0.21-0.21,0.42,0.62c0,0.42,0,0.42,0,0.83C438.97,184.58,438.76,186.66,438.76,188.12z
		 M429.61,206.63c-0.42-0.42-0.62-0.83-0.83-1.46c-0.42-0.62-0.62-0.83-0.83-1.46c-0.83-1.46-1.04-2.08-1.04-3.95
		c0-1.46,0.83-1.66,1.66-2.91c0.21-0.42,0.21-0.83,0.62-0.83v2.5c0,4.78,0.83,4.16,0.83,6.86C430.02,206,429.82,206,429.61,206.63z
		 M431.48,202.88c-0.21,0.62-0.62,1.04-0.62,1.66c-0.62-0.42-0.62-0.42-0.62-1.46c-0.42-2.91,0-3.95,0-6.24
		C431.69,197.68,432.1,200.8,431.48,202.88z M439.18,198.93c0.21-1.04,1.66-1.25,2.7-1.25c1.66,0,2.7,1.25,3.54,2.29
		c0.42,0.62,2.7,2.5,2.7,3.33c0,1.04-1.25,0.21-1.87-0.42c-1.46-1.46-1.25-1.87-3.33-3.12c-1.87-1.04-1.25-1.25-2.7-1.25
		c-0.42,0-0.42,0-0.42,0.42v0.42c2.29,0,3.74,1.87,5.2,3.12c0.62,0.42,1.25,0.83,1.46,1.66c-0.62,0-0.83,0-1.46,0.21
		c-1.66,0.21-1.87,0.62-3.33-0.21l-0.83-0.21c-0.83-0.21-1.25-1.04-1.25-2.08C439.38,201.43,438.97,199.35,439.18,198.93z
		 M439.59,183.33c1.25,0.83,0.42,2.08,0.42,2.29C439.38,185.2,439.59,183.96,439.59,183.33z M439.59,186.45h0.21
		c0,1.04,0.21,3.12,0.42,3.95C439.18,189.57,439.59,187.28,439.59,186.45z M434.18,197.06c-0.21-0.21-0.21,0-0.42-0.21
		c0.62,0,0.83,0,1.04,0.21l0.83,0.62C435.22,197.47,434.6,197.27,434.18,197.06z M438.14,198.1c-0.62,0.21-0.62,0-1.25,0v-0.21
		c0.62,0,0.83,0,1.46,0.21C438.14,198.1,438.14,198.1,438.14,198.1z M441.67,193.94c-0.62,1.04-2.5,2.29-3.95,2.5
		c-1.87,0.42-3.33-0.62-4.78-1.25c0.42-0.62,0.42-0.62,1.04-1.04c2.29-1.66,4.78,0.83,4.16-1.04c-0.21-0.62-2.29-1.46-4.58,0.21
		c-1.04,0.83-0.83,1.04-1.66,1.04c-1.25-1.87,0.83-2.08,1.46-2.29c1.66-0.62,5.2-0.21,6.86,0
		C442.92,192.28,443.96,191.03,441.67,193.94z M442.92,175.01c0.21-0.21,0.21-0.21,0.62-0.42h0.83L442.92,175.01z M445,174.39
		c0.62-0.21,0.42-0.21,1.04-0.21C446.04,174.18,445.41,174.6,445,174.39z M447.7,172.73c-0.42,0-1.04,0.21-1.46,0.42
		c0.21-0.42,0.21-0.83,0.42-1.04h2.29L447.7,172.73z M456.85,180.63c0-0.62-0.42-0.83-0.83-1.25l-3.33-2.7
		c1.25,0,3.95,1.46,4.99,2.29c1.04,0.62,2.91,2.7,3.12,4.16c-1.66,0.42-3.95,0.21-5.41-0.42c-1.46-0.42-3.12-2.08-3.74-3.74
		c-0.21-0.62-0.83-2.08-0.83-3.12C451.86,176.68,454.57,180.63,456.85,180.63z M451.45,172.1c0.21-0.21,0,0,0.21-0.21
		c0.21-0.21,0.21-0.21,0.42-0.21c0.42-0.21,0.42-0.21,0.62-0.42C452.49,171.69,452.07,171.89,451.45,172.1z M451.24,171.06
		c0.42-0.62,0.42-0.62,1.25-0.62C452.07,170.85,451.86,170.85,451.24,171.06z M455.4,168.98c-1.25,0.83-1.04,0.62-2.91,0.62
		c-0.83,0-0.83-0.21-1.04-0.83c-0.21-0.21-0.62-1.04-0.62-1.25c0-0.62,0.21-0.21,1.25-1.46c0.42-0.83,0.21-1.25,0.62-2.08
		c0.42,0.42,0.42,0.62,0.83,1.04c0.21,0.42,0.62,0.62,1.04,0.83c0.42,0.42,0.62,0.62,0.83,1.04
		C456.44,168.98,456.02,168.77,455.4,168.98z M479.52,156.92c0.42,1.04,0.21,2.7,0.62,4.16c0.21,0.42,0.42,0.62,0.42,1.25
		c-0.83,0-1.25-0.21-1.87-0.21c-1.04,0,0,0-0.83,0.21c-0.62,0.21-0.21-0.42-2.08-0.83c-2.08-0.62-3.12-0.42-4.99,0.42
		c-0.83,0.42-1.87,0.62-2.5,1.04c-1.04-0.42,0-0.42-1.87-0.42c0.42-0.83,0.83-0.83,1.46-1.66c0.42-0.62,0.83-1.46,1.25-2.08
		c1.25,0.42,1.04,0.42,3.12-0.21c0.83-0.21,1.87-0.62,2.7-1.04c1.46-1.04,2.7-3.12,2.7-5.2
		C479.32,152.55,479.11,155.05,479.52,156.92z M467.46,163.37l-1.04,0.42h-1.04v-0.21C466.21,163.37,466.42,163.37,467.46,163.37z
		 M476.4,149.43c0.21-0.83,0.21-1.04,1.04-1.25c0,0.83-0.21,1.04-0.42,1.66c-0.21,2.29-0.42,6.03-3.33,7.07
		c-0.83,0.42-2.08,0.83-3.33,0.83l0.62-0.21c0.83-0.62,1.87-1.66,2.7-2.7C474.74,153.8,476.2,150.89,476.4,149.43z M474.12,149.85
		c0.62-0.21,0.62-0.42,1.25-0.42c0,0.62-0.21,0.83-0.42,1.25c-1.25,1.87-1.66,3.95-3.74,5.62c-0.62,0.42-1.66,1.25-2.7,1.25
		c0-1.46-0.42-1.46,0.42-4.37c0.42-1.04,0.83-1.46,1.66-1.87C471.62,150.68,473.08,150.47,474.12,149.85z M467.25,151.3
		c0-0.83-0.21-0.83-0.21-1.66h4.16c-0.21,0.42,0,0.21-0.62,0.62c-0.83,0.42-1.66,0.62-2.29,1.66c-1.25,2.08-0.42,4.99-1.25,6.24
		c-0.62,1.04-2.7,3.54-3.74,3.95c0.13-0.26,0.83-1.18,1.49-2.03c0.01-0.01,0.01-0.02,0.02-0.02c0.39-0.5,0.75-0.97,0.98-1.28
		C467.46,156.09,467.25,154.42,467.25,151.3z M462.26,153.8c0.42-1.25,1.25-1.66,2.5-3.12c0.62-0.42,0.83-1.04,1.46-1.25
		c0,2.7,0.42,6.86-1.46,9.15c-0.21,0.42-0.42,0.62-0.83,1.04c-0.21,0.42-0.42,0.62-0.83,0.83c-0.83-0.62-1.46-3.54-1.46-4.58
		C461.64,155.26,462.05,154.42,462.26,153.8z M459.35,163.78h2.29l-3.95,3.74C457.69,166.28,458.73,166.69,459.35,163.78z
		 M456.44,169.19c0.42-0.21,0-0.21,0.62-0.21l3.95-3.33c0.42-0.42,0.62-0.83,1.25-1.25l2.5-2.29c0.83-0.62,1.87-1.87,2.5-2.29
		l-2.08,2.5c-1.04,1.25-6.86,6.24-8.11,6.66C456.85,169.19,457.06,169.19,456.44,169.19z M465.8,175.43c-1.04,0,0-0.21-0.83-0.21
		c-0.83,0-1.25,0.62-2.29,0.21c-1.04-0.62-1.46-1.46-1.87-2.29l-0.62-1.25c0.83,0,1.46,0.21,2.29,0.42c1.46,0.21,4.99,1.66,5.62,2.5
		L465.8,175.43z M470.37,172.52c0.83,0.62,2.29,1.87,2.7,2.7c-0.83-0.21-3.12-0.21-3.95-0.62c-0.83-0.42-1.04-1.04-4.58-2.5
		c-0.21-0.21-0.21-0.21-0.62-0.42c-0.21-0.21-0.62-0.21-0.83-0.42c-2.91-1.04-2.7-0.42-3.54,0c-0.21,0-0.21,0-0.42-0.21l1.66-0.83
		C465.17,168.98,467.04,170.23,470.37,172.52z M479.32,169.4c-1.04,0-2.5-0.62-3.95-0.62h-7.9c-0.83,0-1.04,0.21-1.46,0.21
		c-0.42,0-2.08-0.83-4.78,0.21c-2.08,0.62-1.87,1.04-3.12,0.42c0.21-0.42,0.62-0.62,1.04-0.83l3.12-2.5
		c1.04-0.62,1.04-1.04,2.5-0.83c4.78,0.83,5.41,3.95,11.65,2.7c0.42,0,0.83-0.21,1.25-0.42c0.42-0.42,0.62-0.62,1.25-0.83
		c-0.21,0.21-0.62,0.83-0.62,1.25c0,0.42,0.62,0.62,1.04,0.83V169.4z M478.48,165.65c-0.62,0.62,0,0.42-1.46,1.04
		c-4.37,1.87-5.41,0.42-9.15-1.25l-0.83-0.42c3.33,0.21,3.33,0.62,7.28,0c1.46-0.21,2.7,0,3.95-0.42v-0.01c0-0.02,0-0.04,0-0.06
		v-0.34c-0.83-0.21-2.5-0.42-3.54-0.42c0.21,0.42,0.42,0,0.21,0.42c-1.87,0.42-4.58,0.21-6.86,0.21c0.21-0.62-0.21-0.21,0.42-0.62
		c0.62-0.21,4.58-1.66,5.41-1.66c1.91,0,4.26,1.6,5.35,2.25c0.02,0.01,0.04,0.02,0.05,0.03c0.19,0.11,0.33,0.19,0.42,0.22
		C479.32,165.45,479.11,165.24,478.48,165.65z M479.73,163.57c0.83,0,0.83,0,1.04,0.62C480.15,163.99,480.15,163.99,479.73,163.57z"
		/>
	<path class="st1" d="M465.81,159.84c0.62-0.19,1.23-0.24,1.85-0.42"/>
	<path class="st2" d="M463.55,160.35c-0.15,0.03-0.3,0.07-0.45,0.1L463.55,160.35z"/>
	<path class="st2" d="M464.82,160.06l-1.27,0.29c0.42-0.09,0.83-0.17,1.25-0.26C464.8,160.08,464.81,160.07,464.82,160.06z"/>
	<path class="st1" d="M467.67,159.42l-0.21,0.21L467.67,159.42z"/>
	<path class="st1" d="M467.46,159.62l-0.21,0.21L467.46,159.62z"/>
	<path class="st2" d="M480.27,164.3c0.11,0,0.23-0.05,0.35-0.08l-0.71,0.1C480.03,164.31,480.14,164.3,480.27,164.3z"/>
	<path class="st2" d="M468.89,165.91l-1.72,0.25C467.74,166.08,468.32,165.99,468.89,165.91
		C468.89,165.91,468.89,165.91,468.89,165.91z"/>
	<path class="st2" d="M478.27,164.56l-1.05,0.15c0.29-0.04,0.58-0.08,0.9-0.11c0.05-0.01,0.1-0.02,0.15-0.03
		C478.27,164.57,478.27,164.56,478.27,164.56z"/>
	<path class="st2" d="M479.32,164.41l0.59-0.08c-0.11,0.01-0.23,0.03-0.36,0.03c-0.08,0.02-0.16,0.03-0.25,0.05
		C479.31,164.4,479.32,164.4,479.32,164.41z"/>
	<path class="st2" d="M475.62,164.93c0,0,0.01,0,0.01,0c0,0,0.01,0,0.01,0c0,0,0,0,0,0c0.02,0,0.04-0.01,0.06-0.01
		c0.01,0,0.02,0,0.02,0l1.49-0.22c-0.27,0.04-0.54,0.07-0.83,0.1c-0.27,0.04-0.55,0.08-0.82,0.12c0,0,0,0,0,0
		C475.59,164.93,475.6,164.93,475.62,164.93z"/>
	<path class="st1" d="M461.37,167l-3.68,0.53c1.14-0.11,2.26-0.32,3.43-0.47c0.07-0.01,0.14-0.02,0.21-0.03
		C461.34,167.01,461.35,167,461.37,167z"/>
	<path class="st1" d="M456.44,169.4l-0.42,0.21L456.44,169.4z"/>
	<path class="st1" d="M456.02,169.61l-0.21,0.21L456.02,169.61z"/>
	<path class="st1" d="M455.61,169.81l-0.21,0.21L455.61,169.81z"/>
	<line class="st1" x1="453.73" y1="170.65" x2="453.32" y2="171.06"/>
	<path class="st1" d="M459.14,171.06l-0.42-0.21L459.14,171.06z"/>
	<path class="st1" d="M453.32,171.06l-0.21,0.21L453.32,171.06z"/>
	<path class="st1" d="M451.24,172.1l-0.42,0.21L451.24,172.1z"/>
	<path class="st1" d="M450.82,172.31l-0.42,0.21L450.82,172.31z"/>
	<path class="st1" d="M450.41,172.52l-0.21,0.21L450.41,172.52z"/>
	<path class="st1" d="M446.04,174.18l0.42-0.21L446.04,174.18z"/>
	<path class="st3" d="M70.02,251.13v33.28l6.66-10.81c0.83-1.25,1.46-2.29,2.29-3.54c0.21-0.62,0.62-1.25,1.04-1.87
		c0.42-0.62,0.62-1.25,1.04-1.87l6.86-10.61v-27.87c-0.21,0.21-0.83,1.04-1.04,1.25L80,237.61c-0.42,0.62-0.83,0.83-1.25,1.46
		L70.02,251.13z"/>
	<path class="st4" d="M457.27,152.76c-0.21-1.04,0-0.62-0.62-1.25c-1.04,0.21-3.54,2.91-4.16,3.74c-0.83,1.46-0.21,6.03-0.21,7.7
		c-0.83-0.62-0.83-1.46-2.5-1.46c0-1.87-0.62-2.91-1.66-3.54c-1.46-1.04-2.7,0.21-3.74,0.62c-0.21-1.25-1.87-2.08-3.54-1.46
		c-1.46,0.42-2.08,1.66-2.08,3.54c-3.33,0,0.42-1.46-2.29-4.16c0,0.62,0,0.42-0.42,0.83c0.21,0.62,0.42,0.83,0.42,1.66
		c-0.21,0.62-0.62,0.83-0.83,1.46c0.42,0.62,0.42,0.21,0.83,0.83c-0.21,0.83-0.83,0.83-0.62,2.08c0.21,1.04,0.83,1.04,1.04,1.87
		c-0.42-0.21-0.62-0.21-1.04-0.42h-0.42c-0.21,0-0.21,0-0.21,0c-0.42,0-0.42,0-0.62,0.42c-0.21,0.42,0,0.42,0,0.83
		c0.21,0.62,0.62,2.29-1.04,2.29c-0.83,0-0.83-0.21-1.25-0.62c-0.62,0.62-1.25,1.04-1.66,1.87l0.83-0.83
		c0.83,0.21,1.66,0.42,2.29,0.62c0.42,1.87,0,1.04-0.83,0.62c-1.04-0.62-1.25-0.42-2.29-0.21c-0.21,0.21-1.04,0.62-1.25,0.83
		c-0.21,0.42-0.42,0.42-0.62,1.04c0.21,0.83,0.42,1.04,1.25,1.25c0.42-0.83,0.21-2.7,1.87-2.29c1.66,0.21,1.04,1.46,1.66,2.91
		c1.46-0.21,1.87-1.25,2.91,0.83c1.04,2.29-0.62,2.29-0.42,3.12c0.42,1.04,1.66,0.62,1.46,2.29c0,1.04-0.83,1.87-1.87,1.66
		c-1.87-0.42-1.46,0.21-2.08,1.66c-0.42,0.83-1.04,1.25-2.5,1.25c-0.21-0.42-0.21-0.42-0.42-0.83c-0.01-0.04-0.02-0.08-0.03-0.11
		c-0.01-0.02-0.02-0.05-0.02-0.07c-0.12-0.4-0.01-0.26-0.57-0.45c-0.62,0.42-0.83,2.08-2.5,1.46c-1.87-0.42-0.83-2.7-0.83-2.91
		c0.21-1.46-2.29,0.21-2.5-1.46c-0.21-0.62,0-1.46,0.21-1.66c0.42-0.62,0.62,0,1.25-1.04c-0.62-0.83-0.42-0.42-1.25-0.42
		c-0.83-0.21-0.83-0.62-0.62-1.25l-1.04,0.83c0.21,0.42,0.42,0.83,0.42,1.66c-0.62-0.21-0.62-0.42-1.46-0.62l-0.62,0.83
		c1.04,0,1.04,0.42,1.66,0.62c-0.21,0.62-0.21,0.42-0.62,0.83l-2.29,1.66c-3.54,3.12-2.91,4.58-1.66,2.7
		c0.62-0.62,0.83-0.62,1.46-1.25c1.04-1.04,1.66-1.46,3.12-2.29c-0.21,0.62-0.83,1.87-1.04,2.29c-1.25,1.66-2.29,1.66-3.12,2.08
		c-1.04,0.83-2.5,1.66-3.74,1.66c-0.21,0.83-1.25,1.25-1.66,2.08c0.83,0.21,0.21,0.62-0.21,1.66c-0.42,1.46-0.42,0.42-1.66,0.83
		c-0.62,0.21-0.62,0.62-1.25,0.83l-0.21,0.21l-0.21,0.21c-0.42,2.91,0,1.46,1.04,3.33c-0.21,0.42-0.62,0.62-1.04,0.83
		c-0.21,0-0.42,0-0.62,0.21c-0.83,0.21-2.08,1.46-2.7-1.04c-1.04,0-0.83,0.62-1.87,0.62c-0.42,0.62-0.21,0.42-0.83,0.83
		c0.83,0.42,1.04,0,1.46,0.83c0,0.21,0.21,1.66,0.21,1.87c0.21,2.5,0.42,1.87-1.25,2.91c-4.99,3.54-8.11,7.28-12.48,11.65
		c-0.62,0.42-0.62,0.62-1.04,1.04c-0.83,0.83-1.46,1.46-2.29,2.29c-0.42,0.42-0.62,0.62-1.04,1.04c-0.42,0.42-0.62,0.83-1.04,1.25
		c-1.46,1.46-3.12,2.91-4.37,4.58l-12.27,11.85c-1.25,1.04-7.07,5.62-7.28,6.03c-3.54,4.16,1.87,7.07,4.78,8.53
		c7.07,3.33,6.66,2.29,13.31,4.16c1.25,0.42,2.08,0.83,3.33,1.04c1.46,0.42,2.5,0.42,3.74,0.83c1.04,0.42,2.29,0.42,3.54,0.83
		c1.25,0.21,2.7,0.62,3.95,0.62l0.62-0.62l-9.57-2.08c-0.83-0.21-1.46-0.42-2.08-0.62c-0.83-0.21-1.66-0.21-2.5-0.62l-6.86-1.66
		c-0.83-0.21-1.25-0.62-2.08-0.83c-2.5-0.62-6.86-2.7-8.74-4.37c-0.83-0.83-1.04-0.42-1.46-1.66c-0.21-0.62-0.21-0.62,0.21-0.83
		c0.21,2.08,4.16,3.74,6.03,4.58c1.66,0.83,6.86,2.29,8.32,2.7c0.62-0.42,0.42-0.21,0.83-0.62c-0.62-0.21-1.66-0.62-2.08-0.83
		c-3.54-1.04-2.7-0.62-6.03-2.08c-2.29-0.83-5.62-2.08-6.45-4.37c-0.42-1.46,0.42-1.66,2.29-2.91l6.45-4.37
		c1.66-1.04,5.62-2.5,7.49-3.33c1.46-0.62,2.29-1.25,3.74-1.66c2.08-0.83,1.25-0.42,3.95-1.46l12.06-4.58
		c1.25-0.42,2.7-0.62,4.16-1.04c0.62-0.42,1.25-0.62,2.08-0.83l2.08-0.62l0.83-1.25c-0.83,0.21-9.36,2.7-10.19,3.12l-4.78,1.66
		c-2.08,0.62-7.28,2.7-9.57,3.54c-1.46,0.62-3.12,1.25-4.78,2.08l-6.66,3.12c-0.62,0.42-1.66,1.04-2.29,1.25
		c0.62-1.04,2.08-1.46,3.12-2.08l11.02-5.2l7.7-2.91c2.29-0.83,1.04-0.62,3.95-1.25l8.11-2.7c2.08-0.42,4.78-1.66,8.32-2.29
		c0.62-0.21,1.46-0.42,2.08-0.62c3.33-1.04,8.74-1.46,13.1-2.91c2.7-0.62,2.08-0.42,4.37-0.83c0.83-0.21,1.66-0.62,2.29-0.62
		l0.83-0.83c-0.83,0-1.46,0.21-1.87,0.42c-0.83,0.21-1.66,0-2.29,0.21c-2.08,0.83-1.87,0.42-3.95,1.04
		c-0.83,0.21-1.46,0.42-2.08,0.42c-2.5,0.42-2.29,0.62-4.16,1.04c-2.5,0.42-10.19,1.87-12.27,2.7c-0.83,0.42-1.25,0.42-2.08,0.62
		c-1.46,0.42-1.46,0.62-3.74,1.25c-0.83,0.21-1.04,0.42-1.87,0.62c-4.99,1.46-10.19,3.12-14.97,5.2c-2.5,1.04-2.91,1.04-5.41,2.08
		c-0.62,0.42-1.04,0.62-1.66,0.83c-0.62,0.42-1.25,0.42-1.87,0.83c-0.83,0.42-2.08,1.46-3.12,1.66c0.21-0.42,1.66-1.46,2.29-2.08
		l6.86-6.86c1.46-1.46,2.7-3.12,4.37-4.58l4.37-4.78c1.66-1.46,2.91-2.91,4.58-4.58c0.42-0.42,0.42-0.62,1.04-1.25l2.29-2.08
		c0.62-0.42,0.83-0.62,1.25-1.04c1.87-1.46,3.54-2.5,5.2-3.95c1.25-0.83,5.82-1.66,7.49-1.66c1.04,1.66,2.08,1.66,4.16,0.62
		c1.04-0.62,1.04,0.21,2.5-0.42c1.25-0.42,0.83-0.62,1.46-1.66c0.62-1.04,3.33-0.21,5.2-3.95c0.21-0.83,0.62-1.04,2.08-1.04
		c0.42-0.62,0.42-0.42,0.62-1.04c-0.21-0.62-0.62-1.04-0.83-1.66c-0.42-0.62-0.62-0.83-1.04-1.46c-0.62-1.25-0.42-2.91-0.42-4.78
		h0.21c0,2.29,0.21,3.74,1.04,5.62c0.42,0.83,0.42,1.04,1.04,1.25c0.42-0.42,0.21-0.21,0.42-0.62c-0.42-1.25-1.25-2.08-1.25-3.74
		l1.66,1.87c0.62-0.21,0.42,0,0.62-0.62l-0.62-0.62c-1.04-1.25-0.62-1.87-1.87-2.08c0-0.83,0-0.83,0.42-1.25
		c0.83,0,0.83,0,1.25,0.42c0.62,0.42,0.83,0.62,1.25,0.83c1.25,0.83,1.87,1.46,2.7,1.25c-0.42-1.25-2.91-2.08-3.74-3.33
		c1.04,0.21,1.04,0.83,1.87,0.62c0.42,0,0.62-0.21,1.04-0.21c0.62-0.21,0.83,0,1.25,0c0.42-0.42,0.42-0.21,0.62-0.62
		c-1.04-0.42-0.21-1.66,0.21-2.08h1.87c0.21-0.62,0.62-0.83,1.04-1.25c0.42-0.62,0.62-0.83,1.04-1.25
		c-0.21-0.62-0.62-1.25-0.62-1.87c-0.62-0.42-0.83-0.42-0.83-1.04c0.21,0.21,0.21,0.21,0.62,0.21c0.21-0.21,0.42-0.21,0.62-0.62
		c0.42-0.42,0.42-0.21,0.62-0.83c-1.04,0-1.04,0.42-1.66,0c0.62-0.21,1.46-0.21,2.08-0.42c0.21-0.21,0.42-0.21,0.62-0.42
		c0.42-0.42,0.21-0.21,0.42-0.62h-1.25c0-0.62,0.21-1.25,0.42-1.66h2.29l0.83-0.83c0-1.04,0-0.21-0.21-1.04
		c-1.66,0-1.04,0.83-2.29,0.62c-0.83,0-1.25-0.83-0.83-1.66c0.21-0.62,1.25-1.66,0-1.87c-1.46-0.42-1.04,0.21-2.29-0.62
		c0-1.04,0-1.25,0.62-1.46c0.42-0.42,0.83-0.42,0.83-0.62c0.42-0.83-0.42-0.83-0.62-0.83c-0.42-0.21-0.42,0-0.83-0.42
		c-0.62-0.42-0.83-2.7,1.66-1.87c0.62,0.42,1.04,0.21,1.46-0.42c0.21-0.42,0-0.42-0.21-0.62c0,0,0,0-0.21-0.21
		c-0.21-0.42-0.42-0.62-0.42-1.25c0.21-1.66,2.7-2.29,3.74-0.62c0.42,0.83-0.21,1.66,0.83,2.08c1.46,0,0.42-2.91,2.7-2.5
		c2.08,0.42,1.25,3.12,1.25,3.54l0.62,0.42c1.66,0,2.29,0.21,2.29,2.08c0.62-0.21,0.83-0.42,1.25-0.83
		c0.42-0.42,0.42-0.62,0.83-1.04c0-2.5-0.42-3.12-0.42-4.37l1.04,1.87c0.42,0.83,0.62,1.66,1.04,2.29h0.21c0-0.21,0-0.21,0-0.21
		l1.04-1.25c-0.62-3.33,0.21-5.2,0.21-6.45c0.21,0.21,0.42,0.21,0.42,0.62c0.21,0.21,0.21,0.62,0.21,0.83
		c0.21,0.62,0.21,1.04,0.62,1.66c0.42-0.21,0.42-0.21,0.83-0.62C458.31,156.09,457.69,154.84,457.27,152.76z M420.67,185
		c1.25-1.25,2.7-1.87,2.7-3.54c1.04,0,1.04,0.42,2.08,0.42c0,3.12,0.42,2.29,0.42,2.91c0,2.29-0.83,5.62-2.08,6.66
		c-0.42,0.42-1.46,1.25-1.87,1.46c-0.42-0.83,0.21-1.04-1.04-3.12C420.25,188.53,419.83,186.04,420.67,185z M418.59,196.64
		c-0.21-1.46-0.21-3.12,0.62-4.16c0.21-0.21,0.42-0.62,0.62-0.83c0.21-0.21,0.42-0.21,0.83-0.42c0.42,2.29,0.21,1.66,0.21,2.5
		c0,0.42,0,0.21,0,0.62c1.25,0,1.25-0.62,1.87-0.83c-0.21,0.83-0.83,1.46-1.46,2.08c-0.21,0.21-0.21,0.42-0.62,0.62
		c-0.42,0.62-1.87,2.08-2.5,2.29C418.38,197.68,418.79,197.68,418.59,196.64z M419.42,185.83c-0.42,1.04,0.62,1.66-0.62,1.87
		c-1.25,0.21-0.83-0.21-1.46,1.25c-0.62-0.21-0.83-0.62-1.66-0.62c-0.62,0,0,0.21-1.04,0.42l-0.42-0.83
		C416.92,187.7,418.59,186.04,419.42,185.83z M406.73,201.22l-0.83-3.74c0.62,0.42,0.62,1.66,3.74,0.21c0,1.46,0.42,1.66,1.04,2.08
		c0.42,0.42,0.21,0,0.42,0.62L406.73,201.22z M417.34,197.27c0,1.25-1.46,2.08-1.46,2.91c0,0.62,0.42,0.42,1.04,0.62
		c-0.62,0.83-1.25,0.62-2.7,0.62c0-2.08,0.62-2.29-0.42-2.29c-0.62,0-0.83,1.25-2.29,0.21c-0.62-0.62-0.62-0.83-0.62-1.66
		c0-1.46,1.25-0.83,1.25-1.87c0-0.42-2.91-1.87-1.04-3.12c0.62-0.62,2.08-0.21,2.7-0.42c1.25-0.42-1.46-1.25,1.46-2.7
		c1.25-0.62,1.25,0.83,2.29,0.83c0.83,0,0.62-1.66,1.46-1.66c0.62,0,1.04,1.04,0.83,1.66c-0.42,0.62-1.04,0.83-1.46,1.46
		c-0.21,0.42-0.83,1.87-1.04,2.08c-0.42,0.21-1.66,0-1.66,1.25C415.67,197.27,417.34,196.64,417.34,197.27z M419,200.8
		c-1.25,0-0.42,0-1.04-0.21c0.42-0.42,0.42-0.42,1.04-0.62c0.42-0.21,0.62-0.21,1.25-0.21C420.04,200.18,419.83,200.8,419,200.8z
		 M426.28,193.11c-0.21,0.62-0.21,0.83-0.42,1.46c-0.83,2.5-1.66,2.91-3.74,3.54c-0.62,0.21-2.08,0.83-2.91,0.83
		c1.04-1.66,1.87-1.46,3.95-4.16c2.7-3.54,0.62-1.66,2.08-3.74l0.83-1.46c0.21,1.04,0.62,0.83,0.62,2.08
		C426.7,192.28,426.49,192.48,426.28,193.11z M427.53,192.9l0.42,1.04h-0.62C427.53,193.52,427.53,193.52,427.53,192.9z
		 M438.34,168.98c0,3.33,0.42,1.66,0.42,4.58c0,0.62-0.62,0.83-0.83,1.04c-0.83-0.62-0.83-1.46-1.46-1.87
		c-0.42-0.42-0.62-0.42-1.04-0.62c-1.25-0.83-0.21-2.5,0-3.12l0.42-1.04c0-0.21,0-0.21,0-0.21c0-0.21,0-0.21,0-0.21s0,0,0.21,0
		c0,1.04-0.21,2.7,0,3.74c0,1.25,1.04,1.46,1.66,1.87c0-1.46-0.83,0.83-0.83-4.78C437.72,168.36,437.72,168.77,438.34,168.98z
		 M455.4,156.09c0,2.08-0.42,2.29-0.42,3.33c0,0.78,0.37,0.83,0.41,1.87h0c0,0,0,0,0,0.21c0-0.07,0-0.14,0-0.21h-0.2l-1.87-5.2
		c0-0.21,1.87-2.7,2.7-2.91C456.02,154.22,455.4,154.63,455.4,156.09z"/>
	<path class="st4" d="M435.85,166.28C435.85,166.07,436.06,165.65,435.85,166.28C435.85,166.28,435.85,166.9,435.85,166.28z"/>
	<path class="st4" d="M430.6,183.4l-0.58,1.39c0.2-0.45,0.39-0.9,0.59-1.36C430.61,183.42,430.61,183.41,430.6,183.4z"/>
	<path class="st5" d="M435.97,170.55C435.97,170.55,435.97,170.55,435.97,170.55c0.02-0.05,0.05-0.11,0.07-0.16L435.97,170.55z"/>
	<path class="st5" d="M435.35,172.04l-0.49,1.18c0.18-0.39,0.35-0.78,0.51-1.16c0,0,0,0,0,0
		C435.36,172.05,435.36,172.04,435.35,172.04z"/>
	<path class="st5" d="M436.04,170.38l0.85-2.03C436.58,169.03,436.31,169.7,436.04,170.38z"/>
	<path class="st4" d="M417.13,195.81C416.92,195.6,417.34,195.19,417.13,195.81C417.13,195.81,417.13,196.44,417.13,195.81z"/>
	<path class="st4" d="M419,200.8c-0.53,0.39-1.07,0.78-1.6,1.17"/>
	<line class="st4" x1="373.46" y1="234.08" x2="369.92" y2="237.41"/>
	<path class="st6" d="M485.35,190.82l1.25,0.62c0.62,0.21,0.83,0.42,1.46,0.83l5.62,2.91c2.08,1.04,1.46,1.04,3.95,2.29
		c0.62,0.21,1.04,0.42,1.46,0.62l2.91,1.46c1.04,0.62,1.66,1.04,2.7,1.66c1.04,0.42,2.08,0.83,3.12,1.25
		c3.12,1.87,7.7,4.16,11.23,5.82c0.42,0.21,0.83,0.42,1.46,0.62c0.42,0.42,0.83,0.62,1.25,0.83c1.46,0.83,2.7,1.04,4.37,2.08
		c0.62,0.21,0.83,0.42,1.46,0.62c0.42,0.42,0.83,0.62,1.25,0.83c0.42,0.21,1.25,0.62,1.46,1.04c-1.04-0.21-3.95-1.25-5.2-1.46
		c-2.7-0.21-3.95-0.83-5.82-0.83c-1.04,0-1.87-0.21-2.91-0.21c-1.04,0-2.08,0-3.12,0c-1.87-0.42-3.95-0.62-5.82-0.83l-9.36-0.42
		c-1.04,0-2.08,0-3.12,0c-2.29,0-4.16-0.21-6.45-0.21c-1.25,0-1.87-0.21-3.12-0.21c-2.91,0-3.33-0.21-6.24,0.21l-6.03,0.42
		c-4.16,0.42-8.11,0.21-12.48,0.62c-2.7,0.42-6.45,0.62-8.74,1.04c-1.04,0.21-1.87,0.42-2.91,0.42c-1.66,0.42-3.54,0.42-5.62,0.83
		c-1.04,0.21-1.66,0.42-2.91,0.42l-5.62,1.04l-0.83,0.83c1.46,0,1.87-0.21,2.91-0.42c0.62,0,1.04,0,1.66,0
		c0.42-0.21,1.04-0.21,1.46-0.42c1.04,0,1.87-0.21,2.91-0.42c2.29-0.42,4.16-0.42,6.24-0.83c1.04,0,1.66-0.21,2.7-0.42l12.69-1.25
		c3.74-0.42,11.44-0.42,13.31-0.62c0.42-0.21,0.83-0.21,1.46-0.21c0.83,0,0.83,0,1.66-0.21c1.25,0,2.08,0,3.33,0l20.17,0.62
		c2.08,0,4.16,0.62,6.24,0.62c1.66,0,10.81,0.83,12.69,1.25c1.04,0.21,1.87,0.42,2.7,0.62c3.74,0.62,3.54,0.62,7.07,1.87
		c0.62,0.21,0.83,0,1.04,0.42c-0.21,0-9.98-2.08-13.31-2.5l-7.28-0.62c-0.42,0-0.83,0-1.25,0l-6.45-0.62
		c-3.12-0.42-6.66-0.42-9.98-0.83c-1.66,0-3.54,0-5.2-0.21c-1.46-0.21-8.74,0-10.4,0.21c-1.66,0.21-3.54,0-5.2,0
		c-4.16,0.42-11.02,0.83-14.77,1.46l-4.99,0.42l-0.83,1.04l5.2-0.42c0.83-0.21,1.66,0,2.7-0.21c0.62,0,1.87-0.21,2.5-0.21
		c3.33-0.42,7.28-0.83,10.4-0.83c2.08,0,3.54-0.21,5.2-0.42c2.7-0.21,5.82,0,8.53,0c2.91,0,5.2,0.62,8.11,0.62
		c1.46,0,3.74,0,5.2,0.21l10.61,0.62c0.83,0,1.46,0.21,2.5,0.21l7.7,0.83c0.83,0.21,1.25,0.42,2.29,0.62
		c0.83,0.21,1.66,0.21,2.5,0.21c0.83,0.21,1.46,0.42,2.29,0.62c1.04,0.21,1.25,0.42,2.08,0.62c2.08,0.62,1.87,0,4.16,1.46
		c-0.21,2.91-3.12,4.99-4.58,7.07c-0.62,0.62-2.29,2.29-2.91,2.91c-1.04,0.83-2.08,1.66-3.33,2.5c-0.62,0.42-1.04,0.83-1.87,1.25
		l-5.2,3.33c-1.25,0.62-1.46,1.04-2.91,1.66c-0.42,0.21-0.42,0.21-0.83,0.62c-0.62,0.42-1.46,0.42-2.08,0.83l-6.03,2.91
		c-2.08,0.83-4.16,1.46-6.03,2.7c-1.04,0.62-1.04,0.42-2.08,0.83l-8.32,3.33c-1.46,0.62-2.7,1.04-4.16,1.66
		c-1.66,0.83-6.45,3.54-8.32,3.54c0-0.62,0.21-0.83,0.21-1.25c0.21-0.42,0.21-0.62,0.42-1.25l2.08-6.86
		c0.62-1.46,0.83-2.91,1.66-4.37c0.62-1.46,1.87-5.41,2.08-6.86c0.62-3.74,1.04-4.16,1.04-8.11c0-2.08,0-3.95,0-6.03
		c0-2.29-0.21-3.74-1.66-4.58c-0.62,1.04,0.42,1.04,0.62,3.54c0,0.83,0,1.25,0,2.08v7.28c0,1.46-0.42,2.5-0.62,3.95
		c-0.42,2.91-1.04,4.99-2.08,7.49c-0.62,1.25-1.25,3.74-1.66,5.41c-0.21,0.62-0.62,1.04-0.83,1.66c-0.83,2.91-1.87,6.03-2.5,9.15
		l-1.46,5.82c-0.42,1.25-0.83,2.29-1.25,3.54c-0.83,3.12-2.91,3.33-5.82,3.74c-0.83,0-1.46,0-2.29-0.21
		c-0.83-0.21-1.25-0.21-2.29-0.21c-1.66,0-9.78-1.66-11.65-2.5c-0.62-0.21-1.25-0.42-1.66-0.62c-0.62-0.42-1.25-0.42-1.87-0.83
		l-5.82-3.54c-1.04-0.62-1.87-1.25-2.91-1.87c-0.83-0.62-1.87-1.25-2.7-2.08c-0.42-0.42-0.83-0.62-1.25-1.04
		c-0.42-0.42-1.25-1.04-1.04,0c0,0.62,0.62,0.83,1.04,1.04l3.95,3.33c1.04,0.62,1.87,1.25,2.91,1.87l6.03,3.33
		c1.87,1.04,5.62,1.87,7.07,2.7c0,0.83-0.62,1.46-0.62,2.5l-2.5,19.13c0,0.62,0.21,0.62,1.04,0.62l1.25-11.65
		c0.62-3.95,0.21-3.95,1.46-8.11c0.21-0.42,0.62-1.87,0.83-2.29c0.83,0,1.87,0.21,2.7,0.42c3.33,0.62,11.44,2.08,13.93-1.25
		c0.83-1.04,1.46-3.33,1.87-4.78c0.21-1.04,1.04-4.78,1.46-5.2c0.21-0.21,1.87-0.83,2.5-0.83l11.85-5.2
		c0.83-0.21,1.46-0.62,2.29-0.83l11.85-4.99c1.66-0.62,3.12-1.46,4.58-2.08c2.29-0.83,2.5-1.04,4.58-2.08
		c2.5-1.46,4.99-2.91,7.28-4.37c0.62-0.21,0.62-0.42,1.25-0.62c2.91-1.66,9.98-7.28,12.06-9.77c1.04-1.25,2.29-2.29,2.7-3.95
		c0.42-1.46,1.04-2.7,0.21-3.95c-0.83-0.83-2.91-2.29-3.74-2.91c-2.7-1.87-5.82-3.33-8.53-4.99c-2.7-1.46-12.69-6.45-15.81-7.7
		l-6.86-3.33c-1.46-0.83-2.7-1.87-4.16-2.5c-3.74-1.87-7.28-4.16-10.81-6.03c-0.62-0.42-1.66-0.83-2.08-1.25L485.35,190.82z
		 M477.44,255.92c0-1.25,0.42-0.42,3.74-2.08c1.46-0.62,2.7-1.25,4.16-1.87c2.5-1.04,3.54-1.25,6.03-2.7
		c0.83-0.42,1.46-0.42,2.29-0.83l6.24-2.5c2.08-0.83,3.54-1.66,6.24-2.91c1.46-0.62,2.7-1.25,4.37-1.66l5.82-2.91
		c1.46-0.83,5.82-3.74,7.28-4.78c3.74-2.5,5.82-3.74,9.15-7.28c1.25-1.25,2.5-2.5,3.33-4.16c0.42-0.62,0.62-1.46,1.25-1.87
		c-0.83,3.95-2.29,4.99-4.58,7.28c-1.04,1.04-2.08,2.08-3.12,2.7c-1.25,0.83-2.29,1.66-3.54,2.7c-0.21,0.21-0.42,0.42-0.83,0.62
		c-1.46,1.04-2.5,1.87-4.37,2.91l-5.82,3.33c-2.7,1.46-5.2,2.7-8.11,3.74c-1.46,0.62-2.5,1.25-4.16,1.87l-8.53,3.54
		c-1.25,0.62-2.5,1.25-3.95,1.87l-4.37,1.66c-0.62,0.21-1.25,0.62-2.08,0.83C482.85,254.04,478.48,255.92,477.44,255.92z"/>
	<path class="st0" d="M361.18,331.41v2.29c2.08-1.87,6.45-6.86,8.11-9.15l2.5-3.33l-1.04,4.37c-1.04,5.2-0.42,9.57,1.87,13.93
		c0.83,1.46,2.5,3.54,3.74,4.78c1.46,1.04,2.08,1.25,3.33,2.08c0.62,0.42,1.04,0.62,1.87,1.04c1.25,0.42,3.12,1.04,4.58,1.25v-3.74
		c-1.66-0.62-2.08-0.62-3.74-1.87c-3.54-2.7-5.2-7.7-4.37-12.48c0.42-2.91,2.08-5.82,3.54-8.11c2.08-3.12,4.37-5.2,5.2-6.24v-15.18
		c-0.83,0.42-0.62,0.62-1.66,0.62c-0.62-1.25-0.21-3.54,0-4.78c0.42-1.66,1.04-2.7,1.87-3.95c0.83-1.04,1.46-1.87,2.5-2.91
		c0.42-0.42,0.83-0.83,1.46-1.25l1.66-1.25v-2.5c-0.42,0.21-1.04,0.62-1.66,0.83c-5.2,2.7-9.36,8.94-8.73,15.39
		c0.42,4.78,0.21,2.5-3.95,7.9c-0.62,0.83-1.46,1.87-2.08,2.91c-2.91,4.78-4.58,7.49-8.53,12.06c-0.21,0.21-0.42,0.42-0.62,0.62
		l-1.04,1.46c-0.21,0.21-0.42,0.21-0.62,0.42l-1.87,2.08c-0.42,0.62-0.62,0.83-1.04,1.25c-0.21,0.21-0.42,0.42-0.62,0.62
		L361.18,331.41z M371.79,321.22v-0.42V321.22z"/>
	<path class="st7" d="M97.89,216.4v25.37h0.21l3.33-4.37c1.66-2.29,9.77-12.69,12.27-15.18l1.87-2.08c0.42-0.62,0.83-0.83,1.25-1.46
		V198.1c-0.83,0.42-6.45,5.62-7.28,6.45c-2.08,2.08-8.11,7.9-9.36,9.36C99.55,214.74,98.72,215.57,97.89,216.4"/>
	<path class="st0" d="M214.77,324.34c0,0.83-0.21,1.87-0.21,2.7c-0.21,1.04-0.21,1.87-0.21,2.91c0.42,3.95-0.21,3.12,1.25,7.07
		c1.25,3.95,4.16,7.07,7.7,9.15c1.25,0.83,3.95,2.08,6.03,2.29v-3.74c-0.83-0.42-1.04-0.42-1.66-0.83
		c-1.66-1.04-3.12-2.08-3.95-3.95c-3.12-5.41-2.29-10.81,1.04-16.22c1.46-2.29,2.7-4.16,4.58-6.03v-16.01
		c-0.21-0.21-0.21,0-0.42-0.21c0-1.66-0.42-0.62,0-3.74c0.42-2.5,2.08-5.2,3.74-6.86c0.42-0.42,0.62-0.62,1.04-1.04v-3.12
		c-4.99,3.33-8.32,9.15-7.49,15.39c0.21,2.29,0.21,2.5-1.25,3.95c-1.87,1.66-3.33,3.74-4.58,5.82
		C215.39,319.56,215.39,323.09,214.77,324.34"/>
	<path class="st0" d="M210.82,165.45l3.12,1.87c2.08,1.25,3.95,3.12,5.41,5.2c0.62,1.04,1.25,2.29,1.87,3.54
		c2.08,4.78,2.08,12.69,1.04,18.72c-1.66,10.4-5.2,19.97-10.4,28.91c-0.42,0.42-0.83,1.25-1.04,1.87v10.61
		c0.83-0.83,4.58-7.49,5.2-8.53c3.54-6.86,5.62-11.85,7.9-19.55c2.29-7.7,4.16-18.93,3.12-27.24c-0.62-3.54-0.62-4.37-2.08-8.11
		c-0.62-1.66-1.46-3.12-2.5-4.37c-2.5-3.95-7.28-7.28-11.65-8.74V165.45z"/>
	<path class="st8" d="M87.9,227.84v27.87c0.42-0.21,1.04-1.25,1.46-1.66c0.42-0.62,0.62-1.25,1.04-1.87
		c0.83-1.04,1.66-2.29,2.5-3.54l4.99-6.86V216.4l-7.49,8.53c-0.21,0.42-0.62,0.83-1.04,1.25C88.73,226.8,88.32,227.22,87.9,227.84"
		/>
	<path class="st9" d="M187.32,249.05v12.27c0.21,0,6.66-5.2,8.11-6.86l3.12-2.91c2.91-2.91,10.4-12.48,12.27-15.39v-10.61
		l-4.99,6.66c-0.42,0.62-0.83,1.25-1.25,1.66c-0.42,0.62-0.83,1.04-1.46,1.66c-0.42,0.62-0.83,0.83-1.25,1.46
		c-0.42,0.62-1.04,1.04-1.46,1.66l-3.12,3.12h-0.21c-0.21,0.21-0.21,0.21-0.42,0.42c-1.46,1.46-3.95,3.54-5.62,4.58l-3.33,2.08
		c0,0,0,0-0.21,0C187.32,249.26,187.52,248.85,187.32,249.05"/>
	<path class="st8" d="M403.61,197.27c0.62-0.42,0.42-0.21,0.83-0.83c-1.04,0-1.66-0.42-1.66-1.66c0.21-1.25,1.46-1.04,1.25-1.87
		c-0.21-0.62-2.7-0.21-2.29-2.7c0-0.42,0.42-0.83,0.83-0.83c0.62-0.42,2.7,0,1.87-1.04c-0.42-0.62-1.04-0.42-0.62-2.7
		c2.5-0.42,2.5,0,3.33,1.04c0.62-0.21,0.21-0.21,0.83-0.42c0.62,1.25,1.25,1.04,2.08,1.87c0.62,0.42,0.62,1.04,2.29-0.21l0.21,0.62
		l0.62,0.21c0.42-0.83,1.46-1.25,1.66-2.08c-0.62,0-1.25,0.21-1.87,0.21c-0.62,0-1.04,0.42-1.66,0.42c0.21-0.83,1.25-2.08,1.66-2.91
		c1.04-2.08,2.5-3.95,4.37-4.99c1.04-0.42,2.29-1.04,3.74-1.04l0.62-0.83l-0.83-0.21c-1.25-0.21-1.87,0.42-2.91,0.62
		c0-1.04-0.21-0.62,2.08-1.25c0.62-0.21,0.83-0.21,1.46-0.42c0.62-0.21,0.83-0.42,1.25,0.21l1.04-0.83c0-0.62,0.21-0.62,0.42-1.04
		c1.04,0,2.08,0.42,2.08-0.62c0,0-1.25-3.54,1.04-3.54c0.62,0,0.62,0.21,1.04,0.42l0.42,0.83c0.21-0.62,0.42-0.62,0.62-1.04
		c-0.42-0.42-0.62-0.42-1.04-0.83c1.25,0.21,1.04,0,2.29,0v-0.21c0.42-0.83,1.04-1.25,1.66-1.87c-0.21-0.62-0.62-0.83-1.25-1.04
		c-0.62,1.04,0.21,0.42-1.04,2.08c-0.83,0-1.04,0-1.87-0.21c-0.62-2.29,0-1.46-0.21-2.29c-0.21-0.83-1.04,0.21-2.08,0.21
		c-0.83-0.21-1.04-0.83-1.04-1.87c0.21-1.25,0.83-0.62,0.83-2.08c-0.42,0-1.04-0.21-1.46-0.21c-0.62-0.21-0.62-0.42-1.04-0.83
		c0-3.12,2.7-1.66,3.12-2.08c0.62-0.83-0.21-1.25-0.62-1.87c-0.42-1.04,0.21-1.46,0.62-2.08c2.29,0,2.5,2.29,3.54,1.46
		c0.21-0.42,0.21-1.04,0.21-1.66c0.83-0.62,1.66-0.62,2.91,0.21c0,3.54,0.62,0.62,3.12,1.87c0.42-0.42,0.42-0.21,0.42-0.83
		c-1.25-0.83-1.46-0.42-2.29-0.62c-0.62-0.42-0.42-1.25-1.25-1.66c-0.42-0.21-1.87-0.42-2.5-0.42c-0.83,0-1.25,0.83-1.66,1.46
		c-1.04-0.62-2.08-1.46-3.33-0.21c-1.66,1.66-0.62,2.7-0.42,3.33c-2.29,0-3.74,1.87-2.7,3.95c0.42,0.62,0.83,0.62,1.66,1.04
		c0,1.46-0.83,3.12,1.46,3.95l0.83,0.21c-1.46,0-1.46,0.42-2.29,0.62c-1.04,0.21-1.66,0-2.5-0.21c-1.46-0.21-3.54-0.42-5.2-0.42
		c-3.74-0.42-3.95-1.66-4.37-1.04c-0.21,0.42,1.25,3.95,1.04,4.37c-0.21,0.42-0.62,0.42-1.87,0.83l-6.86,2.29l-1.04,0.42
		c-0.42,0-0.21-0.21-0.62-1.87c-0.21-1.04-0.21-1.46-0.42-2.29c0-1.04-0.21-3.74,0.21-4.58c0.83-1.87,2.7-2.91,4.37-3.74
		c1.04-0.83,2.08-1.66,3.33-2.29l5.41-2.29c0.83-0.42,1.46-0.62,2.08-0.83c1.66-0.62,4.16-1.87,5.62-2.29l10.81-2.91
		c2.08-0.42,12.06-2.08,13.93-2.08c0.42-0.42,0.42-0.42,0.62-0.83c-1.66,0-3.74,0.21-4.99,0.42c-1.04,0.21-1.66,0.21-2.5,0.42
		c-1.04,0.21-1.46,0.21-2.5,0.42c-0.62,0-1.46,0.42-2.29,0.42l-11.44,2.7c-2.7,1.04-3.54,1.04-6.24,2.5
		c-2.29,1.25-4.99,1.66-7.9,3.33c-0.62,0.42-1.25,0.62-1.87,0.83c-0.62,0.42-1.04,0.83-1.66,1.25c-2.5,1.46-6.66,3.12-6.03,7.9
		c0.21,2.29,1.04,5.62,1.04,7.28c0,0.83,0.21,1.87,0.42,2.7c0.62,2.29-0.42,1.25,0.62,4.78c0.62,2.7-1.25,2.29-0.42,4.37
		c-0.21,0.21-0.21,0.21-0.62,0.42c-1.04,1.04-2.5,2.5-1.04,3.95c0.42,0.42,0.83,0.83,1.04,1.25c0,0.62-0.21,0.42-0.42,1.04
		c0,0.62,0,1.04,0.21,1.46C402.16,196.44,402.78,197.27,403.61,197.27 M413.39,167.94l5.2,0.83c2.29,0,3.33-0.21,5.2,1.25
		c0.62,0.62,1.25,1.87,1.25,2.91c0,0.42-0.62,0.42-0.83,0.62c-0.21,0.21-0.62,0.42-0.83,0.62c-1.66,1.46-2.29,0.83-3.54,0.62
		c-1.46-0.42-1.46-0.21-2.7-1.04C414.63,171.69,413.8,171.48,413.39,167.94z M424.41,168.98c1.25-0.21,2.29-1.25,3.74,0.83
		c-1.66-0.42-1.46-0.21-2.7,0.62c-0.21-0.42-0.42-0.42-0.62-0.62l-0.21-0.42L424.41,168.98z M412.35,172.1
		c0.42,0,0.62-0.21,1.04-0.21c0.21,0,2.08,1.46,2.29,1.66c-1.25,0-1.25,0-1.87,0.42C413.18,172.93,412.97,173.35,412.35,172.1z
		 M403.61,177.3c0,1.04,0.21,1.04,0.42,2.08h-0.42c0-0.83-0.21-1.46-0.21-3.54c0-1.04,3.95-1.87,4.78-2.08v1.25
		C406.11,173.77,403.61,176.26,403.61,177.3z M409.23,174.81c0-1.04,1.25-1.66,2.08-1.66c1.66,0,1.04,1.66,2.08,2.29
		c0.62-0.21,0.83-0.83,1.66-0.83c0.83,0,1.46,0.83,1.66,1.25c0.21,0.42,0,2.08,0,2.91c-0.62,0.21-0.83,0-2.08,1.46
		c-0.62,0.42-3.12,4.37-3.74,5.41c-0.21,0.62-0.21,0.83-0.62,1.25c-0.62-0.21-0.83-0.42-1.25-0.83c-0.62-0.83-0.21-0.62-0.21-1.66
		c0-0.21-0.21-0.42-0.42-0.42c-1.25,0-0.83,1.04-2.08,0c-3.12-2.08-0.42-3.54,0-3.95c-0.62-0.83-1.66-1.04-1.66-2.5
		c0.21-0.83,1.25-1.66,2.29-1.66c1.04,0,1.25,1.04,2.7,0.62C409.64,175.85,409.23,175.64,409.23,174.81z M417.75,175.22
		c0.62,0,1.46,0.21,1.66,0.42c-0.21,0.21-0.62,0.42-1.04,0.42C417.75,176.05,417.75,175.85,417.75,175.22z M403.82,182.5h-0.21
		c0-0.21,0-0.83,0-1.04c0.21-0.83,0-0.42,0.42-0.83L403.82,182.5z M404.03,183.33c0.42,0,0.83,0.62,1.04,1.04h-0.83
		C404.03,183.96,404.24,183.75,404.03,183.33z"/>
	<path class="st9" d="M377.61,251.96c-0.42,0.42-0.21,0.21-0.83,0.62c0.21,0.21,1.87,0.62,2.29,0.83l2.5,0.62
		c1.66,0.42,3.33,1.04,4.99,1.46c5.2,1.25,11.23,2.29,16.64,2.5l5.82,0.62c2.08,0.42,4.37-0.21,6.24,0.21
		c1.87,0.21,4.16-0.42,6.24,0v0.42c-4.58,0-8.94,0.42-13.31-0.21l-6.24-0.42c-3.12-0.21-3.95-0.62-6.45-0.62l-0.62,0.62l0.62,0.21
		c0.21,0,0.62,0,0.83,0l4.99,0.62c1.04,0,1.87,0.42,2.91,0.42c1.66,0,2.29,0,3.54,0.21c2.7,0.42,13.1-0.42,14.35,0.21
		c0.21,0.21-0.21,0.83-0.21,0.83l-2.08,4.78c-0.42,0.62-0.83,1.04-0.83,2.08c-1.04-0.21-1.66-1.25-2.5-1.66
		c-0.42-0.42-1.04-0.42-0.83,0.42c0.21,1.04,2.7,2.29,3.54,2.91c2.91,2.29,7.49,5.41,10.19,7.9c0.42,0.42,0.83,0.62,1.25,1.04
		c0.62,0.62,1.25,1.25,2.08,1.87l2.08,1.87c1.25,1.46,2.7,2.7,3.95,4.16l7.28,9.36c0.21,0.21,2.29,4.16,2.7,2.7
		c0-0.62-2.08-3.54-2.29-3.95l-6.45-7.9l-6.03-6.24c-0.42-0.21-0.62-0.42-1.04-0.83c-2.29-2.5-8.53-7.28-11.23-9.36
		c-0.62-0.42-1.66-1.25-2.29-1.66c0-0.42,0.21-0.62,0.62-0.83l1.66-3.12c0.62-1.04,1.46-3.33,2.08-4.16
		c0.83-1.04,1.25-0.21,2.08-1.04c0.42-0.21,1.25-1.04,1.46-1.66c0.83-1.46,1.25-3.12,0.62-4.78c-0.83-2.5-2.5-7.07-2.91-9.57
		c0-1.25,0.21-1.87,0-2.7c0-0.62-0.62-1.46-1.46-1.66c-2.5-0.62-2.29,2.08-3.33,2.7c-0.42,0.21-1.46,0-2.08-0.42
		c-1.04-0.62-1.46-2.29-1.87-3.54c-1.66-3.54-1.25-2.7,1.46-4.99c1.04-0.83,2.08-1.66,3.33-2.29c2.29-1.66,4.58-2.91,6.45-4.78
		c1.04-1.04,1.87-1.87,2.7-2.91l1.46-2.7c0.42-0.83,0.21-0.21,0-1.25c-1.87,0.42-0.62,1.87-4.58,5.62
		c-3.12,3.12-6.24,4.58-8.74,6.66c-1.46,1.25-4.37,3.12-5.2,4.78c-0.62,1.46-1.46,2.29-1.25,3.74c0.83-0.21,2.08-2.5,2.29-3.54
		l1.25,3.12c1.04,2.08,1.87,3.54,4.58,3.74c1.04,0,1.25,0.42,2.08,0.62c0.62,0.21,0.62-0.21,0.83,0.42
		c0.21,1.04-1.66,5.62-1.87,6.45l-0.62,3.33c-0.42,1.66,0.21,2.29,0.21,3.74c-0.62,0-2.29,0.21-2.91,0.21
		c-2.29,0.42-9.36,0-11.85-0.42c-2.29-0.21-2.08-0.21-4.16-0.21c-0.62,0-0.83-0.21-1.46-0.21c-0.83-0.21-3.95-0.42-5.62-0.62
		c-1.04-0.21-1.46-0.42-2.5-0.62c-4.16-0.83-5.82-1.25-9.98-2.5L377.61,251.96z M422.54,242.81c-0.62,0-1.66-1.46,0.62-2.91
		c0.83,0.62,0.83,0.42,0.83,1.66C423.99,242.19,423.37,242.81,422.54,242.81z M421.5,254.88c0-1.46,0.83-3.95,1.25-5.2
		c0.21-0.83,0.42-1.46,0.62-2.29c0.21-0.62,0.62-2.08,0.62-2.7h0.42c0,3.74,4.37,7.9,1.87,12.69c-1.25,2.08-4.16,2.29-4.58-1.04
		C421.71,255.92,421.5,255.29,421.5,254.88z"/>
	<path class="st4" d="M126.79,189.78v18.09c1.04-0.62,4.37-4.58,5.82-5.82c0.62-0.42,0.83-0.62,1.46-1.25
		c0.21-0.21,0.42-0.42,0.83-0.62l3.12-2.91c0.42-0.21,0.42-0.21,0.62-0.62v-15.39c-0.83,0.21-7.7,5.2-8.94,6.24
		C129.08,187.91,127.21,189.16,126.79,189.78"/>
	<path class="st8" d="M116.81,198.1v20.59c0.42-0.42,0.83-0.83,1.25-1.46l8.73-9.36v-18.09c-0.42,0.21-1.04,0.62-1.25,0.83
		l-3.95,3.12c-0.21,0.21-0.21,0.42-0.62,0.62L116.81,198.1z"/>
	<path class="st9" d="M146.55,176.47v13.73c1.04-0.83,2.29-1.66,3.54-2.7l11.44-7.9v-11.23c-0.83,0.21-4.58,2.29-5.82,2.91
		C154.04,172.1,147.59,175.43,146.55,176.47"/>
	<path class="st6" d="M169.43,267.77v-15.6l-0.83-0.42c-7.69-3.74-12.89,2.29-12.48,6.45c0.62,3.33,1.87,5.41,4.58,7.07
		C162.36,266.32,166.73,267.77,169.43,267.77"/>
	<path class="st10" d="M169.43,252.17v15.6c2.91,0,4.58-0.42,6.86-1.04c1.46-0.62,4.16-1.25,5.41-2.08v-13.1
		c-2.08,0.62-3.33,1.04-5.82,1.46c-1.25,0-1.87,0-3.33-0.21C171.3,252.8,170.68,252.59,169.43,252.17"/>
	<path class="st8" d="M233.69,298.97v15.81c0.42,0.42,3.12,2.29,3.74,2.7c5.2,3.33,8.74,4.37,14.35,6.24v-2.08l-4.78-1.66
		c-2.08-0.62-11.02-5.2-11.65-7.49c1.25-1.66,5.41-3.12,7.28-5.82c3.12-4.16-0.21-9.98-5.82-8.74
		C235.98,297.93,234.11,298.55,233.69,298.97"/>
	<path class="st7" d="M92.48,415.02v6.45c6.66,0,14.14-1.46,20.17-3.33l5.82-1.87v-5.62c-1.87,0.42-3.74,1.25-5.82,1.66
		c-2.08,0.62-3.95,1.04-6.03,1.66C102.05,414.81,98.09,415.02,92.48,415.02"/>
	<path class="st8" d="M391.34,298.34v17.26c0,0.42-0.21,0,0.21,0.42l3.33,2.29c1.25,0.83,2.7,1.46,4.16,2.29
		c1.46,0.62,2.91,1.25,4.58,1.66c1.46,0.62,3.33,1.25,4.99,1.46v-1.87c-2.29-0.42-7.49-2.5-9.57-3.54c-1.46-0.83-2.91-1.66-4.16-2.5
		c-0.83-0.62-1.04-0.83-1.87-1.46c-1.87-1.87-2.91-1.46,2.91-5.2c6.86-4.37,3.74-11.23-1.46-11.44c-0.62,0-2.29,0.21-2.91,0.42
		C391.13,298.34,391.34,298.14,391.34,298.34"/>
	<path class="st1" d="M408.19,222.64l-0.83,1.25c0.83,0,0.83-0.42,1.66-0.42c0,1.46,0,2.5-0.42,3.74c-1.04,4.78-1.46,6.24,0,10.81
		c0.42,0.83,1.04,1.87,1.46,2.7c0.21,0.42,0.42,0.83,0.62,1.46c0.21,0.83,0.21,0.83,0.62,1.46c1.25,1.46,1.87,2.08,3.33,2.91
		c0.83,0.42,0.62,0.62,1.46,0.42c0-1.04-0.83-0.83-2.08-1.66c-1.25-0.83-2.08-2.29-2.5-3.74c-0.62-1.87-1.04-1.87-0.21-4.78
		c0.42-2.08,1.46-3.95,2.7-5.41l2.7-3.33c0.42-0.62,0.42-0.62,0.42-1.66c-1.04,0-1.04,0.62-2.5,2.29c-2.7,3.74-2.91,3.54-4.16,7.7
		c-0.21,0.62-0.42,1.25-0.42,2.08h-0.42c0-1.25-0.83-2.08-1.04-3.54c-0.62-4.16,2.08-10.81,2.29-11.85h0.21
		c0,2.08-1.46,5.2-1.66,6.03c-0.21,1.04-0.42,0.62-0.21,1.87h0.42c0-0.62,0-0.42,0.21-0.83c0,1.04-0.62,1.87-0.42,3.95
		c0,1.04,0.62,1.25,0.83,0.62c0.21-0.62-0.42-1.87,1.04-5.82c0.21-1.04,1.04-2.29,1.04-3.33c-0.42,0-0.42,0-0.83,0
		c0-0.62,0.42-1.25,0.62-1.66c0.42-1.25,0-1.04,1.25-1.46l12.89-2.91c-0.21,1.04-1.04,2.29-1.46,2.91
		c-0.42,0.83-1.25,2.08-2.08,2.29c0.62-1.04,1.46-1.66,2.08-2.7c0.42-0.62,0.42-0.62,0.42-1.46c-1.25,0-0.83,0.42-1.46,1.46
		l-2.5,2.91c-0.83,0.62-0.83,0.42-1.46,1.46c1.04,0.62,0.62,0,1.25-0.21c0.21,0,0.83,0.42,2.29-0.83c5.62-5.41,2.5-5.62,5.62-6.24
		c0.62-0.21,1.66-0.21,2.5-0.42c0.83,0,1.66-0.21,2.7-0.42c1.66-0.42,2.91-0.62,4.78-1.04c1.87-0.21,3.54-0.42,5.2-0.83l10.4-1.46
		l0.83-1.04c-3.74,0-8.32,1.04-12.27,1.66c-3.95,0.62-7.9,1.25-11.85,2.08c-3.95,1.04-8.53,1.46-11.65,2.5L408.19,222.64z
		 M410.06,229.71v-0.62c0.21,0.21,0.21-0.42,0.21,0.42C410.06,229.71,410.06,229.5,410.06,229.71z M410.06,229.71
		c0,0.83,0,0.42-0.21,0.42C409.85,229.5,409.85,229.92,410.06,229.71"/>
	<path class="st1" d="M421.59,224.56c0.38,0.05,0.77,0.11,1.15,0.16"/>
	<path class="st2" d="M412.34,223.23l-2.1-0.3C410.94,223.03,411.64,223.14,412.34,223.23
		C412.34,223.24,412.34,223.24,412.34,223.23z"/>
	<path class="st7" d="M318.55,283.16v16.43l7.49-5.2v-14.35c-1.04,0-2.91,1.04-3.74,1.46c-0.83,0.21-1.25,0.42-1.87,0.83
		C319.8,282.75,319.38,282.95,318.55,283.16"/>
	<path class="st1" d="M138.65,181.25v15.39l7.9-6.45v-13.73c-0.83,0.21-1.46,0.62-2.08,1.04c-0.62,0.42-1.25,0.83-1.87,1.25
		C141.77,179.17,139.27,180.84,138.65,181.25"/>
	<path class="st10" d="M169.43,165.03v9.77l12.27-5.82v-8.32c-0.83,0.21-5.2,1.66-6.24,2.08L169.43,165.03z"/>
	<path class="st8" d="M312.31,287.53V305l6.24-5.41v-16.43l-3.12,2.08c-0.42,0.21-0.83,0.62-1.46,1.04
		C313.35,286.7,312.73,286.9,312.31,287.53"/>
	<path class="st9" d="M416.92,293.35c1.46,1.66,2.91,3.74,3.95,6.03c2.08,5.41,1.87,7.49,0.83,12.48c-1.04,4.78-1.25,5.2-2.91,9.57
		c-0.21,0.62-0.42,1.04-0.83,1.66v3.74h0.21c0,0,0.42-0.83,1.25-1.04c0.83-0.21,1.46,0,2.29,0.21c2.91,0,10.4-1.04,13.31-1.87
		c4.37-1.25,8.32-3.12,11.85-5.41c0.83-0.62,1.04-0.62,1.25-1.46c-2.5,0-9.15,6.66-22.67,6.45c-7.07,0-5.82,1.46-3.33-7.07
		c1.04-3.95,1.87-8.94,1.25-13.1c-0.62-4.58-1.66-7.07-4.16-10.4c-0.62-0.83-1.66-2.29-2.29-2.5V293.35z"/>
	<path class="st10" d="M166.1,377.37v6.03c0.42-0.62,1.46-1.46,1.87-2.08c0.83-0.83,1.46-1.46,2.08-2.08l1.87-2.29
		c3.12-3.12,6.24-7.07,9.36-10.4c0.42-0.42,0.42-0.21,0.42-0.62v-5.82c-0.62,0.62-1.25,1.46-1.87,2.08
		c-0.83,0.83-1.25,1.46-2.08,2.08l-9.78,10.81c-0.21,0.42-0.62,0.62-1.04,1.04c-0.21,0.21-0.21,0.42-0.42,0.62L166.1,377.37z"/>
	<path class="st4" d="M123.67,408.36v5.82c0.21-0.21,6.66-3.33,8.32-4.37c0.62-0.42,7.7-4.37,7.9-4.99v-5.62
		c-2.91,2.08-8.53,5.41-11.85,7.07l-4.16,1.87C123.67,408.36,123.67,408.36,123.67,408.36"/>
	<path class="st6" d="M262.19,294.81c0.21,0.62,2.08,2.91,3.12,6.03c1.87,5.82,1.04,7.28,0.21,11.65c-0.42,2.5-1.04,4.78-2.08,7.07
		c-0.21,0.62-0.21,1.04-0.62,1.66c-0.21,1.25-0.62,1.25-0.62,1.87v3.74c0.21-0.42,0.42-0.62,0.83-0.83c0.83-0.42,2.91,0,4.78,0
		l6.03-0.83c2.5-0.21,8.53-1.66,10.61-2.91v-1.46c-1.87,0.62-3.12,1.25-6.03,1.87c-3.12,0.83-4.37,0.62-7.07,1.04
		c-1.25,0.21-2.7,0-3.95,0.21c-0.83,0-3.12,0-3.33-0.62c0-0.42,0.42-1.25,0.42-1.46c0.21-0.62,0.42-1.04,0.62-1.66
		c1.66-4.99,3.33-11.65,2.29-17.26c-0.83-4.16-1.87-6.66-4.16-9.98c-0.21-0.21-0.83-0.83-1.04-1.04V294.81z"/>
	<path class="st9" d="M192.1,158.38v7.49c0.62,0,1.04-0.21,1.66-0.42l4.58-0.62c2.08-0.42,4.58-0.42,7.07-0.42v-6.03
		c-1.87-0.21-4.58-0.83-6.66-0.42c-0.83,0-2.29,0.21-3.33,0.21C194.39,158.17,193.35,158.38,192.1,158.38"/>
	<path class="st9" d="M480.77,167.73c0,1.66,0.62,1.25,0.62,2.08c-1.04,0-1.04,0-1.04-1.25c-0.42,0.83-0.83,1.04-1.46,1.66h0.21
		l1.87,0.62c1.04,0.21,1.25,0,1.46,1.04c0.21,1.04,0.21,4.16,0.21,5.41h-0.21c0-0.83,0-1.46-0.21-2.29c0,0-0.21-1.04-0.21-1.25
		c-0.21-0.62,0-0.42-0.62-0.62c-0.42,0.62-0.21,0.42-0.21,1.25h-0.21c0-0.42,0-1.04-0.21-1.46c0-0.62-0.21-0.62-0.83-0.83
		c-0.21,1.25,0.62,2.08,0.62,3.54l-0.21-0.42c-0.62,0.42-0.62,0.83-0.42,1.46c0.21,0.83,0.21,1.46,0.42,2.08
		c0.21,1.25,0.42,2.29,0.62,3.74c0,0.62,0,1.46,0.21,1.87c0.83,5.62-0.62,4.78,1.66,4.78c0.21-0.83,0.21-0.21,0-1.25
		c0.42,0.42,0.21,0.21,0.83,0.42c0.21-1.66-0.42-2.29-0.42-4.16l0.21,0.62c0,0.21,0.21,0.42,0.21,0.62c0,0.42,0.21,1.04,0.21,1.46
		c0.21,2.91,0,1.04,0.42,2.7c-1.04,0.42-4.37-0.21-6.03-0.21c-1.87-0.21-4.58,0-6.45-0.21c-2.5-0.42-9.77-0.42-12.89-0.42
		c-0.21,0.83-0.21,0.62-0.62,1.04l6.66-0.21c1.25,0,2.29,0.42,3.33,0.42c1.04,0,2.29,0,3.54,0l10.19,0.42
		c1.04,0.21,1.87,0.42,3.33,0.42l0.83-1.04c-1.25-0.83-0.83-1.04-1.04-2.5c-0.62-3.95-0.62-5.41-1.04-9.36
		c-0.21-2.08-0.62-3.95-0.62-6.24c-0.21-1.66-1.46-1.04-1.25-3.95c0-0.42,0.21-0.83-0.21-1.46
		C481.6,166.9,481.39,167.32,480.77,167.73 M480.98,177.3h0.21v1.46h-0.21V177.3z M481.39,179.59l0.21,0.83c0,0.21,0,0.62,0,0.83
		C481.39,180.84,481.39,180.21,481.39,179.59z M481.81,184.16v-1.66c0,0.21,0.21,0.42,0.21,1.25
		C482.02,184.16,481.81,184.16,481.81,184.16z M482.64,184.79v1.46h-0.42C482.23,185.41,482.02,185.41,482.64,184.79z
		 M482.43,187.08v0.62c-0.21-0.42-0.21,0.42-0.21-0.42C482.43,187.08,482.23,187.28,482.43,187.08z"/>
	<path class="st9" d="M480.56,175.64l0.21,0.21L480.56,175.64z"/>
	<path class="st3" d="M71.68,417.93c1.87,0.83,8.94,2.91,11.44,2.91v-7.07c-0.62-0.21-1.04-0.21-1.66-0.42
		c-3.74-0.83-9.36-3.33-9.77-3.54V417.93z"/>
	<path class="st3" d="M307.73,291.06v18.93c0.83-0.42,0.62-0.62,1.25-1.25c0.42-0.42,0.62-0.62,1.04-1.25
		c0.83-0.83,1.66-1.46,2.29-2.5v-17.47c-0.42,0-0.83,0.42-1.04,0.62l-2.29,1.87C308.36,290.44,308.36,290.65,307.73,291.06"/>
	<path class="st6" d="M161.53,168.36v11.23l3.95-2.29c0.62-0.42,1.25-0.83,2.08-1.25l1.87-1.25v-9.77
		c-0.42,0.21-1.25,0.42-1.87,0.83c-0.83,0.21-1.46,0.42-2.08,0.83C164.23,167.11,162.77,167.73,161.53,168.36"/>
	<path class="st6" d="M181.7,160.66v8.32c0.83,0,1.66-0.62,2.5-0.83c1.04-0.42,1.66-0.62,2.7-0.83c1.66-0.62,3.54-1.04,5.2-1.46
		v-7.49c-0.83,0.21-1.66,0.42-2.5,0.62c-1.04,0.21-1.87,0.21-2.7,0.42C185.24,159.83,183.16,160.25,181.7,160.66"/>
	<path class="st4" d="M330.2,278.59v13.31c0.83-0.62,5.2-2.7,6.24-2.91v-11.02c-0.62-0.21-2.29,0-3.12,0
		C332.69,277.96,330.61,278.38,330.2,278.59"/>
	<path class="st6" d="M346.21,290.65c0.83,1.25,2.5,2.5,1.87,6.03c-0.21,1.46-0.42,2.08-0.83,3.33c-0.42,1.04-1.04,1.66-1.46,2.7
		v4.37c1.04-0.62,2.91-4.37,3.54-5.41c2.29-4.99,2.91-9.98,0.62-14.77c-0.62-1.46-2.5-4.37-3.74-5.2V290.65z"/>
	<path class="st6" d="M181.7,251.55v13.1c1.46-0.21,4.99-2.91,5.62-3.33v-12.27c-0.83,0.21-1.87,0.83-2.7,1.25
		c-0.42,0.21-0.83,0.42-1.25,0.62C182.74,251.13,182.32,251.34,181.7,251.55"/>
	<path class="st3" d="M386.77,301.05v15.18c0.42-0.42,1.25-1.46,1.87-1.46c0.83-0.21,1.04,0,1.46,0.21
		c0.62,0.42,0.21,0.42,1.25,0.62v-17.26c-1.25,0.21-3.33,1.66-4.37,2.5C386.56,301.05,386.97,300.84,386.77,301.05"/>
	<path class="st3" d="M229.33,301.67v16.01c0.42-0.21,0.42-0.42,0.83-0.83c0.21-0.42,0.62-0.62,0.83-1.04
		c1.25-0.83,0.83-1.04,2.7-1.04v-15.81C232.65,299.59,230.16,301.67,229.33,301.67"/>
	<path class="st6" d="M155.7,387.15v6.03l2.5-2.5c0.62-0.42,0.83-0.62,1.46-1.04l6.45-6.24v-6.03c-0.62,0.21-0.83,0.42-1.46,1.04
		L155.7,387.15z"/>
	<path class="st8" d="M83.12,420.84c1.25,0.21,2.7,0.42,4.37,0.42c1.04,0,1.25,0.21,2.29,0.21c0.83,0,1.87,0,2.7,0v-6.45l-7.07-0.83
		c-0.83,0-1.66-0.42-2.29-0.42V420.84z"/>
	<path class="st1" d="M201.67,338.9v4.99l7.69-8.74c1.25-1.25,3.74-4.16,4.99-5.2c0-1.04,0-1.87,0.21-2.91
		c0-0.83,0.21-1.87,0.21-2.7L213.1,326c-0.21,0.42-0.42,0.62-0.62,0.83L201.67,338.9z"/>
	<path class="st9" d="M339.97,288.57c0.42,0.42,1.04,0.21,1.66,0.21c0.62,0.21,1.25,0.42,1.66,0.42c1.25,0.42,1.87,0.83,2.91,1.46
		v-8.94c-0.21-0.21-1.04-0.83-1.25-1.04c-0.62-0.42-1.04-0.62-1.66-0.83c-0.62-0.42-2.29-1.25-3.33-1.46V288.57z"/>
	<path class="st6" d="M181.7,360.11v5.82c1.04-0.62,8.32-9.36,9.77-10.81c0.42-0.42,0.42-0.42,0.62-0.83v-5.41l-2.5,2.7
		c-0.42,0.62-0.62,0.83-1.25,1.46c-0.21,0.21-0.42,0.42-0.62,0.62c-0.42,0.42-0.42,0.42-0.62,0.83
		C185.24,356.37,183.57,358.24,181.7,360.11"/>
	<path class="st8" d="M326.04,280.04v14.35c0.42-0.21,1.46-1.04,1.87-1.25c0.83-0.42,1.46-0.83,2.29-1.25v-13.31
		C329.57,278.79,326.45,279.63,326.04,280.04"/>
	<path class="st9" d="M146.55,394.64v5.82c1.04-0.42,8.53-7.07,9.15-7.28v-6.03c-0.62,0.21-1.66,1.25-2.29,1.87L146.55,394.64z"/>
	<path class="st7" d="M312.52,353.25v3.74c0.62,0.62,8.11,0.21,8.73,0c1.46-0.21,2.7-0.42,4.16-0.62c0.83-0.21,3.12-0.83,3.74-1.04
		v-2.7c-0.62,0-1.04,0.21-1.87,0.42c-1.87,0.42-4.37,1.04-6.24,0.83c-1.66,0-3.33,0.21-4.58,0
		C315.43,353.67,312.93,353.46,312.52,353.25"/>
	<path class="st1" d="M251.79,323.72c0.42,0,1.25,0.21,1.87,0.42c1.46,0.42,5.41,0.83,6.45,1.66c0,1.46-0.42,1.66-1.25,3.12
		l-6.03,7.49c-0.42,0.42-0.21,0-0.21,0.21v2.91c0.42-0.42,0.83-0.83,1.25-1.25l1.46-1.46c3.74-4.16,6.45-9.57,6.86-9.98v-3.74
		c-1.66,0.83-2.29,0.42-5.2-0.21l-5.2-1.25V323.72z"/>
	<path class="st9" d="M192.1,348.88v5.41l2.5-2.5c0.62-0.83,1.66-1.66,2.29-2.5l4.78-5.41v-4.99c-0.62,0.21-2.08,1.87-2.5,2.29
		l-5.82,6.45C192.93,348.05,192.52,348.47,192.1,348.88"/>
	<path class="st1" d="M332.69,386.32c0,2.7-0.42,4.99,1.66,6.66c3.74,3.12,9.57,0.62,9.57-3.12v-0.83c0-3.74-5.82-5.82-8.94-3.12
		c-0.42,0.21-0.42,0.42-0.83,0.62c0-1.25,0-2.29,0.62-3.12c1.87-2.7,5.82-1.66,8.32-3.12v-0.83c-0.62,0-0.83,0.21-1.66,0.42
		C337.89,380.49,332.69,380.49,332.69,386.32 M338.51,393.18c-3.54,0-5.2-2.91-4.16-5.2c0.21-0.42,0.21-0.21,0.42-0.62
		c2.29-3.12,7.9-1.46,7.9,2.08C342.67,391.52,340.8,393.18,338.51,393.18z"/>
	<path class="st8" d="M236.61,345.55v2.91c2.5,0,7.28-2.29,8.94-3.33c1.46-0.83,2.5-1.66,3.74-2.5c1.25-1.04,2.08-1.87,3.33-3.12
		v-2.91c-0.42,0.42-0.42,0.42-0.83,0.83C248.46,340.77,241.39,344.93,236.61,345.55"/>
	<path class="st9" d="M348.5,386.32v-1.46h-1.46v12.89h1.46v-5.2c0.83,0.62,1.66,1.87,4.16,1.87c6.24,0,7.9-8.53,0.62-9.77
		C350.99,384.24,349.54,385.49,348.5,386.32 M348.5,389.44c0-5.41,8.32-4.58,8.32-0.42v0.83
		C356.82,394.22,348.5,394.64,348.5,389.44z"/>
	<path class="st8" d="M233.69,286.7v3.12c1.46-1.04,1.66-1.46,3.54-2.5c1.46-0.83,2.91-1.25,4.78-1.66
		c1.87-0.21,4.16,0.21,5.62,0.42c1.87,0.42,3.33,1.04,4.99,1.46v-2.29c-1.46-0.62-2.91-1.04-4.58-1.25
		c-1.87-0.42-3.54-0.21-5.62-0.21C238.89,283.58,235.77,285.24,233.69,286.7"/>
	<path class="st6" d="M346.21,343.89v2.7c0.83-0.42,2.91-2.08,3.95-2.7c1.25-1.25,2.5-2.29,3.74-3.33l3.74-3.33
		c1.25-1.04,2.29-2.29,3.54-3.54v-2.29c-0.62,0.21-1.25,1.04-1.87,1.66l-3.54,3.12c-0.42,0.42-0.42,0.42-0.83,0.83L346.21,343.89z"
		/>
	<path class="st1" d="M139.9,399.21v5.62c0.83-0.21,1.25-0.62,1.66-1.04c1.04-0.62,4.16-2.7,4.99-3.33v-5.82
		c-0.62,0.42-1.04,0.83-1.66,1.25c-0.62,0.42-1.04,0.83-1.66,1.04C142.18,397.76,141.14,398.59,139.9,399.21"/>
	<path class="st6" d="M360.77,386.53c0.42,0.21,0.42,0.42,0.83,0.62c1.46-1.04,1.66-1.46,3.54-1.46c2.5,0,2.7,1.87,2.7,3.54
		c-2.91,0-7.49-0.83-7.49,2.7c0,2.08,3.12,3.12,5.82,2.08c1.04-0.42,0.83-0.62,1.66-0.83c0,1.04-0.21,1.04,0.83,1.04
		c0.42,0,0.42,0,0.42-0.42v-6.03c0-2.08-1.87-2.91-3.74-3.33C363.47,384.24,361.6,385.49,360.77,386.53 M364.72,393.18
		c-1.04,0-3.33,0-2.91-1.87c0.21-1.66,3.95-1.04,6.03-1.04c0,1.04-0.21,1.66-0.83,2.08C366.38,392.77,365.55,393.18,364.72,393.18z"
		/>
	<path class="st1" d="M336.43,288.98c0.62-0.21,2.7-0.42,3.54-0.42v-10.19c-0.83-0.21-2.29-0.42-3.54-0.42V288.98z"/>
	<path class="st4" d="M299,389.44c0,2.91,2.7,4.99,5.82,4.99c4.99,0,7.49-5.62,3.74-8.53C304.61,382.78,299,385.49,299,389.44
		 M304.61,385.69c2.5,0,4.37,1.66,4.37,3.12c0,1.66,0,2.08-1.46,3.54c-2.08,1.87-7.07,0.83-7.07-2.91
		C300.25,387.36,302.33,385.69,304.61,385.69z"/>
	<path class="st1" d="M318.97,389.44c0,4.58,6.03,6.45,9.36,3.74c2.08-1.66,2.29-4.37,1.25-6.24
		C326.24,382.37,318.97,384.65,318.97,389.44 M324.37,385.69c2.5,0,4.58,1.66,4.58,3.12c0,1.66,0,2.08-1.46,3.54
		c-2.29,1.87-7.07,0.83-7.28-2.91C320.21,387.36,322.29,385.69,324.37,385.69z"/>
	<path class="st1" d="M408.6,323.72c1.04,0.42,2.5,0.62,3.74,1.04c1.25,0.21,2.7,0.42,3.95,1.04c0,1.25-0.62,1.66-1.66,3.12
		l-1.25,2.08c-0.42,0.42-0.42,0.21-0.62,0.83v3.12c0.62-0.42,2.5-3.12,2.91-3.74l1.66-3.12c0.42-0.42,0.42-0.62,0.62-1.25v-3.74
		c-0.83,0.62-1.04,0.62-2.29,0.42c-0.62-0.21-1.66-0.42-2.5-0.42c-1.46-0.42-3.33-0.83-4.58-1.25V323.72z"/>
	<path class="st0" d="M219.55,391.93v-7.07h-1.25v9.57c1.25,0,1.04-0.62,2.08-1.66c0.42-0.42,0.42-0.42,0.83-0.83l4.37-4.99v5.82
		c0,1.25-0.21,1.46,0.83,1.46c0.42,0,0.62,0,0.62-0.42v-8.94c0-1.46-2.29,1.66-2.91,2.08C223.09,387.98,220.38,391.52,219.55,391.93
		"/>
	<path class="st9" d="M442.71,391.93v-7.07h-1.46v9.57c1.25,0,1.04-0.62,2.08-1.66l5.41-5.82v7.28c0.83,0,1.25,0.21,1.25-0.42v-8.94
		c0-1.46-2.08,1.46-2.7,2.08c-0.42,0.42-0.62,0.62-1.04,1.04l-1.66,2.08C443.96,390.69,443.54,391.52,442.71,391.93"/>
	<path class="st4" d="M276.75,386.73c0.62,0.21,0.42,0,0.83,0.42c0-0.21,3.74-3.12,6.45-0.62c1.04,1.04,0.83,1.04,1.46,2.08h-5.2
		v1.25h5.2c-0.21,2.91-3.74,4.16-6.45,2.91c-0.42-0.21-1.04-0.83-1.46-1.04l-0.83,0.62c2.5,3.74,9.98,2.08,9.98-2.7v-0.83
		c0-2.7-3.54-5.2-7.49-3.95C278.41,385.07,276.95,385.9,276.75,386.73"/>
	<path class="st10" d="M407.36,392.14v-7.28h-1.46v9.15c0,1.46,1.87-0.83,1.87-1.04c0.42-0.42,0.62-0.62,1.04-1.04
		c0.42-0.42,0.42-0.62,0.83-1.04l2.7-2.91c0.42-0.42,0.62-0.62,1.04-1.04v5.82c-0.21,1.25-0.21,1.46,0.83,1.46
		c0.21,0,0.42,0,0.42-0.42v-8.94c0-0.62,0,0-0.21-0.42c-0.83,0.21-3.74,3.74-4.37,4.78L407.36,392.14z"/>
	<path class="st8" d="M392.59,285.03v2.5c4.58-1.87,5.2-2.7,12.06-1.25l3.74,1.25v-2.29c-0.62-0.42-2.7-1.04-3.54-1.04
		c-2.29-0.62-6.24-0.83-8.53-0.21C394.88,284.2,393.63,284.62,392.59,285.03"/>
	<path class="st1" d="M205.41,164.41c1.04,0,1.87,0.21,2.7,0.42c0.83,0.21,1.87,0.62,2.7,0.62v-5.82c-0.62-0.21-0.83-0.21-1.46-0.42
		c-0.42-0.21-0.62-0.21-1.25-0.42c-0.83-0.21-1.87-0.42-2.7-0.42V164.41z"/>
	<path class="st6" d="M417.96,386.32c0.42,0.21,0.62,0.42,1.04,0.42c1.25-0.83,1.04-1.04,2.91-1.04c2.5,0,3.12,2.91-0.83,2.91h-0.83
		v1.04c1.87,0,4.16-0.21,4.16,2.08c0,1.25-1.66,1.46-2.7,1.46c-2.08,0-2.08-0.62-3.12-1.46c-0.42,0.42-0.62,0.42-0.83,0.83
		c1.25,2.5,6.66,2.7,7.9,0c0.62-1.66-0.42-3.12-1.66-3.33v-0.21c0,0.21,1.25-0.83,1.25-1.66c0-1.87-0.83-2.7-3.33-2.91
		C420.67,384.45,418.79,385.07,417.96,386.32"/>
	<path class="st3" d="M231.82,385.9c0,1.66-0.21,3.33-0.42,4.78c0,0.83-0.42,1.46-0.62,1.87c-0.83,1.04-1.66,0-1.66,1.25
		c0,0.83,2.7,0.83,3.54-2.5l0.42-5.62h4.37v8.11c0,0.62,1.46,0.62,1.46,0v-8.94h-7.07V385.9z"/>
	<path class="st8" d="M118.48,410.65v5.62c0.83-0.42,1.66-0.62,2.5-1.04c0.83-0.42,2.08-1.04,2.7-1.04v-5.82
		c-0.83,0.21-1.87,0.83-2.7,1.04C120.14,409.82,119.31,410.03,118.48,410.65"/>
	<path class="st9" d="M428.98,385.07v8.73c0,0.62,1.25,0.62,1.25,0v-4.16h5.82v4.58h1.25v-9.57c-1.46,0-1.25-0.42-1.25,3.95h-5.82
		c0-3.95,0.42-3.95-0.83-3.95C428.98,384.65,428.98,384.65,428.98,385.07"/>
	<path class="st6" d="M372.42,386.32c0.21,0.21,0.42,0.21,0.83,0.42c1.25-0.83,1.46-1.04,3.12-1.04c2.5,0,2.91,2.91-0.83,2.91h-1.04
		c0,1.66,0.83,0.83,2.5,1.25c2.7,0.42,2.29,3.33-1.04,3.33c-0.62,0-1.25,0-1.66-0.21c-0.21-0.21-0.62-0.42-0.83-0.42
		c-0.42-0.42-0.21-0.21-0.42-0.83c-0.62,0.21-0.62,0.21-1.04,0.83c0.21,0.42,0.21,0.42,0.62,0.62c3.12,2.29,7.49,1.04,7.49-1.46
		c0-1.25-0.62-2.29-1.87-2.5c0.83-1.04,1.25-0.42,1.25-2.5c0-1.66-1.87-2.08-3.33-2.29C374.91,384.45,373.25,385.07,372.42,386.32"
		/>
	<path class="st0" d="M200.42,394.43c1.87,0,3.95-0.83,4.58-1.87c-0.21-0.62-0.21-0.42-0.62-0.83c-1.46,1.04-1.87,1.46-3.95,1.46
		c-1.87,0-3.95-1.46-3.95-3.33v-0.83c0-2.29,3.54-4.37,6.45-2.91c0.42,0.21,1.04,0.83,1.46,1.04l0.83-0.62
		c-1.66-2.29-7.07-3.12-9.36,0.42C193.55,390.48,196.67,394.43,200.42,394.43"/>
	<path class="st7" d="M242.85,385.07v8.73c0,0.83,1.25,0.42,3.54,0.42c1.04,0,2.08-0.21,2.91-0.42c2.5-1.46,1.66-5.62-1.66-5.62
		h-3.54v-3.54C243.05,384.65,242.85,384.45,242.85,385.07 M247.21,393.18h-3.12v-3.95c2.29,0,5.41-0.42,5.41,2.08
		C249.5,392.35,248.25,393.18,247.21,393.18z"/>
	<path class="st4" d="M329.16,352.63v2.7c1.46-0.42,3.74-1.25,5.2-1.87c0.83-0.42,1.46-0.83,2.29-1.25
		c0.42-0.21,0.83-0.42,1.25-0.42l1.04-0.83v-2.29l-8.53,3.54c-0.21,0-0.21,0-0.62,0.21c-0.21,0,0,0-0.21,0
		C329.16,352.63,329.36,352.63,329.16,352.63"/>
	<path class="st1" d="M252.62,287.53c0.42,0.42,3.74,1.66,6.45,3.95l2.5,2.7c0.62,0.62,0,0.21,0.62,0.62v-2.91
		c-2.08-2.29-4.16-3.95-6.86-5.41l-2.7-1.25V287.53z"/>
	<path class="st4" d="M405.28,339.73v2.91l1.87-1.66c0.83-0.42,1.46-1.25,2.08-1.87c1.25-1.46,2.5-2.7,3.54-4.16v-3.12
		c-0.62,0.42-3.54,4.37-5.62,6.03c-0.42,0.42-0.62,0.62-1.04,1.04c-0.21,0.21-0.42,0.21-0.62,0.62
		C405.28,339.73,405.28,339.52,405.28,339.73"/>
	<path class="st3" d="M229.33,348.47c1.87,0.42,5.41,0.42,7.28,0v-2.91c-1.04,0-1.25,0.21-2.08,0.21c-0.62,0-1.04-0.21-1.87-0.21
		c-0.83-0.21-2.91-0.62-3.33-0.83V348.47z"/>
	<path class="st4" d="M408.4,287.53c0.42,0.21,4.16,1.66,6.66,3.95c0.62,0.62,1.25,1.25,1.87,1.87v-2.7
		c-0.42-0.83-3.33-2.7-3.74-3.12c-1.25-0.83-3.33-2.08-4.78-2.29V287.53z"/>
	<path class="st7" d="M398.2,343.89v2.91c1.04-0.42,2.7-1.25,3.74-1.87c0.62-0.42,1.04-0.62,1.66-1.04
		c0.62-0.42,1.04-0.83,1.66-1.25v-2.91c-0.83,0.21-2.7,1.66-3.33,2.29c-0.62,0.21-1.25,0.62-1.87,0.83
		C399.45,343.27,399.04,343.47,398.2,343.89"/>
	<path class="st8" d="M391.34,345.55v3.12c1.04,0,2.7-0.42,3.54-0.62c0.62-0.21,1.04-0.42,1.66-0.62c0.62-0.21,1.25-0.42,1.66-0.62
		v-2.91c-1.87,0.62-2.08,1.04-4.99,1.46C392.38,345.55,391.96,345.35,391.34,345.55"/>
	<path class="st9" d="M345.79,307.08v-4.37l-0.83,1.04c-1.25,2.08-2.7,3.54-4.37,5.2c-1.66,1.66-1.25,1.25-0.62,2.08
		c1.46,0,2.5-0.62,3.54-1.25c0.42-0.42,0.83-0.83,1.25-1.25C344.96,307.91,345.59,307.7,345.79,307.08"/>
	<path class="st9" d="M338.93,348.67v2.29c0.62,0,2.91-1.46,3.74-1.87c0.62-0.62,3.12-2.08,3.54-2.5v-2.7
		c-1.25,0.83-2.29,1.46-3.54,2.29c-0.62,0.42-1.04,0.83-1.87,1.25C340.39,347.63,339.14,348.26,338.93,348.67"/>
	<path class="st3" d="M307.73,356.16c0.83,0,1.46,0.21,2.29,0.42c0.62,0.21,1.46,0.42,2.5,0.42v-3.74
		c-1.46-0.21-3.74-1.04-4.78-1.46V356.16z"/>
	<path class="st0" d="M206.66,385.69h3.95v8.11c0,0.62,1.25,0.62,1.25,0v-8.11h3.95v-0.83h-9.15V385.69z"/>
	<path class="st3" d="M386.14,348.67c0.62,0,1.46,0,2.29,0c1.04,0,2.08,0.21,2.91,0v-3.12c-1.04,0-1.66,0-2.7,0
		c-0.83-0.21-1.87-0.42-2.5-0.62V348.67z"/>
	<path class="st10" d="M388.43,384.86l3.74,3.12c0.21,0.21,0.83,0.83,1.04,1.04l-4.16,3.95c-0.62,0.83-1.87,1.25,0,1.25
		c1.04,0,2.29-1.87,3.12-2.5c0.83-0.62,2.08-1.87,2.7-2.7l-3.95-3.54c-0.83-0.62-0.42-0.83-1.87-0.83
		C388.85,384.65,388.64,384.65,388.43,384.86"/>
	<polygon class="st4" points="288.18,385.69 292.34,385.69 292.34,394.22 293.38,394.22 293.38,385.69 297.34,385.69 297.34,384.86 
		288.18,384.86 	"/>
	<path class="st10" d="M396.75,389.02c0.21,0.62,0.83,1.04,1.25,1.46l1.46,1.25c1.46,1.25,1.66,2.5,3.54,2.5
		c1.46,0-0.83-1.46-1.04-1.66l-2.29-2.29c-0.42-0.42-0.83-0.62-1.46-1.25c0.42-0.42,4.37-3.74,4.78-4.16
		c-1.25-0.83-2.29,0.62-2.5,0.62l-1.25,1.25c-0.21,0.21-0.42,0.21-0.62,0.42L396.75,389.02z"/>
	<path class="st9" d="M425.24,252.8c-1.46-0.42-0.62-0.83-0.62,2.29c0,1.04-1.46,1.87,0.21,2.29c0.62-0.42,1.04-1.04,1.25-1.66
		l0.21-1.46c0.21-1.46,0.21-1.87-0.42-3.54c-0.21-0.62-0.42-0.62-0.62-1.25c-0.21-1.04-0.21-1.04-1.25-1.04
		C423.99,250.09,425.24,250.72,425.24,252.8"/>
	<path class="st10" d="M395.08,384.86v7.28c0,2.08-0.42,2.08,1.25,2.08v-9.57L395.08,384.86z"/>
	<path class="st1" d="M467.04,188.74c0.42-0.42,0.42-0.42,0.21-1.04c-0.42-4.78-0.83-4.37-0.83-9.98c0-1.04,0.21-0.83-0.42-1.25
		c-0.83,0.42-0.62,1.25-0.42,2.7c0.21,1.87,0,3.54,0.62,6.66C466.42,186.87,466.42,187.7,467.04,188.74"/>
	<path class="st4" d="M445.82,163.98c-0.04-0.15-0.12-0.28-0.17-0.42c0,0,0,0-0.01,0c-0.03-0.02-0.05-0.05-0.07-0.08
		c-0.63-0.36-1.98-1.5-2.87,0.1c-0.21,0.21-0.62,1.04-0.62,1.66c0,0.19,0.54,0.56,0.78,0.95c0.05,0.04,0.12,0.07,0.19,0.1
		c0.08,0.03,0.16,0.07,0.23,0.12c0.31,0.06,0.64,0.02,1.08-0.13c1.45-0.21,1.46-0.62,1.46-2.28
		C445.83,163.99,445.83,163.99,445.82,163.98z M443.54,165.24c0-0.21-0.21-0.62-0.21-0.83l0.42-0.42l1.04,0.83
		C444.17,165.24,444.58,165.24,443.54,165.24z"/>
	<path class="st8" d="M428.36,160.87c0,3.12,3.95,2.5,3.95,0.42c0-1.04-1.25-2.29-2.29-2.29C429.19,159,428.36,160.04,428.36,160.87
		 M429.4,161.08c0-0.83,0.83-1.04,1.46-0.62c0,0,1.46,1.87-1.25,1.25C429.61,161.29,429.4,161.49,429.4,161.08z"/>
	<path class="st4" d="M428.36,176.89c0,0.83,0.62,2.5,2.5,2.5c0.62,0,1.46-1.25,1.46-2.08C432.31,175.22,428.36,174.6,428.36,176.89
		 M429.4,177.09c0-1.04,1.66-0.21,1.87,0c0,0.62-0.21,0.83-0.62,1.25C430.02,178.13,429.4,177.72,429.4,177.09z"/>
	<path class="st8" d="M409.64,192.48l0.21-0.21l0.21-0.21c0-0.21,0.83-1.04-0.42-2.08c-0.62-0.62-1.87-0.42-3.12-0.42
		C405.07,191.86,407.15,193.94,409.64,192.48 M407.56,190.61c0.83,0,1.25,0.21,1.46,0.62c-0.42,1.66-1.87,0.42-2.08,0.42
		C406.94,191.03,406.94,190.61,407.56,190.61z"/>
	<rect x="259.28" y="387.57" class="st8" width="9.15" height="1.04"/>
	<path class="st9" d="M477.03,183.96l-0.21-0.21c-0.21-0.21-0.42-0.62-0.62,0c0,0.42,0.42,2.29,0.42,3.12
		c0,1.46,0.42,1.25,1.66,1.04c0-1.25-0.42-4.99-0.62-6.24c-0.21-0.42-0.21-0.21-0.21-0.62h-0.62
		C476.82,182.29,477.03,182.92,477.03,183.96"/>
	<path class="st4" d="M422.12,190.2c0,1.46,0,0.83,0.21,1.25c1.25-0.83,0-1.46,1.25-1.87c-0.42-0.42-0.42-0.42-0.62-1.04
		c1.66-0.42,1.87-4.37,1.66-6.03c-2.08,0-0.21,0.83-1.87,5.62C422.54,188.95,422.12,188.95,422.12,190.2"/>
	<path class="st9" d="M479.94,187.28c0.62,0,0.83-0.21,0.83-0.83c0.21-0.42,0.21-0.62,0-1.25c-0.21-1.04-0.21-1.87-0.42-3.12
		c0-0.83-0.21-1.87-0.42-2.7c-0.21-1.25,0-2.08-1.25-2.08l1.25,7.49C480.15,185.83,479.52,186.45,479.94,187.28"/>
	<path class="st9" d="M421.5,246.56c-2.08-0.42-2.08-0.21-3.95-1.66c-0.83-0.42-2.29-2.7-2.91-2.7c-1.87,0,2.29,3.33,2.29,3.54
		c1.25,1.04,1.25,0.83,2.5,1.25C420.46,247.18,420.87,247.81,421.5,246.56"/>
	<path class="st4" d="M463.09,160.04c0.42-0.42,0.42-0.21,0.62-0.83c0-0.42,0-0.62,0-1.25c0.21-0.42,0.42-0.62,0.42-1.04
		c0.21-0.42,0.21-0.62,0.42-1.04c0.21-0.83,0.42-1.46,0.62-2.08l0.62-2.29c0-0.21-0.42-1.25-1.25,1.04
		c-0.62,1.87-0.62,1.46-1.04,3.54C463.51,156.5,462.47,158.79,463.09,160.04"/>
	<path class="st8" d="M423.58,173.56c-2.5-1.46-4.16-1.66-6.86-3.74c-0.42-0.21-0.42-0.42-1.04-0.42c0,0.83,0.42,1.04,1.46,1.87
		c0.83,0.62,3.12,1.66,4.37,2.08c0.42,0.21,0.83,0.42,1.04,0.42C423.16,173.97,423.16,173.97,423.58,173.56"/>
	<path class="st9" d="M479.11,188.53c0.62-1.04,0-6.66-0.21-7.9c-0.21-0.83,0-1.04-0.83-1.04c-0.21,0.83,0,1.04,0.21,2.08l0.42,4.78
		C478.9,187.7,478.48,188.12,479.11,188.53"/>
	<path class="st8" d="M411.51,181.04c0.83,0,1.46-0.83,1.25-1.46c-0.83-2.7-3.33-1.25-2.91,0
		C409.85,179.8,410.47,181.04,411.51,181.04 M411.1,179.17c0.21,0.21,0.21,0,0.62,0.42c0.21,0.42,0.21,0.42,0,0.42
		C411.31,180.21,410.68,180.01,411.1,179.17z"/>
	<path class="st4" d="M419,194.15c0,1.46,0.42,1.25,1.25,0.42v-0.21c0-0.42,0-0.62-0.21-1.04
		C419.21,193.94,420.25,194.15,419,194.15"/>
	<path class="st1" d="M443.13,185.2c0.42-0.21,0.21-0.42,1.04-0.21v-0.42c-0.83-0.21-0.83-0.83-1.66-1.25
		C442.71,184.16,442.92,184.58,443.13,185.2"/>
	<path class="st8" d="M418.17,180.42v0.42c1.25,0,1.46-0.42,2.5-0.42v-0.21C419.83,180.21,418.79,180.01,418.17,180.42"/>
	<path class="st1" d="M457.27,182.5c0.21-0.21,0.62,0.21-0.42-0.62c-0.42-0.42-0.21-0.42-0.83-0.62c0.21,0.42,0.42,0.83,0.83,1.25
		C457.48,182.71,457.27,182.5,457.27,182.5"/>
	<path class="st4" d="M413.39,194.77h0.62c0.42,0,0.42-0.21,0.42-0.62h-1.04V194.77z"/>
	<path class="st1" d="M441.88,203.09c0,0.21,0,0.21,0.42,0.42c0.21,0,0.21,0,0.62,0.21l0.21-0.62
		C442.71,202.88,442.3,203.09,441.88,203.09"/>
	<path class="st4" d="M413.39,195.81c0.62,0.21,0.62,0.21,1.25,0.21c-0.21-0.21-0.42-0.62-0.83-0.62
		C413.59,195.4,413.39,195.6,413.39,195.81"/>
	<path class="st1" d="M445.41,186.45C445,185,443.54,186.45,445.41,186.45"/>
</g>
</svg>
