<?xml version="1.0" encoding="utf-8"?>
<!-- Generator: Adobe Illustrator 28.0.0, SVG Export Plug-In . SVG Version: 6.00 Build 0)  -->
<svg version="1.1" id="Слой_1" xmlns="http://www.w3.org/2000/svg" xmlns:xlink="http://www.w3.org/1999/xlink" x="0px" y="0px"
	 viewBox="0 0 566.93 566.93" style="enable-background:new 0 0 566.93 566.93;" xml:space="preserve">
<style type="text/css">
	.st0{fill-rule:evenodd;clip-rule:evenodd;fill:#EDC980;}
	.st1{fill-rule:evenodd;clip-rule:evenodd;fill:#D8B178;}
	.st2{fill:#D8B178;}
	.st3{fill-rule:evenodd;clip-rule:evenodd;fill:#F0D9A3;}
	.st4{fill-rule:evenodd;clip-rule:evenodd;fill:#E3C79F;}
	.st5{fill:#E3C79F;}
	.st6{fill-rule:evenodd;clip-rule:evenodd;fill:#C68E38;}
	.st7{fill-rule:evenodd;clip-rule:evenodd;fill:#F3E4CD;}
	.st8{fill-rule:evenodd;clip-rule:evenodd;fill:#EDD7BA;}
	.st9{fill-rule:evenodd;clip-rule:evenodd;fill:#CFA159;}
	.st10{fill-rule:evenodd;clip-rule:evenodd;fill:#BF8119;}
</style>
<g>
	<path class="st1" d="M418.17,326.84c0,0,0.42-0.83,1.25-1.04c0.83-0.21,1.46,0,2.29,0.21c2.91,0,10.4-1.04,13.31-1.87
		c4.37-1.25,8.32-3.12,11.85-5.41c0.83-0.62,1.04-0.62,1.25-1.46c-2.5,0-9.15,6.66-22.67,6.45c-7.07,0-5.82,1.46-3.33-7.07
		c1.04-3.95,1.87-8.94,1.25-13.1c-0.62-4.58-1.66-7.07-4.16-10.4c-0.62-0.83-1.66-2.29-2.29-2.5c-0.42-0.83-3.33-2.7-3.74-3.12
		c-1.25-0.83-3.33-2.08-4.78-2.29c-0.62-0.42-2.7-1.04-3.54-1.04c-2.29-0.62-6.24-0.83-8.53-0.21c-1.46,0.21-2.7,0.62-3.74,1.04
		c-0.42,0.21-1.04,0.62-1.66,0.83c-5.2,2.7-9.36,8.94-8.73,15.39c0.42,4.78,0.21,2.5-3.95,7.9c-0.62,0.83-1.46,1.87-2.08,2.91
		c-2.91,4.78-4.58,7.49-8.53,12.06c-0.21,0.21-0.42,0.42-0.62,0.62l-1.04,1.46c-0.21,0.21-0.42,0.21-0.62,0.42l-1.87,2.08
		c-0.42,0.62-0.62,0.83-1.04,1.25c-0.21,0.21-0.42,0.42-0.62,0.62l-0.62,0.83c-0.62,0.21-1.25,1.04-1.87,1.66l-3.54,3.12
		c-0.42,0.42-0.42,0.42-0.83,0.83l-8.73,6.86c-1.25,0.83-2.29,1.46-3.54,2.29c-0.62,0.42-1.04,0.83-1.87,1.25
		c-0.42,0.21-1.66,0.83-1.87,1.25l-8.53,3.54c-0.21,0-0.21,0-0.62,0.21c-0.21,0,0,0-0.21,0c-0.42,0.21-0.21,0.21-0.42,0.21
		c-0.62,0-1.04,0.21-1.87,0.42c-1.87,0.42-4.37,1.04-6.24,0.83c-1.66,0-3.33,0.21-4.58,0c-1.04-0.21-3.54-0.42-3.95-0.62
		c-1.46-0.21-3.74-1.04-4.78-1.46c-0.42-0.42-0.83-0.42-1.25-0.62c-7.28-3.95-12.06-10.81-9.98-19.97c0.42-2.29,1.04-4.16,1.87-6.24
		c0.62-1.87,2.29-4.78,3.54-6.66l1.46-2.5c0.42-0.42,0.62-0.83,0.83-1.25c0.62-0.62,3.33-3.95,3.54-4.58
		c0.83-0.42,0.62-0.62,1.25-1.25c0.42-0.42,0.62-0.62,1.04-1.25c0.83-0.83,1.66-1.46,2.29-2.5l6.24-5.41l7.49-5.2
		c0.42-0.21,1.46-1.04,1.87-1.25c0.83-0.42,1.46-0.83,2.29-1.25c0.83-0.62,5.2-2.7,6.24-2.91c0.62-0.21,2.7-0.42,3.54-0.42
		c0.42,0.42,1.04,0.21,1.66,0.21c0.62,0.21,1.25,0.42,1.66,0.42c1.25,0.42,1.87,0.83,2.91,1.46c0.83,1.25,2.5,2.5,1.87,6.03
		c-0.21,1.46-0.42,2.08-0.83,3.33c-0.42,1.04-1.04,1.66-1.46,2.7l-0.83,1.04c-1.25,2.08-2.7,3.54-4.37,5.2
		c-1.66,1.66-1.25,1.25-0.62,2.08c1.46,0,2.5-0.62,3.54-1.25c0.42-0.42,0.83-0.83,1.25-1.25c0.21-0.62,0.83-0.83,1.04-1.46
		c1.04-0.62,2.91-4.37,3.54-5.41c2.29-4.99,2.91-9.98,0.62-14.77c-0.62-1.46-2.5-4.37-3.74-5.2c-0.21-0.21-1.04-0.83-1.25-1.04
		c-0.62-0.42-1.04-0.62-1.66-0.83c-0.62-0.42-2.29-1.25-3.33-1.46c-0.83-0.21-2.29-0.42-3.54-0.42c-0.62-0.21-2.29,0-3.12,0
		c-0.62,0-2.7,0.42-3.12,0.62c-0.62,0.21-3.74,1.04-4.16,1.46c-1.04,0-2.91,1.04-3.74,1.46c-0.83,0.21-1.25,0.42-1.87,0.83
		c-0.62,0.42-1.04,0.62-1.87,0.83l-3.12,2.08c-0.42,0.21-0.83,0.62-1.46,1.04c-0.62,0.42-1.25,0.62-1.66,1.25
		c-0.42,0-0.83,0.42-1.04,0.62l-2.29,1.87c-0.62,0.42-0.62,0.62-1.25,1.04l-6.66,6.45c0,0.21-0.21,0.42-0.21,0.42l-1.25,1.46
		c-3.95,4.78-7.69,10.61-9.98,16.64c-1.46,3.54-0.62,2.5-2.91,3.74c-0.62,0.42-1.46,0.62-2.29,1.04c-1.87,0.62-3.12,1.25-6.03,1.87
		c-3.12,0.83-4.37,0.62-7.07,1.04c-1.25,0.21-2.7,0-3.95,0.21c-0.83,0-3.12,0-3.33-0.62c0-0.42,0.42-1.25,0.42-1.46
		c0.21-0.62,0.42-1.04,0.62-1.66c1.66-4.99,3.33-11.65,2.29-17.26c-0.83-4.16-1.87-6.66-4.16-9.98c-0.21-0.21-0.83-0.83-1.04-1.04
		c-2.08-2.29-4.16-3.95-6.86-5.41l-2.7-1.25c-1.46-0.62-2.91-1.04-4.58-1.25c-1.87-0.42-3.54-0.21-5.62-0.21
		c-3.54-0.21-6.66,1.46-8.74,2.91c-4.99,3.33-8.32,9.15-7.49,15.39c0.21,2.29,0.21,2.5-1.25,3.95c-1.87,1.66-3.33,3.74-4.58,5.82
		c-4.99,7.69-4.99,11.23-5.62,12.48L213.1,326c-0.21,0.42-0.42,0.62-0.62,0.83l-10.81,12.06c-0.62,0.21-2.08,1.87-2.5,2.29
		l-5.82,6.45c-0.42,0.42-0.83,0.83-1.25,1.25l-2.5,2.7c-0.42,0.62-0.62,0.83-1.25,1.46c-0.21,0.21-0.42,0.42-0.62,0.62
		c-0.42,0.42-0.42,0.42-0.62,0.83c-1.87,1.87-3.54,3.74-5.41,5.62c-0.62,0.62-1.25,1.46-1.87,2.08c-0.83,0.83-1.25,1.46-2.08,2.08
		l-9.78,10.81c-0.21,0.42-0.62,0.62-1.04,1.04c-0.21,0.21-0.21,0.42-0.42,0.62l-0.42,0.62c-0.62,0.21-0.83,0.42-1.46,1.04
		l-8.94,8.73c-0.62,0.21-1.66,1.25-2.29,1.87l-6.86,5.62c-0.62,0.42-1.04,0.83-1.66,1.25c-0.62,0.42-1.04,0.83-1.66,1.04
		c-1.04,0.83-2.08,1.66-3.33,2.29c-2.91,2.08-8.53,5.41-11.85,7.07l-4.16,1.87c-0.21,0.21-0.21,0.21-0.21,0.21
		c-0.83,0.21-1.87,0.83-2.7,1.04c-0.83,0.42-1.66,0.62-2.5,1.25c-1.87,0.42-3.74,1.25-5.82,1.66c-2.08,0.62-3.95,1.04-6.03,1.66
		c-4.58,0.83-8.53,1.04-14.14,1.04l-7.07-0.83c-0.83,0-1.66-0.42-2.29-0.42c-0.62-0.21-1.04-0.21-1.66-0.42
		c-3.74-0.83-9.36-3.33-9.77-3.54c-0.83-0.62-6.66-3.12-12.89-9.36c-4.16-4.16-7.07-7.9-9.78-13.1c-1.66-3.33-2.08-4.37-3.33-7.9
		c-1.25-3.74-2.29-9.98-2.29-14.35c0-1.66-0.21-4.37-0.21-5.41c0.21-1.04,0.21-1.87,0.21-2.7c-0.21-7.69,3.95-23.09,6.66-29.95
		c1.87-4.78,2.91-7.49,4.99-12.27c1.87-4.58,6.45-14.97,8.94-19.13l6.03-11.23l6.66-10.81c0.83-1.25,1.46-2.29,2.29-3.54
		c0.21-0.62,0.62-1.25,1.04-1.87c0.42-0.62,0.62-1.25,1.04-1.87l6.86-10.61c0.42-0.21,1.04-1.25,1.46-1.66
		c0.42-0.62,0.62-1.25,1.04-1.87c0.83-1.04,1.66-2.29,2.5-3.54l4.99-6.86h0.21l3.33-4.37c1.66-2.29,9.77-12.69,12.27-15.18
		l1.87-2.08c0.42-0.62,0.83-0.83,1.25-1.46c0.42-0.42,0.83-0.83,1.25-1.46l8.74-9.36c1.04-0.62,4.37-4.58,5.82-5.82
		c0.62-0.42,0.83-0.62,1.46-1.25c0.21-0.21,0.42-0.42,0.83-0.62l3.12-2.91c0.42-0.21,0.42-0.21,0.62-0.62l7.9-6.45
		c1.04-0.83,2.29-1.66,3.54-2.7l11.44-7.9l3.95-2.29c0.62-0.42,1.25-0.83,2.08-1.25l1.87-1.25l12.27-5.82c0.83,0,1.66-0.62,2.5-0.83
		c1.04-0.42,1.66-0.62,2.7-0.83c1.66-0.62,3.54-1.04,5.2-1.46c0.62,0,1.04-0.21,1.66-0.42l4.58-0.62c2.08-0.42,4.58-0.42,7.07-0.42
		c1.04,0,1.87,0.21,2.7,0.42c0.83,0.21,1.87,0.62,2.7,0.62l3.12,1.87c2.08,1.25,3.95,3.12,5.41,5.2c0.62,1.04,1.25,2.29,1.87,3.54
		c2.08,4.78,2.08,12.69,1.04,18.72c-1.66,10.4-5.2,19.97-10.4,28.91c-0.42,0.42-0.83,1.25-1.04,1.87l-4.99,6.66
		c-0.42,0.62-0.83,1.25-1.25,1.66c-0.42,0.62-0.83,1.04-1.46,1.66c-0.42,0.62-0.83,0.83-1.25,1.46c-0.42,0.62-1.04,1.04-1.46,1.66
		l-3.12,3.12h-0.21c-0.21,0.21-0.21,0.21-0.42,0.42c-1.46,1.46-3.95,3.54-5.62,4.58l-3.33,2.08c0,0,0,0-0.21,0
		c-0.21,0.42,0,0-0.21,0.21c-0.83,0.21-1.87,0.83-2.7,1.25c-0.42,0.21-0.83,0.42-1.25,0.62c-0.62,0.21-1.04,0.42-1.66,0.62
		c-2.08,0.62-3.33,1.04-5.82,1.46c-1.25,0-1.87,0-3.33-0.21c-1.25,0-1.87-0.21-3.12-0.62l-0.83-0.42
		c-7.69-3.74-12.89,2.29-12.48,6.45c0.62,3.33,1.87,5.41,4.58,7.07c1.66,1.04,6.03,2.5,8.74,2.5c2.91,0,4.58-0.42,6.86-1.04
		c1.46-0.62,4.16-1.25,5.41-2.08c1.46-0.21,4.99-2.91,5.62-3.33c0.21,0,6.66-5.2,8.11-6.86l3.12-2.91
		c2.91-2.91,10.4-12.48,12.27-15.39c0.83-0.83,4.58-7.49,5.2-8.53c3.54-6.86,5.62-11.85,7.9-19.55c2.29-7.7,4.16-18.93,3.12-27.24
		c-0.62-3.54-0.62-4.37-2.08-8.11c-0.62-1.66-1.46-3.12-2.5-4.37c-2.5-3.95-7.28-7.28-11.65-8.74c-0.62-0.21-0.83-0.21-1.46-0.42
		c-0.42-0.21-0.62-0.21-1.25-0.42c-0.83-0.21-1.87-0.42-2.7-0.42c-1.87-0.21-4.58-0.83-6.66-0.42c-0.83,0-2.29,0.21-3.33,0.21
		c-1.04,0-2.08,0.21-3.33,0.21c-0.83,0.21-1.66,0.42-2.5,0.62c-1.04,0.21-1.87,0.21-2.7,0.42c-1.66,0.42-3.74,0.83-5.2,1.25
		c-0.83,0.21-5.2,1.66-6.24,2.08l-6.03,2.29c-0.42,0.21-1.25,0.42-1.87,0.83c-0.83,0.21-1.46,0.42-2.08,0.83
		c-1.25,0.42-2.7,1.04-3.95,1.66c-0.83,0.21-4.58,2.29-5.82,2.91c-1.66,0.83-8.11,4.16-9.15,5.2c-0.83,0.21-1.46,0.62-2.08,1.04
		c-0.62,0.42-1.25,0.83-1.87,1.25c-0.83,0.42-3.33,2.08-3.95,2.5c-0.83,0.21-7.7,5.2-8.94,6.24c-0.62,0.42-2.5,1.66-2.91,2.29
		c-0.42,0.21-1.04,0.62-1.25,0.83l-3.95,3.12c-0.21,0.21-0.21,0.42-0.62,0.62l-4.16,3.74c-0.83,0.42-6.45,5.62-7.28,6.45
		c-2.08,2.08-8.11,7.9-9.36,9.36c-0.62,0.83-1.46,1.66-2.29,2.5l-7.49,8.53c-0.21,0.42-0.62,0.83-1.04,1.25
		c-0.62,0.62-1.04,1.04-1.46,1.66c-0.21,0.21-0.83,1.04-1.04,1.25L80,237.61c-0.42,0.62-0.83,0.83-1.25,1.46l-8.73,12.06
		c-0.83,0.62-8.94,13.52-9.78,14.97l-13.73,24.33l-4.37,8.53c0,0.21,0,0.21-0.21,0.62c-1.87,3.54-4.99,11.44-6.24,15.39
		c-2.7,7.49-4.58,13.73-5.82,21.63c-0.42,2.29-0.62,4.78-1.04,7.07l-0.42,5.41c0,0.83,0,1.04,0,1.87c-0.21,5.41,0,10.19,0.83,14.77
		c1.25,9.15,4.99,19.76,10.19,27.24c0.21,0.42,0.42,0.62,0.83,1.25l7.07,8.32c0.42,0.42,0.62,0.62,1.04,1.04
		c5.62,5.41,13.1,10.19,20.38,13.1c0.83,0.42,2.08,1.04,2.91,1.25c1.87,0.83,8.94,2.91,11.44,2.91c1.25,0.21,2.7,0.42,4.37,0.42
		c1.04,0,1.25,0.21,2.29,0.21c0.83,0,1.87,0,2.7,0c6.66,0,14.14-1.46,20.17-3.33l5.82-1.87c0.83-0.42,1.66-0.62,2.5-1.04
		c0.83-0.42,2.08-1.04,2.7-1.04c0.21-0.21,6.66-3.33,8.32-4.37c0.62-0.42,7.7-4.37,7.9-4.99c0.83-0.21,1.25-0.62,1.66-1.04
		c1.04-0.62,4.16-2.7,4.99-3.33c1.04-0.42,8.53-7.07,9.15-7.28l2.5-2.5c0.62-0.42,0.83-0.62,1.46-1.04l6.45-6.24
		c0.42-0.62,1.46-1.46,1.87-2.08c0.83-0.83,1.46-1.46,2.08-2.08l1.87-2.29c3.12-3.12,6.24-7.07,9.36-10.4
		c0.42-0.42,0.42-0.21,0.42-0.62c1.04-0.62,8.32-9.36,9.77-10.81c0.42-0.42,0.42-0.42,0.62-0.83l2.5-2.5
		c0.62-0.83,1.66-1.66,2.29-2.5l4.78-5.41l7.69-8.74c1.25-1.25,3.74-4.16,4.99-5.2c0.42,3.95-0.21,3.12,1.25,7.07
		c1.25,3.95,4.16,7.07,7.7,9.15c1.25,0.83,3.95,2.08,6.03,2.29c1.87,0.42,5.41,0.42,7.28,0c2.5,0,7.28-2.29,8.94-3.33
		c1.46-0.83,2.5-1.66,3.74-2.5c1.25-1.04,2.08-1.87,3.33-3.12c0.42-0.42,0.83-0.83,1.25-1.25l1.46-1.46
		c3.74-4.16,6.45-9.57,6.86-9.98c0.21-0.42,0.42-0.62,0.83-0.83c0.83-0.42,2.91,0,4.78,0l6.03-0.83c2.5-0.21,8.53-1.66,10.61-2.91
		l3.54-1.87c-0.21,1.25-1.04,3.33-1.46,6.03c-0.42,2.29-0.21,4.99,0,6.86c0.83,4.16,2.08,7.9,3.95,10.81
		c0.62,0.62,1.25,1.25,1.66,1.87c3.12,3.74,8.32,7.49,12.89,9.15c0.62,0.21,2.29,0.62,2.7,1.04c0.83,0,1.46,0.21,2.29,0.42
		c0.62,0.21,1.46,0.42,2.5,0.42c0.62,0.62,8.11,0.21,8.73,0c1.46-0.21,2.7-0.42,4.16-0.62c0.83-0.21,3.12-0.83,3.74-1.04
		c1.46-0.42,3.74-1.25,5.2-1.87c0.83-0.42,1.46-0.83,2.29-1.25c0.42-0.21,0.83-0.42,1.25-0.42l1.04-0.83c0.62,0,2.91-1.46,3.74-1.87
		c0.62-0.62,3.12-2.08,3.54-2.5c0.83-0.42,2.91-2.08,3.95-2.7c1.25-1.25,2.5-2.29,3.74-3.33l3.74-3.33
		c1.25-1.04,2.29-2.29,3.54-3.54c2.08-1.87,6.45-6.86,8.11-9.15l2.5-3.33l-1.04,4.37c-1.04,5.2-0.42,9.57,1.87,13.93
		c0.83,1.46,2.5,3.54,3.74,4.78c1.46,1.04,2.08,1.25,3.33,2.08c0.62,0.42,1.04,0.62,1.87,1.04c1.25,0.42,3.12,1.04,4.58,1.25
		c0.62,0,1.46,0,2.29,0c1.04,0,2.08,0.21,2.91,0c1.04,0,2.7-0.42,3.54-0.62c0.62-0.21,1.04-0.42,1.66-0.62
		c0.62-0.21,1.25-0.42,1.66-0.62c1.04-0.42,2.7-1.25,3.74-1.87c0.62-0.42,1.04-0.62,1.66-1.04c0.62-0.42,1.04-0.83,1.66-1.25
		l1.87-1.66c0.83-0.42,1.46-1.25,2.08-1.87c1.25-1.46,2.5-2.7,3.54-4.16c0.62-0.42,2.5-3.12,2.91-3.74l1.66-3.12
		c0.42-0.42,0.42-0.62,0.62-1.25H418.17z M258.86,328.92l-6.03,7.49c-0.11,0.11-0.17,0.16-0.21,0.18c0,0.01,0,0.01,0,0.03
		c-0.42,0.42-0.42,0.42-0.83,0.83c-3.33,3.33-10.4,7.49-15.18,8.11c-1.04,0-1.25,0.21-2.08,0.21c-0.62,0-1.04-0.21-1.87-0.21
		c-0.83-0.21-2.91-0.62-3.33-0.83c-0.83-0.42-1.04-0.42-1.66-0.83c-1.66-1.04-3.12-2.08-3.95-3.95c-3.12-5.41-2.29-10.81,1.04-16.22
		c1.46-2.29,2.7-4.16,4.58-6.03c0.42-0.21,0.42-0.42,0.83-0.83c0.21-0.42,0.62-0.62,0.83-1.04c1.25-0.83,0.83-1.04,2.7-1.04
		c0.42,0.42,3.12,2.29,3.74,2.7c5.2,3.33,8.74,4.37,14.35,6.24c0.42,0,1.25,0.21,1.87,0.42c1.46,0.42,5.41,0.83,6.45,1.66
		C260.11,327.25,259.69,327.46,258.86,328.92z M262.81,321.22c-0.21,1.25-0.62,1.25-0.62,1.87c-1.66,0.83-2.29,0.42-5.2-0.21
		l-5.2-1.25l-4.78-1.66c-2.08-0.62-11.02-5.2-11.65-7.49c1.25-1.66,5.41-3.12,7.28-5.82c3.12-4.16-0.21-9.98-5.82-8.74
		c-0.83,0-2.7,0.62-3.12,1.04c-1.04,0.62-3.54,2.7-4.37,2.7c-0.21-0.21-0.21,0-0.42-0.21c0-1.66-0.42-0.62,0-3.74
		c0.42-2.5,2.08-5.2,3.74-6.86c0.42-0.42,0.62-0.62,1.04-1.04c1.46-1.04,1.66-1.46,3.54-2.5c1.46-0.83,2.91-1.25,4.78-1.66
		c1.87-0.21,4.16,0.21,5.62,0.42c1.87,0.42,3.33,1.04,4.99,1.46c0.42,0.42,3.74,1.66,6.45,3.95l2.5,2.7c0.62,0.62,0,0.21,0.62,0.62
		c0.21,0.62,2.08,2.91,3.12,6.03c1.87,5.82,1.04,7.28,0.21,11.65c-0.42,2.5-1.04,4.78-2.08,7.07
		C263.23,320.18,263.23,320.6,262.81,321.22z M414.63,328.92l-1.25,2.08c-0.42,0.42-0.42,0.21-0.62,0.83
		c-0.62,0.42-3.54,4.37-5.62,6.03c-0.42,0.42-0.62,0.62-1.04,1.04c-0.21,0.21-0.42,0.21-0.62,0.62c-0.21,0.21-0.21,0-0.21,0.21
		c-0.83,0.21-2.7,1.66-3.33,2.29c-0.62,0.21-1.25,0.62-1.87,0.83c-0.62,0.42-1.04,0.62-1.87,1.04c-1.87,0.62-2.08,1.04-4.99,1.46
		c-0.83,0.21-1.25,0-1.87,0.21c-1.04,0-1.66,0-2.7,0c-0.83-0.21-1.87-0.42-2.5-0.62c-1.66-0.62-2.08-0.62-3.74-1.87
		c-3.54-2.7-5.2-7.7-4.37-12.48c0.42-2.91,2.08-5.82,3.54-8.11c2.08-3.12,4.37-5.2,5.2-6.24c0.42-0.42,1.25-1.46,1.87-1.46
		c0.83-0.21,1.04,0,1.46,0.21c0.62,0.42,0.21,0.42,1.25,0.62c0,0.42-0.21,0,0.21,0.42l3.33,2.29c1.25,0.83,2.7,1.46,4.16,2.29
		c1.46,0.62,2.91,1.25,4.58,1.66c1.46,0.62,3.33,1.25,4.99,1.46c1.04,0.42,2.5,0.62,3.74,1.04c1.25,0.21,2.7,0.42,3.95,1.04
		C416.3,327.04,415.67,327.46,414.63,328.92z M415.67,323.51c-0.62-0.21-1.66-0.42-2.5-0.42c-1.46-0.42-3.33-0.83-4.58-1.25
		c-2.29-0.42-7.49-2.5-9.57-3.54c-1.46-0.83-2.91-1.66-4.16-2.5c-0.83-0.62-1.04-0.83-1.87-1.46c-1.87-1.87-2.91-1.46,2.91-5.2
		c6.86-4.37,3.74-11.23-1.46-11.44c-0.62,0-2.29,0.21-2.91,0.42c-0.42,0.21-0.21,0-0.21,0.21c-1.25,0.21-3.33,1.66-4.37,2.5
		c-0.42,0.21,0,0-0.21,0.21c-0.83,0.42-0.62,0.62-1.66,0.62c-0.62-1.25-0.21-3.54,0-4.78c0.42-1.66,1.04-2.7,1.87-3.95
		c0.83-1.04,1.46-1.87,2.5-2.91c0.42-0.42,0.83-0.83,1.46-1.25l1.66-1.25c4.58-1.87,5.2-2.7,12.06-1.25l3.74,1.25
		c0.42,0.21,4.16,1.66,6.66,3.95c0.62,0.62,1.25,1.25,1.87,1.87c1.46,1.66,2.91,3.74,3.95,6.03c2.08,5.41,1.87,7.49,0.83,12.48
		c-1.04,4.78-1.25,5.2-2.91,9.57c-0.21,0.62-0.42,1.04-0.83,1.66C417.13,323.72,416.92,323.72,415.67,323.51z"/>
	<path class="st1" d="M252.62,336.58C252.6,336.5,252.52,336.64,252.62,336.58L252.62,336.58z"/>
	<g>
		<path class="st1" d="M334.98,385.9c-0.42,0.21-0.42,0.42-0.83,0.62c0-1.25,0-2.29,0.62-3.12c1.87-2.7,5.82-1.66,8.32-3.12v-0.83
			c-0.62,0-0.83,0.21-1.66,0.42c-3.54,0.62-8.74,0.62-8.74,6.45c0,2.7-0.42,4.99,1.66,6.66c3.74,3.12,9.57,0.62,9.57-3.12v-0.83
			C343.92,385.28,338.1,383.2,334.98,385.9z M338.51,393.18c-3.54,0-5.2-2.91-4.16-5.2c0.21-0.42,0.21-0.21,0.42-0.62
			c2.29-3.12,7.9-1.46,7.9,2.08C342.67,391.52,340.8,393.18,338.51,393.18z"/>
		<path class="st1" d="M353.28,384.65c-2.29-0.42-3.74,0.83-4.78,1.66v-1.46h-1.46v12.89h1.46v-5.2c0.83,0.62,1.66,1.87,4.16,1.87
			C358.9,394.43,360.56,385.9,353.28,384.65z M356.82,389.85c0,4.37-8.32,4.78-8.32-0.42c0-5.41,8.32-4.58,8.32-0.42V389.85z"/>
		<path class="st1" d="M365.34,384.45c-1.87-0.21-3.74,1.04-4.58,2.08c0.42,0.21,0.42,0.42,0.83,0.62c1.46-1.04,1.66-1.46,3.54-1.46
			c2.5,0,2.7,1.87,2.7,3.54c-2.91,0-7.49-0.83-7.49,2.7c0,2.08,3.12,3.12,5.82,2.08c1.04-0.42,0.83-0.62,1.66-0.83
			c0,1.04-0.21,1.04,0.83,1.04c0.42,0,0.42,0,0.42-0.42v-6.03C369.09,385.69,367.22,384.86,365.34,384.45z M367.01,392.35
			c-0.62,0.42-1.46,0.83-2.29,0.83c-1.04,0-3.33,0-2.91-1.87c0.21-1.66,3.95-1.04,6.03-1.04
			C367.84,391.31,367.63,391.93,367.01,392.35z"/>
		<path class="st1" d="M308.57,385.9c-3.95-3.12-9.57-0.42-9.57,3.54c0,2.91,2.7,4.99,5.82,4.99
			C309.81,394.43,312.31,388.81,308.57,385.9z M307.53,392.35c-2.08,1.87-7.07,0.83-7.07-2.91c-0.21-2.08,1.87-3.74,4.16-3.74
			c2.5,0,4.37,1.66,4.37,3.12C308.98,390.48,308.98,390.89,307.53,392.35z"/>
		<path class="st1" d="M318.97,389.44c0,4.58,6.03,6.45,9.36,3.74c2.08-1.66,2.29-4.37,1.25-6.24
			C326.24,382.37,318.97,384.65,318.97,389.44z M327.49,392.35c-2.29,1.87-7.07,0.83-7.28-2.91c0-2.08,2.08-3.74,4.16-3.74
			c2.5,0,4.58,1.66,4.58,3.12C328.95,390.48,328.95,390.89,327.49,392.35z"/>
		<path class="st1" d="M224.13,386.94c-1.04,1.04-3.74,4.58-4.58,4.99v-7.07h-1.25v9.57c1.25,0,1.04-0.62,2.08-1.66
			c0.42-0.42,0.42-0.42,0.83-0.83l4.37-4.99v5.82c0,1.25-0.21,1.46,0.83,1.46c0.42,0,0.62,0,0.62-0.42v-8.94
			C227.04,383.41,224.75,386.53,224.13,386.94z"/>
		<path class="st1" d="M447.29,386.94c-0.42,0.42-0.62,0.62-1.04,1.04l-1.66,2.08c-0.62,0.62-1.04,1.46-1.87,1.87v-7.07h-1.46v9.57
			c1.25,0,1.04-0.62,2.08-1.66l5.41-5.82v7.28c0.83,0,1.25,0.21,1.25-0.42v-8.94C449.99,383.41,447.91,386.32,447.29,386.94z"/>
		<path class="st1" d="M279.24,384.86c-0.83,0.21-2.29,1.04-2.5,1.87c0.62,0.21,0.42,0,0.83,0.42c0-0.21,3.74-3.12,6.45-0.62
			c1.04,1.04,0.83,1.04,1.46,2.08h-5.2v1.25h5.2c-0.21,2.91-3.74,4.16-6.45,2.91c-0.42-0.21-1.04-0.83-1.46-1.04l-0.83,0.62
			c2.5,3.74,9.98,2.08,9.98-2.7v-0.83C286.73,386.11,283.19,383.61,279.24,384.86z"/>
		<path class="st1" d="M414.43,384.45c-0.83,0.21-3.74,3.74-4.37,4.78l-2.7,2.91v-7.28h-1.46v9.15c0,1.46,1.87-0.83,1.87-1.04
			c0.42-0.42,0.62-0.62,1.04-1.04c0.42-0.42,0.42-0.62,0.83-1.04l2.7-2.91c0.42-0.42,0.62-0.62,1.04-1.04v5.82
			c-0.21,1.25-0.21,1.46,0.83,1.46c0.21,0,0.42,0,0.42-0.42v-8.94C414.63,384.24,414.63,384.86,414.43,384.45z"/>
		<path class="st1" d="M423.99,389.23v-0.21c0,0.21,1.25-0.83,1.25-1.66c0-1.87-0.83-2.7-3.33-2.91c-1.25,0-3.12,0.62-3.95,1.87
			c0.42,0.21,0.62,0.42,1.04,0.42c1.25-0.83,1.04-1.04,2.91-1.04c2.5,0,3.12,2.91-0.83,2.91h-0.83v1.04c1.87,0,4.16-0.21,4.16,2.08
			c0,1.25-1.66,1.46-2.7,1.46c-2.08,0-2.08-0.62-3.12-1.46c-0.42,0.42-0.62,0.42-0.83,0.83c1.25,2.5,6.66,2.7,7.9,0
			C426.28,390.89,425.24,389.44,423.99,389.23z"/>
		<path class="st1" d="M231.82,385.9c0,1.66-0.21,3.33-0.42,4.78c0,0.83-0.42,1.46-0.62,1.87c-0.83,1.04-1.66,0-1.66,1.25
			c0,0.83,2.7,0.83,3.54-2.5l0.42-5.62h4.37v8.11c0,0.62,1.46,0.62,1.46,0v-8.94h-7.07V385.9z"/>
		<path class="st1" d="M436.06,388.61h-5.82c0-3.95,0.42-3.95-0.83-3.95c-0.42,0-0.42,0-0.42,0.42v8.74c0,0.62,1.25,0.62,1.25,0
			v-4.16h5.82v4.58h1.25v-9.57C435.85,384.65,436.06,384.24,436.06,388.61z"/>
		<path class="st1" d="M378.24,389.23c0.83-1.04,1.25-0.42,1.25-2.5c0-1.66-1.87-2.08-3.33-2.29c-1.25,0-2.91,0.62-3.74,1.87
			c0.21,0.21,0.42,0.21,0.83,0.42c1.25-0.83,1.46-1.04,3.12-1.04c2.5,0,2.91,2.91-0.83,2.91h-1.04c0,1.66,0.83,0.83,2.5,1.25
			c2.7,0.42,2.29,3.33-1.04,3.33c-0.62,0-1.25,0-1.66-0.21c-0.21-0.21-0.62-0.42-0.83-0.42c-0.42-0.42-0.21-0.21-0.42-0.83
			c-0.62,0.21-0.62,0.21-1.04,0.83c0.21,0.42,0.21,0.42,0.62,0.62c3.12,2.29,7.49,1.04,7.49-1.46
			C380.11,390.48,379.49,389.44,378.24,389.23z"/>
		<path class="st1" d="M202.91,386.11c0.42,0.21,1.04,0.83,1.46,1.04l0.83-0.62c-1.66-2.29-7.07-3.12-9.36,0.42
			c-2.29,3.54,0.83,7.49,4.58,7.49c1.87,0,3.95-0.83,4.58-1.87c-0.21-0.62-0.21-0.42-0.62-0.83c-1.46,1.04-1.87,1.46-3.95,1.46
			c-1.87,0-3.95-1.46-3.95-3.33v-0.83C196.47,386.73,200,384.65,202.91,386.11z"/>
		<path class="st1" d="M247.63,388.19h-3.54v-3.54c-1.04,0-1.25-0.21-1.25,0.42v8.74c0,0.83,1.25,0.42,3.54,0.42
			c1.04,0,2.08-0.21,2.91-0.42C251.79,392.35,250.96,388.19,247.63,388.19z M247.21,393.18h-3.12v-3.95c2.29,0,5.41-0.42,5.41,2.08
			C249.5,392.35,248.25,393.18,247.21,393.18z"/>
		<path class="st1" d="M206.66,385.69h3.95v8.11c0,0.62,1.25,0.62,1.25,0v-8.11h3.95v-0.83h-9.15V385.69z"/>
		<path class="st1" d="M389.05,384.65c-0.21,0-0.42,0-0.62,0.21l3.74,3.12c0.21,0.21,0.83,0.83,1.04,1.04l-4.16,3.95
			c-0.62,0.83-1.87,1.25,0,1.25c1.04,0,2.29-1.87,3.12-2.5c0.83-0.62,2.08-1.87,2.7-2.7l-3.95-3.54
			C390.09,384.86,390.51,384.65,389.05,384.65z"/>
		<polygon class="st1" points="288.18,385.69 292.34,385.69 292.34,394.22 293.38,394.22 293.38,385.69 297.34,385.69 
			297.34,384.86 288.18,384.86 		"/>
		<path class="st1" d="M401.95,392.56l-2.29-2.29c-0.42-0.42-0.83-0.62-1.46-1.25c0.42-0.42,4.37-3.74,4.78-4.16
			c-1.25-0.83-2.29,0.62-2.5,0.62l-1.25,1.25c-0.21,0.21-0.42,0.21-0.62,0.42l-1.87,1.87c0.21,0.62,0.83,1.04,1.25,1.46l1.46,1.25
			c1.46,1.25,1.66,2.5,3.54,2.5C404.44,394.22,402.16,392.77,401.95,392.56z"/>
		<path class="st1" d="M395.08,392.14c0,2.08-0.42,2.08,1.25,2.08v-9.57l-1.25,0.21V392.14z"/>
		<rect x="259.28" y="387.57" class="st1" width="9.15" height="1.04"/>
	</g>
	<g>
		<path class="st1" d="M538.17,218.48c-0.83-0.83-2.91-2.29-3.74-2.91c-2.7-1.87-5.82-3.33-8.53-4.99
			c-2.7-1.46-12.69-6.45-15.81-7.7l-6.86-3.33c-1.46-0.83-2.7-1.87-4.16-2.5c-3.74-1.87-7.28-4.16-10.81-6.03
			c-0.62-0.42-1.66-0.83-2.08-1.25c-1.25-0.83-0.83-1.04-1.04-2.5c-0.62-3.95-0.62-5.41-1.04-9.36c-0.21-2.08-0.62-3.95-0.62-6.24
			c-0.21-1.66-1.46-1.04-1.25-3.95c0-0.42,0.21-0.83-0.21-1.46l0,0c0-2.29-1.04-5.82-1.46-9.15c-0.21-1.04-0.62-3.74-0.83-4.58
			c-0.83-1.87-2.29,0-1.25-3.54c0.42-2.08,1.66-3.74,0.42-3.54c-0.62,0.21-1.87,1.66-3.12,2.5c-0.62,0.21-1.25,0.42-1.66,0.83
			c-2.5,1.25-1.04,0.42-2.91,0.21c-1.04-0.21-3.12-0.42-3.95,0c0-1.25,0.21-1.87,0.21-3.12c-0.83,0.62-1.66,1.46-2.08,2.5
			c-2.91,0-5.2-0.42-8.32-0.62c-2.7,0-6.86,0.62-8.53,0.62c-1.66,0-3.74,0.21-4.99,0.42c-1.04,0.21-1.66,0.21-2.5,0.42
			c-1.04,0.21-1.46,0.21-2.5,0.42c-0.62,0-1.46,0.42-2.29,0.42l-11.44,2.7c-2.7,1.04-3.54,1.04-6.24,2.5
			c-2.29,1.25-4.99,1.66-7.9,3.33c-0.62,0.42-1.25,0.62-1.87,0.83c-0.62,0.42-1.04,0.83-1.66,1.25c-2.5,1.46-6.66,3.12-6.03,7.9
			c0.21,2.29,1.04,5.62,1.04,7.28c0,0.83,0.21,1.87,0.42,2.7c0.62,2.29-0.42,1.25,0.62,4.78c0.62,2.7-1.25,2.29-0.42,4.37
			c-0.21,0.21-0.21,0.21-0.62,0.42c-1.04,1.04-2.5,2.5-1.04,3.95c0.42,0.42,0.83,0.83,1.04,1.25c0,0.62-0.21,0.42-0.42,1.04
			c0,0.62,0,1.04,0.21,1.46c0.21,0.62,0.83,1.46,1.66,1.46c0.31-0.21,0.42-0.26,0.49-0.34c-0.08,0.08-0.18,0.13-0.49,0.34
			c0.83,0.42,1.04,0,1.46,0.83c0,0.21,0.21,1.66,0.21,1.87c0.21,2.5,0.42,1.87-1.25,2.91c-4.99,3.54-8.11,7.28-12.48,11.65
			c-0.62,0.42-0.62,0.62-1.04,1.04c-0.83,0.83-1.46,1.46-2.29,2.29c-0.42,0.42-0.62,0.62-1.04,1.04c-0.42,0.42-0.62,0.83-1.04,1.25
			c-1.46,1.46-3.12,2.91-4.37,4.58l-12.27,11.85c-1.25,1.04-7.07,5.62-7.28,6.03c-3.54,4.16,1.87,7.07,4.78,8.53
			c7.07,3.33,6.66,2.29,13.31,4.16c1.25,0.42,2.08,0.83,3.33,1.04c1.46,0.42,2.5,0.42,3.74,0.83c1.04,0.42,2.29,0.42,3.54,0.83
			c1.25,0.21,2.7,0.62,3.95,0.62l0.62,0.21c0.21,0,0.62,0,0.83,0l4.99,0.62c1.04,0,1.87,0.42,2.91,0.42c1.66,0,2.29,0,3.54,0.21
			c2.7,0.42,13.1-0.42,14.35,0.21c0.21,0.21-0.21,0.83-0.21,0.83l-2.08,4.78c-0.42,0.62-0.83,1.04-0.83,2.08
			c-1.04-0.21-1.66-1.25-2.5-1.66c-0.42-0.42-1.04-0.42-0.83,0.42c0.21,1.04,2.7,2.29,3.54,2.91c2.91,2.29,7.49,5.41,10.19,7.9
			c0.42,0.42,0.83,0.62,1.25,1.04c0.62,0.62,1.25,1.25,2.08,1.87l2.08,1.87c1.25,1.46,2.7,2.7,3.95,4.16l7.28,9.36
			c0.21,0.21,2.29,4.16,2.7,2.7c0-0.62-2.08-3.54-2.29-3.95l-6.45-7.9l-6.03-6.24c-0.42-0.21-0.62-0.42-1.04-0.83
			c-2.29-2.5-8.53-7.28-11.23-9.36c-0.62-0.42-1.66-1.25-2.29-1.66c0-0.42,0.21-0.62,0.62-0.83l1.66-3.12
			c0.62-1.04,1.46-3.33,2.08-4.16c0.83-1.04,1.25-0.21,2.08-1.04c0.42-0.21,1.25-1.04,1.46-1.66c0.83-1.46,1.25-3.12,0.62-4.78
			c-0.83-2.5-2.5-7.07-2.91-9.57c0-1.25,0.21-1.87,0-2.7c0-0.62-0.62-1.46-1.46-1.66c-2.5-0.62-2.29,2.08-3.33,2.7
			c-0.42,0.21-1.46,0-2.08-0.42c-1.04-0.62-1.46-2.29-1.87-3.54c-1.66-3.54-1.25-2.7,1.46-4.99c1.04-0.83,2.08-1.66,3.33-2.29
			c2.29-1.66,4.58-2.91,6.45-4.78c1.04-1.04,1.87-1.87,2.7-2.91l1.46-2.7c0.42-0.83,0.21-0.21,0-1.25
			c-1.87,0.42-0.62,1.87-4.58,5.62c-3.12,3.12-6.24,4.58-8.74,6.66c-1.46,1.25-4.37,3.12-5.2,4.78c-0.62,1.46-1.46,2.29-1.25,3.74
			c0.83-0.21,2.08-2.5,2.29-3.54l1.25,3.12c1.04,2.08,1.87,3.54,4.58,3.74c1.04,0,1.25,0.42,2.08,0.62
			c0.62,0.21,0.62-0.21,0.83,0.42c0.21,1.04-1.66,5.62-1.87,6.45l-0.62,3.33c-0.42,1.66,0.21,2.29,0.21,3.74
			c-0.62,0-2.29,0.21-2.91,0.21c-2.29,0.42-9.36,0-11.85-0.42c-2.29-0.21-2.08-0.21-4.16-0.21c-0.62,0-0.83-0.21-1.46-0.21
			c-0.83-0.21-3.95-0.42-5.62-0.62c-1.04-0.21-1.46-0.42-2.5-0.62c-4.16-0.83-5.82-1.25-9.98-2.5l-4.58-1.25
			c-0.62-0.21-1.66-0.62-2.08-0.83c-3.54-1.04-2.7-0.62-6.03-2.08c-2.29-0.83-5.62-2.08-6.45-4.37c-0.42-1.46,0.42-1.66,2.29-2.91
			l6.45-4.37c1.66-1.04,5.62-2.5,7.49-3.33c1.46-0.62,2.29-1.25,3.74-1.66c2.08-0.83,1.25-0.42,3.95-1.46l12.06-4.58
			c1.25-0.42,2.7-0.62,4.16-1.04c0.62-0.42,1.25-0.62,2.08-0.83l2.08-0.62c0.83,0,0.83-0.42,1.66-0.42c0,1.46,0,2.5-0.42,3.74
			c-1.04,4.78-1.46,6.24,0,10.81c0.42,0.83,1.04,1.87,1.46,2.7c0.21,0.42,0.42,0.83,0.62,1.46c0.21,0.83,0.21,0.83,0.62,1.46
			c1.25,1.46,1.87,2.08,3.33,2.91c0.83,0.42,0.62,0.62,1.46,0.42c0-1.04-0.83-0.83-2.08-1.66c-1.25-0.83-2.08-2.29-2.5-3.74
			c-0.62-1.87-1.04-1.87-0.21-4.78c0.42-2.08,1.46-3.95,2.7-5.41l2.7-3.33c0.42-0.62,0.42-0.62,0.42-1.66
			c-1.04,0-1.04,0.62-2.5,2.29c-2.7,3.74-2.91,3.54-4.16,7.7c-0.21,0.62-0.42,1.25-0.42,2.08h-0.42c0-1.25-0.83-2.08-1.04-3.54
			c-0.62-4.16,2.08-10.81,2.29-11.85h0.19c0.01,0,0.01,0,0.02,0c0,2.08-1.46,5.2-1.66,6.03c-0.21,1.04-0.42,0.62-0.21,1.87h0.42
			c0-0.62,0-0.42,0.21-0.83c0-0.62,0-0.21,0.21-0.42v-0.62c0.21,0.21,0.21-0.42,0.21,0.42c-0.21,0.21-0.21,0-0.21,0.21
			c0,0.83,0,0.42-0.21,0.42c0,1.04-0.62,1.87-0.42,3.95c0,1.04,0.62,1.25,0.83,0.62s-0.42-1.87,1.04-5.82
			c0.21-1.04,1.04-2.29,1.04-3.33c-0.42,0-0.42,0-0.83,0c0-0.62,0.42-1.25,0.62-1.66c0.1-0.29,0.15-0.49,0.18-0.65
			c0.01,0,0.01,0,0.02,0c0,0,0,0,0,0l-0.02,0c0.13-0.52,0.11-0.48,1.06-0.8l12.89-2.91c-0.21,1.04-1.04,2.29-1.46,2.91
			c-0.42,0.83-1.25,2.08-2.08,2.29c0.62-1.04,1.46-1.66,2.08-2.7c0.42-0.62,0.42-0.62,0.42-1.46c-1.25,0-0.83,0.42-1.46,1.46
			l-2.5,2.91c-0.83,0.62-0.83,0.42-1.46,1.46c1.04,0.62,0.62,0,1.25-0.21c0.21,0,0.83,0.42,2.29-0.83c5.62-5.41,2.5-5.62,5.62-6.24
			c0.62-0.21,1.66-0.21,2.5-0.42c0.83,0,1.66-0.21,2.7-0.42c1.66-0.42,2.91-0.62,4.78-1.04c1.87-0.21,3.54-0.42,5.2-0.83l10.4-1.46
			l5.2-0.42c0.83-0.21,1.66,0,2.7-0.21c0.62,0,1.87-0.21,2.5-0.21c3.33-0.42,7.28-0.83,10.4-0.83c2.08,0,3.54-0.21,5.2-0.42
			c2.7-0.21,5.82,0,8.53,0c2.91,0,5.2,0.62,8.11,0.62c1.46,0,3.74,0,5.2,0.21l10.61,0.62c0.83,0,1.46,0.21,2.5,0.21l7.7,0.83
			c0.83,0.21,1.25,0.42,2.29,0.62c0.83,0.21,1.66,0.21,2.5,0.21c0.83,0.21,1.46,0.42,2.29,0.62c1.04,0.21,1.25,0.42,2.08,0.62
			c2.08,0.62,1.87,0,4.16,1.46c-0.21,2.91-3.12,4.99-4.58,7.07c-0.62,0.62-2.29,2.29-2.91,2.91c-1.04,0.83-2.08,1.66-3.33,2.5
			c-0.62,0.42-1.04,0.83-1.87,1.25l-5.2,3.33c-1.25,0.62-1.46,1.04-2.91,1.66c-0.42,0.21-0.42,0.21-0.83,0.62
			c-0.62,0.42-1.46,0.42-2.08,0.83l-6.03,2.91c-2.08,0.83-4.16,1.46-6.03,2.7c-1.04,0.62-1.04,0.42-2.08,0.83l-8.32,3.33
			c-1.46,0.62-2.7,1.04-4.16,1.66c-1.66,0.83-6.45,3.54-8.32,3.54c0-0.62,0.21-0.83,0.21-1.25c0.21-0.42,0.21-0.62,0.42-1.25
			l2.08-6.86c0.62-1.46,0.83-2.91,1.66-4.37c0.62-1.46,1.87-5.41,2.08-6.86c0.62-3.74,1.04-4.16,1.04-8.11c0-2.08,0-3.95,0-6.03
			c0-2.29-0.21-3.74-1.66-4.58c-0.62,1.04,0.42,1.04,0.62,3.54c0,0.83,0,1.25,0,2.08v7.28c0,1.46-0.42,2.5-0.62,3.95
			c-0.42,2.91-1.04,4.99-2.08,7.49c-0.62,1.25-1.25,3.74-1.66,5.41c-0.21,0.62-0.62,1.04-0.83,1.66c-0.83,2.91-1.87,6.03-2.5,9.15
			l-1.46,5.82c-0.42,1.25-0.83,2.29-1.25,3.54c-0.83,3.12-2.91,3.33-5.82,3.74c-0.83,0-1.46,0-2.29-0.21
			c-0.83-0.21-1.25-0.21-2.29-0.21c-1.66,0-9.78-1.66-11.65-2.5c-0.62-0.21-1.25-0.42-1.66-0.62c-0.62-0.42-1.25-0.42-1.87-0.83
			l-5.82-3.54c-1.04-0.62-1.87-1.25-2.91-1.87c-0.83-0.62-1.87-1.25-2.7-2.08c-0.42-0.42-0.83-0.62-1.25-1.04
			c-0.42-0.42-1.25-1.04-1.04,0c0,0.62,0.62,0.83,1.04,1.04l3.95,3.33c1.04,0.62,1.87,1.25,2.91,1.87l6.03,3.33
			c1.87,1.04,5.62,1.87,7.07,2.7c0,0.83-0.62,1.46-0.62,2.5l-2.5,19.13c0,0.62,0.21,0.62,1.04,0.62l1.25-11.65
			c0.62-3.95,0.21-3.95,1.46-8.11c0.21-0.42,0.62-1.87,0.83-2.29c0.83,0,1.87,0.21,2.7,0.42c3.33,0.62,11.44,2.08,13.93-1.25
			c0.83-1.04,1.46-3.33,1.87-4.78c0.21-1.04,1.04-4.78,1.46-5.2c0.21-0.21,1.87-0.83,2.5-0.83l11.85-5.2
			c0.83-0.21,1.46-0.62,2.29-0.83l11.85-4.99c1.66-0.62,3.12-1.46,4.58-2.08c2.29-0.83,2.5-1.04,4.58-2.08
			c2.5-1.46,4.99-2.91,7.28-4.37c0.62-0.21,0.62-0.42,1.25-0.62c2.91-1.66,9.98-7.28,12.06-9.77c1.04-1.25,2.29-2.29,2.7-3.95
			C538.38,220.98,539,219.73,538.17,218.48z M422.54,242.81c-0.62,0-1.66-1.46,0.62-2.91c0.83,0.62,0.83,0.42,0.83,1.66
			C423.99,242.19,423.37,242.81,422.54,242.81z M422.75,249.68c0.21-0.83,0.42-1.46,0.62-2.29c0.21-0.62,0.62-2.08,0.62-2.7h0.42
			c0,3.74,4.37,7.9,1.87,12.69c-1.25,2.08-4.16,2.29-4.58-1.04c0-0.42-0.21-1.04-0.21-1.46
			C421.5,253.42,422.33,250.92,422.75,249.68z M368.46,249.89c1.66,0.83,6.86,2.29,8.32,2.7c0.21,0.21,1.87,0.62,2.29,0.83l2.5,0.62
			c1.66,0.42,3.33,1.04,4.99,1.46c5.2,1.25,11.23,2.29,16.64,2.5l5.82,0.62c2.08,0.42,4.37-0.21,6.24,0.21
			c1.87,0.21,4.16-0.42,6.24,0v0.42c-4.58,0-8.94,0.42-13.31-0.21l-6.24-0.42c-3.12-0.21-3.95-0.62-6.45-0.62l-9.57-2.08
			c-0.83-0.21-1.46-0.42-2.08-0.62c-0.83-0.21-1.66-0.21-2.5-0.62l-6.86-1.66c-0.83-0.21-1.25-0.62-2.08-0.83
			c-2.5-0.62-6.86-2.7-8.74-4.37c-0.83-0.83-1.04-0.42-1.46-1.66c-0.21-0.62-0.21-0.62,0.21-0.83
			C362.64,247.39,366.59,249.05,368.46,249.89z M482.43,171.89c0.21,1.04,0.21,4.16,0.21,5.41h-0.21c0-0.83,0-1.46-0.21-2.29
			c0,0-0.21-1.04-0.21-1.25c-0.21-0.62,0-0.42-0.62-0.62c-0.42,0.62-0.21,0.42-0.21,1.25h-0.21c0-0.42,0-1.04-0.21-1.46
			c0-0.62-0.21-0.62-0.83-0.83c-0.21,1.25,0.62,2.08,0.62,3.54l-0.21-0.42c-0.62,0.42-0.62,0.83-0.42,1.46
			c0.21,0.83,0.21,1.46,0.42,2.08c0.21,1.25,0.42,2.29,0.62,3.74c0,0.62,0,1.46,0.21,1.87c0.83,5.62-0.62,4.78,1.66,4.78
			c0.21-0.83,0.21-0.21,0-1.25c0.42,0.42,0.21,0.21,0.83,0.42c0.21-1.66-0.42-2.29-0.42-4.16l0.21,0.62c0,0.21,0.21,0.42,0.21,0.62
			c0,0.42,0.21,1.04,0.21,1.46c0.21,2.91,0,1.04,0.42,2.7c-1.04,0.42-4.37-0.21-6.03-0.21c-1.87-0.21-4.58,0-6.45-0.21
			c-2.5-0.42-9.77-0.42-12.89-0.42c-3.12,0-7.28,0.21-10.19,0.83c-1.04,0-3.95,0.21-4.78,0.62c-0.83,0.42-0.42,0.62-1.87,0.83
			c-1.87,0-1.04-0.42-0.83-1.04c-0.83-1.46-0.42-1.66,0-2.08c0.62-1.04-0.21-1.25-0.21-2.29c0.62,0.21,0.42,0.21,0.83,0.83
			c1.04,0.83,2.7,1.46,3.95,1.66c2.29,0.42,3.95,0.83,6.86,0.83c0-1.87-0.83-2.08-1.46-3.33c-0.83-1.25-2.91-3.33-4.16-3.95
			c-0.62-0.42-1.25-0.83-2.08-1.04c-1.87-0.62-2.08-0.83-3.54-1.46c-1.04-0.42-2.08-1.25-2.5-2.29c0.62-0.42,1.46-0.42,2.5-0.62
			c2.7-0.42,6.66-1.87,7.49-1.87c0.83,1.25,1.25,2.5,1.66,4.16c0.21,1.87,1.25,2.91,2.5,3.74c1.46,1.25,1.66,1.66,4.58,1.66
			c1.66,0,2.5,0.21,3.95,0.62c0.83,0.21,0.42,0,1.25,0c0-1.04-0.21-0.62-1.04-1.87c-1.04-1.66-1.66-3.12-3.74-4.78l-4.58-2.29
			c-0.42,0-0.83,0-1.25-0.21c-0.62-0.42-0.83-1.04-1.66-1.25v-0.62c2.08-0.62,3.74-2.5,4.78-2.29c0.62,0,0.42,0.21,1.46,0.21
			c1.87,0,2.29,0.83,2.91,2.08c2.5,3.95,2.5,2.08,4.16,3.12c1.04,0.62,0.62,4.78,0.62,6.24c-0.21,0.21,0-0.21-0.42-0.62l-0.62-0.42
			c-0.21,2.08,0.21,1.25,0.21,2.5c-0.42,0.21-0.42,0.21-0.83,0.21c-0.21,0.42-0.21,0.62-0.21,1.25c-0.42-0.62-0.21-0.83-1.04-1.04
			c-0.21,0.62,0,2.29,0.21,3.12c0.83-0.42,0.42-0.42,1.04,0c0.83,0.21,0.42,0,1.25,0c0.21-0.62,0.42-1.87,0.42-2.5h0.21
			c0,1.04-0.21,1.87,0.62,2.08c0.42-0.83,0-1.46,0-2.5v-8.73c1.04,0,1.25-0.21,2.29-0.42h2.7c1.04,0,4.16,1.04,4.16-0.42
			c0-0.42-2.5-2.91-2.91-3.12c-0.62-0.42-1.25-0.83-1.87-1.25c-0.42-0.42-1.46-0.62-1.66-1.25c1.66-0.42,3.33,0.21,5.41,0
			c1.04-0.21,1.46,0,2.7,0c1.04,0.21,1.87,0.42,2.7,0.42h0.21l1.87,0.62C482.02,171.06,482.23,170.85,482.43,171.89z M482.23,186.24
			c0-0.83-0.21-0.83,0.42-1.46v1.46H482.23z M482.43,187.08v0.62c-0.21-0.42-0.21,0.42-0.21-0.42
			C482.43,187.08,482.23,187.28,482.43,187.08z M482.02,183.75c0,0.42-0.21,0.42-0.21,0.42v-1.66
			C481.81,182.71,482.02,182.92,482.02,183.75z M481.6,180.42c0,0.21,0,0.62,0,0.83c-0.21-0.42-0.21-1.04-0.21-1.66L481.6,180.42z
			 M481.19,177.3v1.46h-0.21v-1.46H481.19z M458.75,189.32c-0.05,0.11-0.11,0.16-0.2,0.23C458.65,189.48,458.7,189.43,458.75,189.32
			z M437.72,196.44c-1.87,0.42-3.33-0.62-4.78-1.25c0.42-0.62,0.42-0.62,1.04-1.04c2.29-1.66,4.78,0.83,4.16-1.04
			c-0.21-0.62-2.29-1.46-4.58,0.21c-1.04,0.83-0.83,1.04-1.66,1.04c-1.25-1.87,0.83-2.08,1.46-2.29c1.66-0.62,5.2-0.21,6.86,0
			c2.7,0.21,3.74-1.04,1.46,1.87C441.05,194.98,439.18,196.23,437.72,196.44z M438.34,198.1c-0.21,0-0.21,0-0.21,0
			c-0.62,0.21-0.62,0-1.25,0v-0.21C437.51,197.89,437.72,197.89,438.34,198.1z M435.64,197.68c-0.42-0.21-1.04-0.42-1.46-0.62
			c-0.21-0.21-0.21,0-0.42-0.21c0.62,0,0.83,0,1.04,0.21L435.64,197.68z M429.19,193.73c-0.21-0.62-0.62-1.04-0.83-1.66
			c-0.42-0.62-0.62-0.83-1.04-1.46c-0.62-1.25-0.42-2.91-0.42-4.78h0.21c0,2.29,0.21,3.74,1.04,5.62c0.42,0.83,0.42,1.04,1.04,1.25
			c0,0.42-0.21,0.21,0.83,1.04c0.83,1.04,0.83,1.04,2.08,1.87c0.42,0.42,0.83,0.42,1.04,0.83
			C431.69,196.23,430.23,194.56,429.19,193.73z M431.48,202.88c-0.21,0.62-0.62,1.04-0.62,1.66c-0.62-0.42-0.62-0.42-0.62-1.46
			c-0.42-2.91,0-3.95,0-6.24C431.69,197.68,432.1,200.8,431.48,202.88z M429.19,196.02v2.5c0,4.78,0.83,4.16,0.83,6.86
			c0,0.62-0.21,0.62-0.42,1.25c-0.42-0.42-0.62-0.83-0.83-1.46c-0.42-0.62-0.62-0.83-0.83-1.46c-0.83-1.46-1.04-2.08-1.04-3.95
			c0-1.46,0.83-1.66,1.66-2.91C428.78,196.44,428.78,196.02,429.19,196.02z M427.94,193.94h-0.62c0.21-0.42,0.21-0.42,0.21-1.04
			L427.94,193.94z M415.67,195.19c0,2.08,1.66,1.46,1.66,2.08c0,1.25-1.46,2.08-1.46,2.91c0,0.62,0.42,0.42,1.04,0.62
			c-0.62,0.83-1.25,0.62-2.7,0.62c0-2.08,0.62-2.29-0.42-2.29c-0.62,0-0.83,1.25-2.29,0.21c-0.62-0.62-0.62-0.83-0.62-1.66
			c0-1.46,1.25-0.83,1.25-1.87c0-0.42-2.91-1.87-1.04-3.12c0.62-0.62,2.08-0.21,2.7-0.42c1.25-0.42-1.46-1.25,1.46-2.7
			c1.25-0.62,1.25,0.83,2.29,0.83c0.83,0,0.62-1.66,1.46-1.66c0.62,0,1.04,1.04,0.83,1.66c-0.42,0.62-1.04,0.83-1.46,1.46
			c-0.21,0.42-0.83,1.87-1.04,2.08C416.92,194.15,415.67,193.94,415.67,195.19z M411.1,200.39l-4.37,0.83l-0.83-3.74
			c0.62,0.42,0.62,1.66,3.74,0.21c0,1.46,0.42,1.66,1.04,2.08C411.1,200.18,410.89,199.76,411.1,200.39z M408.4,183.96
			c-1.25,0-0.83,1.04-2.08,0c-3.12-2.08-0.42-3.54,0-3.95c-0.62-0.83-1.66-1.04-1.66-2.5c0.21-0.83,1.25-1.66,2.29-1.66
			c1.04,0,1.25,1.04,2.7,0.62c0-0.62-0.42-0.83-0.42-1.66c0-1.04,1.25-1.66,2.08-1.66c1.66,0,1.04,1.66,2.08,2.29
			c0.62-0.21,0.83-0.83,1.66-0.83s1.46,0.83,1.66,1.25c0.21,0.42,0,2.08,0,2.91c-0.62,0.21-0.83,0-2.08,1.46
			c-0.62,0.42-3.12,4.37-3.74,5.41c-0.21,0.62-0.21,0.83-0.62,1.25c-0.62-0.21-0.83-0.42-1.25-0.83c-0.62-0.83-0.21-0.62-0.21-1.66
			C408.81,184.16,408.6,183.96,408.4,183.96z M404.03,179.38h-0.42c0-0.83-0.21-1.46-0.21-3.54c0-1.04,3.95-1.87,4.78-2.08v1.25
			c-2.08-1.25-4.58,1.25-4.58,2.29C403.61,178.34,403.82,178.34,404.03,179.38z M403.61,181.46c0.21-0.83,0-0.42,0.42-0.83
			l-0.21,1.87h-0.21C403.61,182.29,403.61,181.67,403.61,181.46z M405.07,184.37h-0.83c-0.21-0.42,0-0.62-0.21-1.04
			C404.44,183.33,404.86,183.96,405.07,184.37z M424.2,162.33c-0.62-0.21-0.62-0.42-1.04-0.83c0-3.12,2.7-1.66,3.12-2.08
			c0.62-0.83-0.21-1.25-0.62-1.87c-0.42-1.04,0.21-1.46,0.62-2.08c2.29,0,2.5,2.29,3.54,1.46c0.21-0.42,0.21-1.04,0.21-1.66
			c0.83-0.62,1.66-0.62,2.91,0.21c0,3.54,0.62,0.62,3.12,1.87c0.21,0.62,0.42,0.83,0.42,1.66c-0.21,0.62-0.62,0.83-0.83,1.46
			c0.42,0.62,0.42,0.21,0.83,0.83c-0.21,0.83-0.83,0.83-0.62,2.08c0.21,1.04,0.83,1.04,1.04,1.87c-0.42-0.21-0.62-0.21-1.04-0.42
			h-0.42c-0.21,0-0.21,0-0.21,0c-0.42,0-0.42,0-0.62,0.42c-0.21,0.42,0,0.42,0,0.83c0.21,0.62,0.62,2.29-1.04,2.29
			c-0.83,0-0.83-0.21-1.25-0.62c-0.21-0.62-0.62-0.83-1.25-1.04c-0.62,1.04,0.21,0.42-1.04,2.08c-0.83,0-1.04,0-1.87-0.21
			c-0.62-2.29,0-1.46-0.21-2.29c-0.21-0.83-1.04,0.21-2.08,0.21c-0.83-0.21-1.04-0.83-1.04-1.87c0.21-1.25,0.83-0.62,0.83-2.08
			C425.24,162.54,424.62,162.33,424.2,162.33z M438.34,168.98c0,3.33,0.42,1.66,0.42,4.58c0,0.62-0.62,0.83-0.83,1.04
			c-0.83-0.62-0.83-1.46-1.46-1.87c-0.42-0.42-0.62-0.42-1.04-0.62c-1.25-0.83-0.21-2.5,0-3.12l0.42-1.04c0-0.21,0-0.21,0-0.21
			c0-0.21,0-0.21,0-0.21s0,0,0.21,0c0,0.82-0.13,2.03-0.08,3.01l0,0.01c0,0,0,0.01,0,0.01c0,0,0-0.01,0-0.01
			c0.01,0.26,0.04,0.51,0.08,0.72c0,1.25,1.04,1.46,1.66,1.87c0-1.46-0.83,0.83-0.83-4.78
			C437.72,168.36,437.72,168.77,438.34,168.98z M440.42,161.08c0,0,0,0-0.21-0.21c-0.21-0.42-0.42-0.62-0.42-1.25
			c0.21-1.66,2.7-2.29,3.74-0.62c0.42,0.83-0.21,1.66,0.83,2.08c1.46,0,0.42-2.91,2.7-2.5c2.08,0.42,1.25,3.12,1.25,3.54l0.62,0.42
			c1.66,0,2.29,0.21,2.29,2.08c0,0.42-0.42,1.46-0.83,1.66c-0.83,0.42-0.83,0-1.46,1.04c0.42,1.04,0.42,0.42,1.04,1.04
			s0.42,1.04,0.42,2.08c-0.42,0.21-1.46,0.83-2.29,0.83c-0.83-0.21-0.62-0.62-1.87-1.25c-0.21,0.83-0.21,0.21-0.62,1.04
			c-0.21,0.62,0,0.83-0.42,1.25c-0.62,0.62-1.87,0.62-2.08-0.42c0-1.04,0-0.21-0.21-1.04c-1.66,0-1.04,0.83-2.29,0.62
			c-0.83,0-1.25-0.83-0.83-1.66c0.21-0.62,1.25-1.66,0-1.87c-1.46-0.42-1.04,0.21-2.29-0.62c0-1.04,0-1.25,0.62-1.46
			c0.42-0.42,0.83-0.42,0.83-0.62c0.42-0.83-0.42-0.83-0.62-0.83c-0.42-0.21-0.42,0-0.83-0.42c-0.62-0.42-0.83-2.7,1.66-1.87
			c0.62,0.42,1.04,0.21,1.46-0.42C440.84,161.29,440.63,161.29,440.42,161.08z M452.9,158.38l1.04,1.87
			c0.42,0.83,0.62,1.66,1.04,2.29c0,1.04,0.42,1.87,0.42,2.91c-0.83-0.42-2.08-1.46-2.08-2.7
			C453.32,160.25,452.9,159.62,452.9,158.38z M467.25,159.83l-2.08,2.5c-0.68,0.82-3.4,3.23-5.56,4.92l-0.6,0.09l1.99-1.68
			c0.42-0.42,0.62-0.83,1.25-1.25l2.5-2.29C465.59,161.49,466.63,160.25,467.25,159.83z M475.58,164.93c0.01,0,0.03,0,0.04,0
			c0,0,0.01,0,0.01,0c0,0,0.01,0,0.01,0c0,0,0,0,0,0c0.02,0,0.04-0.01,0.06-0.01c0.01,0,0.02,0,0.02,0l0.03,0
			c0.88-0.03,1.7-0.03,2.52-0.31v-0.01c0-0.02,0-0.04,0-0.06v-0.34c-0.83-0.21-2.5-0.42-3.54-0.42c0.21,0.42,0.42,0,0.21,0.42
			c-1.87,0.42-4.58,0.21-6.86,0.21c0.21-0.62-0.21-0.21,0.42-0.62c0.62-0.21,4.58-1.66,5.41-1.66c1.91,0,4.26,1.6,5.35,2.25
			c0.02,0.01,0.04,0.02,0.05,0.03c0,0,0,0,0,0c0,0,0,0,0,0c0,0,0.01,0.01,0.01,0.01l0.01,0c0.18,0.1,0.31,0.18,0.4,0.21
			c-0.42,0.83-0.62,0.62-1.25,1.04c-0.62,0.62,0,0.42-1.46,1.04c-3.95,1.69-5.18,0.66-8.15-0.78c0.01,0,0.01,0,0.02,0c0,0,0,0,0,0
			l-0.02,0c-0.31-0.15-0.64-0.31-1-0.47l-0.83-0.42c3.33,0.21,3.33,0.62,7.28,0C474.76,164.97,475.18,164.94,475.58,164.93z
			 M464.96,175.22c-0.83,0-1.25,0.62-2.29,0.21c-1.04-0.62-1.46-1.46-1.87-2.29l-0.62-1.25c0.83,0,1.46,0.21,2.29,0.42
			c1.46,0.21,4.99,1.66,5.62,2.5l-2.29,0.62C464.76,175.43,465.8,175.22,464.96,175.22z M464.55,172.1
			c-0.21-0.21-0.21-0.21-0.62-0.42c-0.21-0.21-0.62-0.21-0.83-0.42c-2.91-1.04-2.7-0.42-3.54,0c-0.21,0-0.21,0-0.42-0.21l1.66-0.83
			c4.37-1.25,6.24,0,9.57,2.29c0.83,0.62,2.29,1.87,2.7,2.7c-0.83-0.21-3.12-0.21-3.95-0.62
			C468.29,174.18,468.08,173.56,464.55,172.1z M466,168.98c-0.42,0-2.08-0.83-4.78,0.21c-2.08,0.62-1.87,1.04-3.12,0.42
			c0.21-0.42,0.62-0.62,1.04-0.83l2.18-1.75c0,0,0,0,0.01,0c0.01-0.01,0.02-0.02,0.04-0.03l0,0l0.9-0.72
			c1.04-0.62,1.04-1.04,2.5-0.83c0.95,0.16,1.73,0.42,2.42,0.71l-0.01,0c0,0,0.01,0,0.01,0c2.82,1.18,4.22,2.99,9.23,1.99
			c0.42,0,0.83-0.21,1.25-0.42c0.42-0.42,0.62-0.62,1.25-0.83c-0.21,0.21-0.62,0.83-0.62,1.25c0,0.42,0.62,0.62,1.04,0.83v0.42
			c-1.04,0-2.5-0.62-3.95-0.62h-7.9C466.63,168.77,466.42,168.98,466,168.98z M457.06,168.98c-0.21,0.21,0,0.21-0.62,0.21
			C456.85,168.98,456.44,168.98,457.06,168.98l1.93-1.63c0.19-0.03,0.39-0.05,0.58-0.08C458.45,168.16,457.49,168.84,457.06,168.98z
			 M479.52,166.28c0.21-0.42,0.42-0.42,1.04-0.42c0,0.83,0.21,0.83,0.21,1.87c0,1.66,0.62,1.25,0.62,2.08c-1.04,0-1.04,0-1.04-1.25
			c0.21-0.83,0.21-1.25,0.21-2.5C479.94,166.07,479.94,166.28,479.52,166.28z M466.42,163.78h-1.04v-0.21
			c0.83-0.21,1.04-0.21,2.08-0.21L466.42,163.78z M457.69,167.53c0-1.25,1.04-0.83,1.66-3.74h2.29L457.69,167.53z M458.52,162.74
			c-0.21,1.25-1.04,3.33-2.08,3.95c0-0.83-0.21-0.83,0-1.46c0-0.83,0.21-0.62,0.21-1.46c-0.62-0.21-0.42-0.21-0.62-0.83l0.62,0.21
			c-0.21-0.62-0.42-1.46-0.42-2.08c-0.62-3.33,0.21-5.2,0.21-6.45c0.21,0.21,0.42,0.21,0.42,0.62c0.21,0.21,0.21,0.62,0.21,0.83
			c0.21,0.62,0.21,1.04,0.62,1.66C457.69,158.38,458.73,161.08,458.52,162.74z M451.65,171.89c0.21-0.21,0.21-0.21,0.42-0.21
			c0.42-0.21,0.42-0.21,0.62-0.42c-0.21,0.42-0.62,0.62-1.25,0.83C451.65,171.89,451.45,172.1,451.65,171.89z M451.24,171.06
			c0.42-0.62,0.42-0.62,1.25-0.62C452.07,170.85,451.86,170.85,451.24,171.06z M452.49,169.61c-0.83,0-0.83-0.21-1.04-0.83
			c-0.21-0.21-0.62-1.04-0.62-1.25c0-0.62,0.21-0.21,1.25-1.46c0.42-0.83,0.21-1.25,0.62-2.08c0.42,0.42,0.42,0.62,0.83,1.04
			c0.21,0.42,0.62,0.62,1.04,0.83c0.42,0.42,0.62,0.62,0.83,1.04c1.04,2.08,0.62,1.87,0,2.08
			C454.15,169.81,454.36,169.61,452.49,169.61z M455.4,156.09c0,2.08-0.42,2.29-0.42,3.33c0,0.78,0.37,0.83,0.41,1.87h0
			c0,0,0,0,0,0.21c0-0.07,0-0.14,0-0.21h-0.2l-1.87-5.2c0-0.21,1.87-2.7,2.7-2.91C456.02,154.22,455.4,154.63,455.4,156.09z
			 M448.95,172.1l-1.25,0.62c-0.42,0-1.04,0.21-1.46,0.42c0.21-0.42,0.21-0.83,0.42-1.04H448.95z M446.04,174.18
			c0,0-0.62,0.42-1.04,0.21C445.62,174.18,445.41,174.18,446.04,174.18z M441.26,180.42c0.83,0,1.04,0.21,1.66,0.42
			c1.87,0.83,2.29,0.62,4.58,2.29c1.25,0.83,3.74,3.12,3.74,4.78c-0.62-0.21-1.04-0.21-2.08-0.21c-0.83,0-1.46-0.21-2.29-0.42
			c-2.7-0.42-4.16-0.21-6.03-3.95c-0.42-1.04-1.25-3.33-1.87-3.33c-0.21-0.62-0.62-1.25-0.62-1.87c-0.62-0.42-0.83-0.42-0.83-1.04
			c0.21,0.21,0.21,0.21,0.62,0.21c0,0.42-0.21,0,0,0.42c0,0,0,0,0.21,0.42c0.62,0.42,3.74,5.41,5.41,5.41
			C443.75,182.5,442.09,181.46,441.26,180.42z M440.01,185.62c-0.62-0.42-0.42-1.66-0.42-2.29
			C440.84,184.16,440.01,185.41,440.01,185.62z M440.22,190.4c-1.04-0.83-0.62-3.12-0.62-3.95h0.21
			C439.8,187.49,440.01,189.57,440.22,190.4z M429.61,192.07c-0.42-1.25-1.25-2.08-1.25-3.74l1.66,1.87
			c0.62,0.42,1.04,0.62,1.46,1.25c-0.42,0.62-0.62,0.42-0.62,1.66C430.02,192.9,430.23,192.48,429.61,192.07L429.61,192.07z
			 M430.65,189.57l-0.62-0.62c-1.04-1.25-0.62-1.87-1.87-2.08c0-0.83,0-0.83,0.42-1.25c0.83,0,0.83,0,1.25,0.42
			c0.62,0.42,0.83,0.62,1.25,0.83c1.25,0.83,1.87,1.46,2.7,1.25c-0.42-1.25-2.91-2.08-3.74-3.33c1.04,0.21,1.04,0.83,1.87,0.62
			c0.42,0,0.62-0.21,1.04-0.21c0.62-0.21,0.83,0,1.25,0c0.42,0.42,1.25,0.83,1.46,1.04c1.25,0.83,2.7,3.33,3.33,4.58h-4.58
			C432.1,190.82,431.9,190.82,430.65,189.57z M437.3,184.16v2.29h-0.21c0-1.04-0.21-2.29-0.83-2.7c-0.42,1.04-0.21,0.42-0.21,1.46
			c-0.42-0.21-1.04-0.42-1.25-0.62c-0.05,0.1-0.09,0.17-0.13,0.21c0.04-0.05,0.07-0.11,0.13-0.21c-1.04-0.42-0.21-1.66,0.21-2.08
			h1.87C437.3,182.71,437.3,182.92,437.3,184.16z M438.14,181.25c0.42,0.21,0.21-0.21,0.42,0.62c0,0.42,0,0.42,0,0.83
			c0.42,1.87,0.21,3.95,0.21,5.41c-0.21,0-0.21,0-0.42-0.21c-0.83-0.83,0-1.25,0-1.66C438.34,185,437.72,181.88,438.14,181.25z
			 M437.72,175.85c0.62-0.21,1.46-0.21,2.08-0.42c1.04,0,1.66-0.42,2.7-0.42c-0.21,0.21,0,0.21-0.42,0.21
			c-0.83,0.42-1.87,0.42-2.7,0.62C438.34,175.85,438.34,176.26,437.72,175.85z M440.84,174.39h-1.25c0-0.62,0.21-1.25,0.42-1.66
			h2.29c0.21,0.42,0.62,0.62,1.04,1.25C442.5,173.97,441.67,174.39,440.84,174.39z M443.54,174.6h0.83l-1.46,0.42
			C443.13,174.81,443.13,174.81,443.54,174.6z M431.48,168.77c0.83,0.21,1.66,0.42,2.29,0.62c0.42,1.87,0,1.04-0.83,0.62
			c-1.04-0.62-1.25-0.42-2.29-0.21c-0.21,0.21-1.04,0.62-1.25,0.83c-0.42-0.42-0.62-0.42-1.04-0.83c1.25,0.21,1.04,0,2.29,0v-0.21
			L431.48,168.77z M428.15,169.81c-1.66-0.42-1.46-0.21-2.7,0.62c-0.21-0.42-0.42-0.42-0.62-0.62l-0.21-0.42l-0.21-0.42
			C425.66,168.77,426.7,167.73,428.15,169.81z M425.03,172.93c0,0.42-0.62,0.42-0.83,0.62c-0.21,0.21-0.62,0.42-0.83,0.62
			c-1.66,1.46-2.29,0.83-3.54,0.62c-1.46-0.42-1.46-0.21-2.7-1.04c-2.5-2.08-3.33-2.29-3.74-5.82l5.2,0.83
			c2.29,0,3.33-0.21,5.2,1.25C424.41,170.65,425.03,171.89,425.03,172.93z M418.59,196.64c-0.21-1.46-0.21-3.12,0.62-4.16
			c0.21-0.21,0.42-0.62,0.62-0.83c0.21-0.21,0.42-0.21,0.83-0.42c0.42,2.29,0.21,1.66,0.21,2.5c0,0.42,0,0.21,0,0.62
			c1.25,0,1.25-0.62,1.87-0.83c-0.21,0.83-0.83,1.46-1.46,2.08c-0.21,0.21-0.21,0.42-0.62,0.62c-0.42,0.62-1.87,2.08-2.5,2.29
			C418.38,197.68,418.79,197.68,418.59,196.64z M421.91,192.9c-0.42-0.83,0.21-1.04-1.04-3.12c-0.62-1.25-1.04-3.74-0.21-4.78
			c1.25-1.25,2.7-1.87,2.7-3.54c1.04,0,1.04,0.42,2.08,0.42c0,3.12,0.42,2.29,0.42,2.91c0,2.29-0.83,5.62-2.08,6.66
			C423.37,191.86,422.33,192.69,421.91,192.9z M423.16,178.13c-0.62-0.21-0.62-0.42-1.46-0.62l-0.83-0.21
			c-1.25-0.21-1.87,0.42-2.91,0.62c0-1.04-0.21-0.62,2.08-1.25c0.62-0.21,0.83-0.21,1.46-0.42c0.62-0.21,0.83-0.42,1.25,0.21
			C422.95,176.89,423.16,177.3,423.16,178.13z M417.75,175.22c0.62,0,1.46,0.21,1.66,0.42c-0.21,0.21-0.62,0.42-1.04,0.42
			C417.75,176.05,417.75,175.85,417.75,175.22z M415.67,173.56c-1.25,0-1.25,0-1.87,0.42c-0.62-1.04-0.83-0.62-1.46-1.87
			c0.42,0,0.62-0.21,1.04-0.21C413.59,171.89,415.47,173.35,415.67,173.56z M412.97,184.37c1.04-2.08,2.5-3.95,4.37-4.99
			c1.04-0.42,2.29-1.04,3.74-1.04c1.04,0,1.04,0.42,1.66,0.62c-0.21,0.62-0.21,0.42-0.62,0.83l-2.29,1.66
			c-3.54,3.12-2.91,4.58-1.66,2.7c0.62-0.62,0.83-0.62,1.46-1.25c1.04-1.04,1.66-1.46,3.12-2.29c-0.21,0.62-0.83,1.87-1.04,2.29
			c-1.25,1.66-2.29,1.66-3.12,2.08c-1.04,0.83-2.5,1.66-3.74,1.66c-0.62,0-1.25,0.21-1.87,0.21c-0.62,0-1.04,0.42-1.66,0.42
			C411.51,186.45,412.55,185.2,412.97,184.37z M418.79,187.7c-1.25,0.21-0.83-0.21-1.46,1.25c-0.62-0.21-0.83-0.62-1.66-0.62
			c-0.62,0,0,0.21-1.04,0.42l-0.42-0.83c2.7-0.21,4.37-1.87,5.2-2.08C419,186.87,420.04,187.49,418.79,187.7z M419,199.97
			c0.42-0.21,0.62-0.21,1.25-0.21c-0.21,0.42-0.42,1.04-1.25,1.04c-1.25,0-0.42,0-1.04-0.21C418.38,200.18,418.38,200.18,419,199.97
			z M419.21,198.93c1.04-1.66,1.87-1.46,3.95-4.16c2.7-3.54,0.62-1.66,2.08-3.74l0.83-1.46c0.21,1.04,0.62,0.83,0.62,2.08
			c0,0.62-0.21,0.83-0.42,1.46c-0.21,0.62-0.21,0.83-0.42,1.46c-0.83,2.5-1.66,2.91-3.74,3.54
			C421.5,198.31,420.04,198.93,419.21,198.93z M426.7,181.46c0.21-1.46-2.29,0.21-2.5-1.46c-0.21-0.62,0-1.46,0.21-1.66
			c0.42-0.62,0.62,0,1.25-1.04c-0.62-0.83-0.42-0.42-1.25-0.42c-0.83-0.21-0.83-0.62-0.62-1.25c0-0.62,0.21-0.62,0.42-1.04
			c1.04,0,2.08,0.42,2.08-0.62c0,0-1.25-3.54,1.04-3.54c0.62,0,0.62,0.21,1.04,0.42l0.42,0.83c0.21,0.83,0.42,1.04,1.25,1.25
			c0.42-0.83,0.21-2.7,1.87-2.29c1.66,0.21,1.04,1.46,1.66,2.91c0.56-0.08,0.97-0.28,1.32-0.38l-0.02,0.04
			c0.01-0.01,0.01-0.03,0.02-0.04c0.55-0.16,0.96-0.06,1.59,1.22c1.04,2.29-0.62,2.29-0.42,3.12c0.42,1.04,1.66,0.62,1.46,2.29
			c0,1.04-0.83,1.87-1.87,1.66c-1.87-0.42-1.46,0.21-2.08,1.66c-0.42,0.83-1.04,1.25-2.5,1.25c-0.21-0.42-0.21-0.42-0.42-0.83
			c-0.01-0.04-0.02-0.08-0.03-0.11v0v0c0,0,0,0,0,0c-0.01-0.02-0.01-0.05-0.02-0.07c-0.12-0.4-0.01-0.26-0.57-0.45
			c-0.62,0.42-0.83,2.08-2.5,1.46C425.66,183.96,426.7,181.67,426.7,181.46z M456.02,179.38l-3.33-2.7c1.25,0,3.95,1.46,4.99,2.29
			c1.04,0.62,2.91,2.7,3.12,4.16c-1.66,0.42-3.95,0.21-5.41-0.42c-1.46-0.42-3.12-2.08-3.74-3.74c-0.21-0.62-0.83-2.08-0.83-3.12
			c1.04,0.83,3.74,4.78,6.03,4.78C456.85,180.01,456.44,179.8,456.02,179.38z M480.77,164.2c-0.62-0.21-0.62-0.21-1.04-0.62
			C480.56,163.57,480.56,163.57,480.77,164.2z M479.52,156.92c0.42,1.04,0.21,2.7,0.62,4.16c0.21,0.42,0.42,0.62,0.42,1.25
			c-0.83,0-1.25-0.21-1.87-0.21c-1.04,0,0,0-0.83,0.21c-0.62,0.21-0.21-0.42-2.08-0.83c-2.08-0.62-3.12-0.42-4.99,0.42
			c-0.83,0.42-1.87,0.62-2.5,1.04c-1.04-0.42,0-0.42-1.87-0.42c0.42-0.83,0.83-0.83,1.46-1.66c0.42-0.62,0.83-1.46,1.25-2.08
			c1.25,0.42,1.04,0.42,3.12-0.21c0.83-0.21,1.87-0.62,2.7-1.04c1.46-1.04,2.7-3.12,2.7-5.2
			C479.32,152.55,479.11,155.05,479.52,156.92z M476.4,149.43c0.21-0.83,0.21-1.04,1.04-1.25c0,0.83-0.21,1.04-0.42,1.66
			c-0.21,2.29-0.42,6.03-3.33,7.07c-0.83,0.42-2.08,0.83-3.33,0.83l0.62-0.21c0.83-0.62,1.87-1.66,2.7-2.7
			C474.74,153.8,476.2,150.89,476.4,149.43z M474.12,149.85c0.62-0.21,0.62-0.42,1.25-0.42c0,0.62-0.21,0.83-0.42,1.25
			c-1.25,1.87-1.66,3.95-3.74,5.62c-0.62,0.42-1.66,1.25-2.7,1.25c0-1.46-0.42-1.46,0.42-4.37c0.42-1.04,0.83-1.46,1.66-1.87
			C471.62,150.68,473.08,150.47,474.12,149.85z M467.25,151.3c0-0.83-0.21-0.83-0.21-1.66h4.16c-0.21,0.42,0,0.21-0.62,0.62
			c-0.83,0.42-1.66,0.62-2.29,1.66c-1.25,2.08-0.42,4.99-1.25,6.24c-0.62,1.04-2.7,3.54-3.74,3.95c0.13-0.26,0.83-1.18,1.49-2.03
			c0,0,0,0,0,0c0.01-0.01,0.01-0.02,0.02-0.02l0,0c0.38-0.5,0.75-0.97,0.98-1.27C467.46,156.09,467.25,154.42,467.25,151.3z
			 M466.21,149.43c0,2.7,0.42,6.86-1.46,9.15c-0.21,0.42-0.42,0.62-0.83,1.04c-0.21,0.42-0.42,0.62-0.83,0.83
			c-0.83-0.62-1.46-3.54-1.46-4.58c0-0.62,0.42-1.46,0.62-2.08c0.42-1.25,1.25-1.66,2.5-3.12
			C465.38,150.26,465.59,149.64,466.21,149.43z M403.2,174.39c-0.42,0-0.21-0.21-0.62-1.87c-0.21-1.04-0.21-1.46-0.42-2.29
			c0-1.04-0.21-3.74,0.21-4.58c0.83-1.87,2.7-2.91,4.37-3.74c1.04-0.83,2.08-1.66,3.33-2.29l5.41-2.29
			c0.83-0.42,1.46-0.62,2.08-0.83c1.66-0.62,4.16-1.87,5.62-2.29l10.81-2.91c2.08-0.42,12.06-2.08,13.93-2.08
			c1.46,0,2.5-0.21,4.16-0.21h8.94c1.66,0,2.5,0.42,3.95,0.42l-0.62,0.42c-1.04,0.62-2.5,2.29-2.7,2.91
			c-0.42,0.42-0.42,1.04-0.62,1.66c-0.83,3.12,0.62,3.33,0.62,8.11c-0.83,0.21-1.25,0.21-2.29,0.21c0-1.04-0.42-4.99-0.83-5.62
			c-0.21-1.04-0.83-2.29-1.25-4.37c-0.21-1.04,0-0.62-0.62-1.25c-1.04,0.21-3.54,2.91-4.16,3.74c-0.83,1.46-0.21,6.03-0.21,7.7
			c-0.83-0.62-0.83-1.46-2.5-1.46c0-1.87-0.62-2.91-1.66-3.54c-1.46-1.04-2.7,0.21-3.74,0.62c-0.21-1.25-1.87-2.08-3.54-1.46
			c-1.46,0.42-2.08,1.66-2.08,3.54c-3.33,0,0.42-1.46-2.29-4.16c-1.25-0.83-1.46-0.42-2.29-0.62c-0.62-0.42-0.42-1.25-1.25-1.66
			c-0.42-0.21-1.87-0.42-2.5-0.42c-0.83,0-1.25,0.83-1.66,1.46c-1.04-0.62-2.08-1.46-3.33-0.21c-1.66,1.66-0.62,2.7-0.42,3.33
			c-2.29,0-3.74,1.87-2.7,3.95c0.42,0.62,0.83,0.62,1.66,1.04c0,1.46-0.83,3.12,1.46,3.95l0.83,0.21c-1.46,0-1.46,0.42-2.29,0.62
			c-1.04,0.21-1.66,0-2.5-0.21c-1.46-0.21-3.54-0.42-5.2-0.42c-3.74-0.42-3.95-1.66-4.37-1.04c-0.21,0.42,1.25,3.95,1.04,4.37
			c-0.21,0.42-0.62,0.42-1.87,0.83l-6.86,2.29L403.2,174.39z M404.44,196.44c-1.04,0-1.66-0.42-1.66-1.66
			c0.21-1.25,1.46-1.04,1.25-1.87c-0.21-0.62-2.7-0.21-2.29-2.7c0-0.42,0.42-0.83,0.83-0.83c0.62-0.42,2.7,0,1.87-1.04
			c-0.42-0.62-1.04-0.42-0.62-2.7c2.5-0.42,2.5,0,3.33,1.04c0.62-0.21,0.21-0.21,0.83-0.42c0.62,1.25,1.25,1.04,2.08,1.87
			c0.62,0.42,0.62,1.04,2.29-0.21l0.21,0.62l0.62,0.21c0.83,0.21,0.21,0.62-0.21,1.66c-0.42,1.46-0.42,0.42-1.66,0.83
			c-0.62,0.21-0.62,0.62-1.25,0.83c0-0.21,0.83-1.04-0.42-2.08c-0.62-0.62-1.87-0.42-3.12-0.42c-1.46,2.29,0.62,4.37,3.12,2.91
			c-0.42,2.91,0,1.46,1.04,3.33c-0.21,0.42-0.62,0.62-1.04,0.83c-0.21,0-0.42,0-0.62,0.21c-0.83,0.21-2.08,1.46-2.7-1.04
			C405.28,195.81,405.48,196.44,404.44,196.44z M409.02,191.24c-0.42,1.66-1.87,0.42-2.08,0.42c0-0.62,0-1.04,0.62-1.04
			C408.4,190.61,408.81,190.82,409.02,191.24z M375.74,232l6.86-6.86c1.46-1.46,2.7-3.12,4.37-4.58l4.37-4.78
			c1.66-1.46,2.91-2.91,4.58-4.58c0.42-0.42,0.42-0.62,1.04-1.25l2.29-2.08c0.62-0.42,0.83-0.62,1.25-1.04
			c1.87-1.46,3.54-2.5,5.2-3.95c1.25-0.83,5.82-1.66,7.49-1.66c1.04,1.66,2.08,1.66,4.16,0.62c1.04-0.62,1.04,0.21,2.5-0.42
			c1.25-0.42,0.83-0.62,1.46-1.66c0.62-1.04,3.33-0.21,5.2-3.95c0.21-0.83,0.62-1.04,2.08-1.04c0.21,0,0.42-0.21-0.62,1.25
			l-1.87,2.91c-0.42,1.46,0.83,4.99,1.66,6.03c0.21,0.62,0.62,0.83,0.83,1.46c0.21,0.62,0.62,1.25,0.62,1.87h0.83
			c0.42-1.87,3.54-5.62,2.7-8.73c-0.21-1.25-0.83-1.87-1.25-2.91c1.04,0.62,1.87,1.04,3.12,1.46c1.04,0.42,2.5,0.83,3.74,1.04
			c0,1.66,0,3.54,0.62,4.37c3.74,4.16,6.45,1.04,9.98,0.83c0.83,0,1.46,0.42,2.29,0.21c-0.21-1.46-1.04-0.21-2.91-2.5
			c-1.25-1.46-2.29-2.91-3.74-4.16c-0.42-0.62-1.25-0.83-1.87-1.04c-2.29-1.04-2.08,0.62-3.95,0.62c0.42-0.62,4.37-1.87,5.2-4.99
			c0.62-2.29,1.04-1.25,4.58-2.08c1.04-0.21,1.87-0.42,2.91-0.42c2.5,0,4.37-0.21,6.86-0.21l6.66-0.21c1.25,0,2.29,0.42,3.33,0.42
			c1.04,0,2.29,0,3.54,0l10.19,0.42c1.04,0.21,1.87,0.42,3.33,0.42l1.25,0.62c0.62,0.21,0.83,0.42,1.46,0.83l5.62,2.91
			c2.08,1.04,1.46,1.04,3.95,2.29c0.62,0.21,1.04,0.42,1.46,0.62l2.91,1.46c1.04,0.62,1.66,1.04,2.7,1.66
			c1.04,0.42,2.08,0.83,3.12,1.25c3.12,1.87,7.7,4.16,11.23,5.82c0.42,0.21,0.83,0.42,1.46,0.62c0.42,0.42,0.83,0.62,1.25,0.83
			c1.46,0.83,2.7,1.04,4.37,2.08c0.62,0.21,0.83,0.42,1.46,0.62c0.42,0.42,0.83,0.62,1.25,0.83c0.42,0.21,1.25,0.62,1.46,1.04
			c-1.04-0.21-3.95-1.25-5.2-1.46c-2.7-0.21-3.95-0.83-5.82-0.83c-1.04,0-1.87-0.21-2.91-0.21c-1.04,0-2.08,0-3.12,0
			c-1.87-0.42-3.95-0.62-5.82-0.83l-9.36-0.42c-1.04,0-2.08,0-3.12,0c-2.29,0-4.16-0.21-6.45-0.21c-1.25,0-1.87-0.21-3.12-0.21
			c-2.91,0-3.33-0.21-6.24,0.21l-6.03,0.42c-4.16,0.42-8.11,0.21-12.48,0.62c-2.7,0.42-6.45,0.62-8.74,1.04
			c-1.04,0.21-1.87,0.42-2.91,0.42c-1.66,0.42-3.54,0.42-5.62,0.83c-1.04,0.21-1.66,0.42-2.91,0.42l-5.62,1.04
			c-0.83,0-1.46,0.21-1.87,0.42c-0.83,0.21-1.66,0-2.29,0.21c-2.08,0.83-1.87,0.42-3.95,1.04c-0.83,0.21-1.46,0.42-2.08,0.42
			c-2.5,0.42-2.29,0.62-4.16,1.04c-2.5,0.42-10.19,1.87-12.27,2.7c-0.83,0.42-1.25,0.42-2.08,0.62c-1.46,0.42-1.46,0.62-3.74,1.25
			c-0.83,0.21-1.04,0.42-1.87,0.62c-4.99,1.46-10.19,3.12-14.97,5.2c-2.5,1.04-2.91,1.04-5.41,2.08c-0.62,0.42-1.04,0.62-1.66,0.83
			c-0.62,0.42-1.25,0.42-1.87,0.83c-0.83,0.42-2.08,1.46-3.12,1.66C373.66,233.66,375.12,232.62,375.74,232z M445,202.47
			c0.62,0.42,1.25,0.83,1.46,1.66c-0.62,0-0.83,0-1.46,0.21c-1.66,0.21-1.87,0.62-3.33-0.21l-0.83-0.21
			c-0.83-0.21-1.25-1.04-1.25-2.08c-0.21-0.42-0.62-2.5-0.42-2.91c0.21-1.04,1.66-1.25,2.7-1.25c1.66,0,2.7,1.25,3.54,2.29
			c0.42,0.62,2.7,2.5,2.7,3.33c0,1.04-1.25,0.21-1.87-0.42c-1.46-1.46-1.25-1.87-3.33-3.12c-1.87-1.04-1.25-1.25-2.7-1.25
			c-0.42,0-0.42,0-0.42,0.42v0.42C442.09,199.35,443.54,201.22,445,202.47z M411.1,223.06L411.1,223.06
			C411.1,223.06,411.1,223.06,411.1,223.06L411.1,223.06z M520.91,214.11l-7.28-0.62c-0.42,0-0.83,0-1.25,0l-6.45-0.62
			c-3.12-0.42-6.66-0.42-9.98-0.83c-1.66,0-3.54,0-5.2-0.21c-1.46-0.21-8.74,0-10.4,0.21c-1.66,0.21-3.54,0-5.2,0
			c-4.16,0.42-11.02,0.83-14.77,1.46l-4.99,0.42c-3.74,0-8.32,1.04-12.27,1.66c-3.95,0.62-7.9,1.25-11.85,2.08
			c-3.95,1.04-8.53,1.46-11.65,2.5l-11.44,2.5c-0.83,0.21-9.36,2.7-10.19,3.12l-4.78,1.66c-2.08,0.62-7.28,2.7-9.57,3.54
			c-1.46,0.62-3.12,1.25-4.78,2.08l-6.66,3.12c-0.62,0.42-1.66,1.04-2.29,1.25c0.62-1.04,2.08-1.46,3.12-2.08l11.02-5.2l7.7-2.91
			c2.29-0.83,1.04-0.62,3.95-1.25l8.11-2.7c2.08-0.42,4.78-1.66,8.32-2.29c0.62-0.21,1.46-0.42,2.08-0.62
			c3.33-1.04,8.74-1.46,13.1-2.91c2.7-0.62,2.08-0.42,4.37-0.83c0.83-0.21,1.66-0.62,2.29-0.62c1.46,0,1.87-0.21,2.91-0.42
			c0.62,0,1.04,0,1.66,0c0.42-0.21,1.04-0.21,1.46-0.42c1.04,0,1.87-0.21,2.91-0.42c2.29-0.42,4.16-0.42,6.24-0.83
			c1.04,0,1.66-0.21,2.7-0.42l12.69-1.25c3.74-0.42,11.44-0.42,13.31-0.62c0.42-0.21,0.83-0.21,1.46-0.21c0.83,0,0.83,0,1.66-0.21
			c1.25,0,2.08,0,3.33,0l20.17,0.62c2.08,0,4.16,0.62,6.24,0.62c1.66,0,10.81,0.83,12.69,1.25c1.04,0.21,1.87,0.42,2.7,0.62
			c3.74,0.62,3.54,0.62,7.07,1.87c0.62,0.21,0.83,0,1.04,0.42C534.01,216.61,524.24,214.53,520.91,214.11z M532.77,227.63
			c-1.04,1.04-2.08,2.08-3.12,2.7c-1.25,0.83-2.29,1.66-3.54,2.7c-0.21,0.21-0.42,0.42-0.83,0.62c-1.46,1.04-2.5,1.87-4.37,2.91
			l-5.82,3.33c-2.7,1.46-5.2,2.7-8.11,3.74c-1.46,0.62-2.5,1.25-4.16,1.87l-8.53,3.54c-1.25,0.62-2.5,1.25-3.95,1.87l-4.37,1.66
			c-0.62,0.21-1.25,0.62-2.08,0.83c-1.04,0.62-5.41,2.5-6.45,2.5c0-1.25,0.42-0.42,3.74-2.08c1.46-0.62,2.7-1.25,4.16-1.87
			c2.5-1.04,3.54-1.25,6.03-2.7c0.83-0.42,1.46-0.42,2.29-0.83l6.24-2.5c2.08-0.83,3.54-1.66,6.24-2.91
			c1.46-0.62,2.7-1.25,4.37-1.66l5.82-2.91c1.46-0.83,5.82-3.74,7.28-4.78c3.74-2.5,5.82-3.74,9.15-7.28
			c1.25-1.25,2.5-2.5,3.33-4.16c0.42-0.62,0.62-1.46,1.25-1.87C536.51,224.3,535.05,225.34,532.77,227.63z"/>
		<path class="st1" d="M424.62,255.08c0,1.04-1.46,1.87,0.21,2.29c0.62-0.42,1.04-1.04,1.25-1.66l0.21-1.46
			c0.21-1.46,0.21-1.87-0.42-3.54c-0.21-0.62-0.42-0.62-0.62-1.25c-0.21-1.04-0.21-1.04-1.25-1.04c0,1.66,1.25,2.29,1.25,4.37
			C423.79,252.38,424.62,251.96,424.62,255.08z"/>
		<path class="st1" d="M466.42,177.72c0-1.04,0.21-0.83-0.42-1.25c-0.83,0.42-0.62,1.25-0.42,2.7c0.21,1.87,0,3.54,0.62,6.66
			c0.21,1.04,0.21,1.87,0.83,2.91c0.42-0.42,0.42-0.42,0.21-1.04C466.84,182.92,466.42,183.33,466.42,177.72z"/>
		<path class="st1" d="M443.06,166.29c0.08,0.03,0.16,0.07,0.23,0.12c0.31,0.06,0.64,0.02,1.08-0.13c1.45-0.21,1.46-0.62,1.46-2.28
			c0-0.01,0-0.02-0.01-0.02c-0.04-0.15-0.12-0.28-0.17-0.42c0,0,0,0-0.01,0c-0.03-0.02-0.05-0.05-0.07-0.08
			c-0.63-0.36-1.98-1.5-2.87,0.1c-0.21,0.21-0.62,1.04-0.62,1.66c0,0.19,0.54,0.56,0.78,0.95
			C442.92,166.23,442.99,166.26,443.06,166.29z M443.75,163.99l1.04,0.83c-0.62,0.42-0.21,0.42-1.25,0.42
			c0-0.21-0.21-0.62-0.21-0.83L443.75,163.99z"/>
		<path class="st1" d="M432.31,161.29c0-1.04-1.25-2.29-2.29-2.29c-0.83,0-1.66,1.04-1.66,1.87
			C428.36,163.99,432.31,163.37,432.31,161.29z M430.86,160.46c0,0,1.46,1.87-1.25,1.25c0-0.42-0.21-0.21-0.21-0.62
			C429.4,160.25,430.23,160.04,430.86,160.46z"/>
		<path class="st1" d="M430.86,179.38c0.62,0,1.46-1.25,1.46-2.08c0-2.08-3.95-2.7-3.95-0.42
			C428.36,177.72,428.98,179.38,430.86,179.38z M431.27,177.09c0,0.62-0.21,0.83-0.62,1.25c-0.62-0.21-1.25-0.62-1.25-1.25
			C429.4,176.05,431.06,176.89,431.27,177.09z"/>
		<path class="st1" d="M477.44,181.04h-0.62c0,1.25,0.21,1.87,0.21,2.91l-0.21-0.21c-0.21-0.21-0.42-0.62-0.62,0
			c0,0.42,0.42,2.29,0.42,3.12c0,1.46,0.42,1.25,1.66,1.04c0-1.25-0.42-4.99-0.62-6.24C477.44,181.25,477.44,181.46,477.44,181.04z"
			/>
		<path class="st1" d="M424.62,182.5c-2.08,0-0.21,0.83-1.87,5.62c-0.21,0.83-0.62,0.83-0.62,2.08c0,1.46,0,0.83,0.21,1.25
			c1.25-0.83,0-1.46,1.25-1.87c-0.42-0.42-0.42-0.42-0.62-1.04C424.62,188.12,424.83,184.16,424.62,182.5z"/>
		<path class="st1" d="M478.69,177.3l1.25,7.49c0.21,1.04-0.42,1.66,0,2.5c0.62,0,0.83-0.21,0.83-0.83c0.21-0.42,0.21-0.62,0-1.25
			c-0.21-1.04-0.21-1.87-0.42-3.12c0-0.83-0.21-1.87-0.42-2.7C479.73,178.13,479.94,177.3,478.69,177.3z"/>
		<path class="st1" d="M416.92,245.73c1.25,1.04,1.25,0.83,2.5,1.25c1.04,0.21,1.46,0.83,2.08-0.42c-2.08-0.42-2.08-0.21-3.95-1.66
			c-0.83-0.42-2.29-2.7-2.91-2.7C412.76,242.19,416.92,245.52,416.92,245.73z"/>
		<path class="st1" d="M463.51,156.09c0,0.42-1.04,2.7-0.42,3.95c0.42-0.42,0.42-0.21,0.62-0.83c0-0.42,0-0.62,0-1.25
			c0.21-0.42,0.42-0.62,0.42-1.04c0.21-0.42,0.21-0.62,0.42-1.04c0.21-0.83,0.42-1.46,0.62-2.08l0.62-2.29
			c0-0.21-0.42-1.25-1.25,1.04C463.92,154.42,463.92,154.01,463.51,156.09z"/>
		<path class="st1" d="M415.67,169.4c0,0.83,0.42,1.04,1.46,1.87c0.83,0.62,3.12,1.66,4.37,2.08c0.42,0.21,0.83,0.42,1.04,0.42
			c0.62,0.21,0.62,0.21,1.04-0.21c-2.5-1.46-4.16-1.66-6.86-3.74C416.3,169.61,416.3,169.4,415.67,169.4z"/>
		<path class="st1" d="M478.07,179.59c-0.21,0.83,0,1.04,0.21,2.08l0.42,4.78c0.21,1.25-0.21,1.66,0.42,2.08
			c0.62-1.04,0-6.66-0.21-7.9C478.69,179.8,478.9,179.59,478.07,179.59z"/>
		<path class="st1" d="M411.51,181.04c0.83,0,1.46-0.83,1.25-1.46c-0.83-2.7-3.33-1.25-2.91,0
			C409.85,179.8,410.47,181.04,411.51,181.04z M411.1,179.17c0.21,0.21,0.21,0,0.62,0.42c0.21,0.42,0.21,0.42,0,0.42
			C411.31,180.21,410.68,180.01,411.1,179.17z"/>
		<path class="st1" d="M420.25,194.56v-0.21c0-0.42,0-0.62-0.21-1.04c-0.83,0.62,0.21,0.83-1.04,0.83
			C419,195.6,419.42,195.4,420.25,194.56z"/>
		<path class="st1" d="M444.17,185v-0.42c-0.83-0.21-0.83-0.83-1.66-1.25c0.21,0.83,0.42,1.25,0.62,1.87
			C443.54,185,443.33,184.79,444.17,185z"/>
		<path class="st1" d="M420.67,180.21c-0.83,0-1.87-0.21-2.5,0.21v0.42c1.25,0,1.46-0.42,2.5-0.42V180.21z"/>
		<path class="st1" d="M457.27,182.5c0.21-0.21,0.62,0.21-0.42-0.62c-0.42-0.42-0.21-0.42-0.83-0.62c0.21,0.42,0.42,0.83,0.83,1.25
			C457.48,182.71,457.27,182.5,457.27,182.5z"/>
		<path class="st1" d="M414.43,194.15h-1.04v0.62h0.62C414.43,194.77,414.43,194.56,414.43,194.15z"/>
		<path class="st1" d="M442.3,203.51c0.21,0,0.21,0,0.62,0.21l0.21-0.62c-0.42-0.21-0.83,0-1.25,0
			C441.88,203.3,441.88,203.3,442.3,203.51z"/>
		<path class="st1" d="M413.8,195.4c-0.21,0-0.42,0.21-0.42,0.42c0.62,0.21,0.62,0.21,1.25,0.21
			C414.43,195.81,414.22,195.4,413.8,195.4z"/>
		<path class="st1" d="M445.41,186.45C445,185,443.54,186.45,445.41,186.45L445.41,186.45z"/>
	</g>
</g>
</svg>
