<svg width="52" height="24" viewBox="0 0 52 24" fill="none" xmlns="http://www.w3.org/2000/svg">
<ellipse cx="11.9994" cy="11.9994" rx="11.9994" ry="11.9994" fill="white"/>
<path d="M23.3115 8H15.918C16.2391 10.5634 16.241 13.3879 15.9242 15.9544H23.3273C23.7594 14.7162 23.997 13.3865 23.997 12.0011C23.9972 10.5975 23.7541 9.25147 23.3115 8Z" fill="#3757A6"/>
<path d="M15.9212 8.00046H23.3146C23.3134 7.99666 23.3123 7.99347 23.3108 7.99002C21.7751 3.65968 17.8246 0.473697 13.0781 0.0507812C14.9151 1.05763 15.4517 4.24762 15.9212 8.00046Z" fill="white"/>
<path d="M13.0781 23.9498C17.8331 23.5261 21.7891 20.3292 23.3189 15.9872C23.3229 15.9757 23.3263 15.9643 23.3304 15.9531H15.9272C15.4613 19.7263 14.9224 22.9388 13.0781 23.9498Z" fill="#E73B36"/>
<path d="M0 12.0011C0 13.3867 0.237981 14.7162 0.669762 15.9544H16.5443C16.8615 13.3877 16.8592 10.5634 16.5384 8H0.685722C0.243099 9.25152 0 10.5975 0 12.0011Z" fill="#3757A6"/>
<path d="M0.687394 7.98849C0.686279 7.99188 0.685114 7.99513 0.683594 7.99893H16.5363C16.0664 4.24603 14.9122 1.0561 13.0754 0.0492482C12.7202 0.0177841 12.3609 0 11.9976 0C6.77742 -5.06668e-05 2.33826 3.33388 0.687394 7.98849Z" fill="white"/>
<path d="M16.5464 15.9531H0.671875C0.675878 15.9643 0.679627 15.9757 0.683427 15.9872C2.32771 20.6537 6.77325 23.9995 12.0017 23.9995C12.3652 23.9995 12.7244 23.9816 13.0796 23.9498C14.9241 22.9388 16.0805 19.7263 16.5464 15.9531Z" fill="#E73B36"/>
<path d="M38.765 9.7418L41.9983 12.9751L45.2316 9.7418C45.5566 9.4168 46.0816 9.4168 46.4066 9.7418C46.7316 10.0668 46.7316 10.5918 46.4066 10.9168L42.5816 14.7418C42.2566 15.0668 41.7316 15.0668 41.4066 14.7418L37.5816 10.9168C37.2566 10.5918 37.2566 10.0668 37.5816 9.7418C37.9066 9.42513 38.44 9.4168 38.765 9.7418Z" fill="#18191A"/>
</svg>
