<svg width="24" height="24" viewBox="0 0 24 24" fill="none" xmlns="http://www.w3.org/2000/svg">
<path d="M11.9847 15.4078L15.2267 19.0938C16.4267 20.4588 17.0277 21.1418 17.6567 20.9748C18.2847 20.8088 18.5007 19.9108 18.9317 18.1138L21.3217 8.14579C21.9867 5.37779 22.3187 3.9948 21.5807 3.3118C20.8427 2.6288 19.5637 3.1368 17.0057 4.1518L5.13974 8.86479C3.09374 9.67779 2.07074 10.0838 2.00574 10.7818C1.99809 10.8529 1.99809 10.9247 2.00574 10.9958C2.06874 11.6948 3.08974 12.1038 5.13374 12.9228C6.05874 13.2938 6.52174 13.4798 6.85374 13.8348C6.89107 13.8748 6.92707 13.9161 6.96174 13.9588C7.26774 14.3388 7.39774 14.8388 7.65874 15.8348L8.14774 17.7018C8.40074 18.6718 8.52774 19.1578 8.86074 19.2238C9.19374 19.2898 9.48274 18.8878 10.0617 18.0828L11.9847 15.4078ZM11.9847 15.4078L11.6677 15.0778C11.3057 14.6998 11.1247 14.5118 11.1247 14.2778C11.1247 14.0438 11.3047 13.8548 11.6677 13.4778L15.2407 9.75379" stroke="#C19A5B" stroke-width="1.5" stroke-linecap="round" stroke-linejoin="round"/>
</svg>
